<svg xmlns="http://www.w3.org/2000/svg" xml:space="preserve" width="60" height="60" style="enable-background:new 0 0 60 60"><path d="M56.4 33.4v-6c0-2.5-1-5-2.8-6.8-1.8-1.8-4.2-2.8-6.8-2.8H9.6c-.5 0-1-.1-1.4-.3-.4-.2-.9-.5-1.2-.8-.3-.4-.6-.8-.8-1.2s-.2-.9-.2-1.4c.1-.9.5-1.8 1.2-2.5s1.6-1 2.6-1h37c.7 0 1.3.2 1.9.5.6.3 1 .8 1.3 1.4.4.7 1 1.2 1.8 1.5.8.2 1.6.2 2.3-.2.7-.4 1.2-1 1.5-1.8.2-.8.2-1.6-.2-2.3-.8-1.6-2-2.9-3.5-3.8-1.5-.9-3.2-1.4-5-1.4H9.6c-2.5 0-5 1-6.8 2.8-1.8 2-2.8 4.5-2.8 7v35.9c0 2.5 1 5 2.8 6.8 1.8 1.8 4.2 2.8 6.8 2.8h37.2c2.5 0 5-1 6.8-2.8 1.8-1.8 2.8-4.2 2.8-6.8v-6h-6v6c0 1-.4 1.9-1.1 2.5-.7.7-1.6 1.1-2.5 1.1H9.6c-1 0-1.9-.4-2.5-1.1C6.4 52 6 51.1 6 50.2v-27c1.1.5 2.4.7 3.6.7h37.2c1 0 1.9.4 2.5 1.1.7.7 1.1 1.6 1.1 2.5v6h6z" style="fill:#ffd910"/><path d="M54 35.8v6H38.4v-6H54zm.9-5.9H37.5c-1.4 0-2.7.5-3.6 1.5-1 1-1.5 2.3-1.5 3.6v7.7c0 1.4.5 2.7 1.5 3.6 1 1 2.3 1.5 3.6 1.5h17.3c1.4 0 2.7-.5 3.6-1.5 1-1 1.5-2.3 1.5-3.6V35c0-1.4-.5-2.7-1.5-3.6-.9-1-2.2-1.5-3.5-1.5z" style="fill:#fff"/></svg>