<svg xmlns="http://www.w3.org/2000/svg" xml:space="preserve" width="60" height="60" style="enable-background:new 0 0 60 60"><path d="m58.6 16.7-7.1-9.6c-.7-1-1.7-1.7-2.8-2.3-1.1-.5-2.3-.8-3.5-.8H14.8c-1.2 0-2.5.3-3.6.8S9.1 6.1 8.4 7.1l-7.1 9.6C.5 17.9 0 19.3 0 20.8v32c0 1.9.8 3.7 2.3 5.1C3.7 59.2 5.7 60 7.7 60h44.5c2 0 4-.8 5.5-2.1 1.4-1.4 2.3-3.2 2.3-5.1v-32c0-1.5-.5-2.9-1.4-4.1zM45.2 9.6c.3 0 .6.1.8.2.2.1.5.3.6.5l4.5 6H33V9.6h12.2zm-31.8.7c.2-.2.4-.4.6-.5.2-.1.5-.2.8-.2H27v6.7H9l4.4-6zM54 52.8c0 .2 0 .4-.1.6-.1.2-.2.4-.4.5-.2.2-.4.3-.6.3-.2.1-.4.1-.7.1H7.7c-.2 0-.5 0-.7-.1l-.6-.3c-.2-.1-.3-.3-.4-.5V23.3c0-.4.2-.7.4-1 .3-.3.7-.4 1.1-.4h45c.4 0 .8.1 1.1.4.3.3.4.6.4 1v29.5z" style="fill:#ffd910"/><path d="M39 25.2H21c-1.7 0-3 1.3-3 3s1.3 3 3 3h18c1.7 0 3-1.3 3-3s-1.3-3-3-3z" style="fill:#fff"/></svg>