<svg xmlns="http://www.w3.org/2000/svg" width="165" height="147" fill="none"><path fill="#B8B8B6" fill-opacity=".1" d="m164.741 73.413-1.136-.088h.874c-4.807-2.71-5.943-5.943-5.943-5.943-2.534-14.158-15.818-12.148-15.818-12.148 4.544-13.371-9.002-13.11-9.002-13.11.874-7.428-2.36-11.273-2.36-11.273-6.642-11.012-20.188-5.681-20.188-5.681-3.671-12.847-13.11-14.508-13.11-14.508C86.085 8.914 82.677.787 82.327.087V0v.087c-.262.7-3.758 8.827-15.644 10.663 0 0-9.439 1.66-13.11 14.507 0 0-13.546-5.33-20.188 5.681 0 0-3.32 3.758-2.36 11.274 0 0-13.458-.262-9.001 13.11 0 0-13.284-2.01-15.819 12.148 0 0-1.136 3.233-5.943 5.943L0 73.5l.35.087c4.632 2.71 5.768 5.943 5.768 5.943 2.534 14.16 15.818 12.148 15.818 12.148-4.544 13.372 9.002 13.11 9.002 13.11-.961 7.428 2.36 11.274 2.36 11.274 6.642 11.012 20.188 5.681 20.188 5.681 3.671 12.847 13.11 14.507 13.11 14.507 11.886 1.836 15.381 9.963 15.644 10.663V147v-.175c.262-.699 3.758-8.827 15.644-10.662 0 0 9.438-1.661 13.109-14.508 0 0 13.546 5.331 20.188-5.681 0 0 3.321-3.758 2.36-11.274 0 0 13.459.263 9.002-13.109 0 0 13.284 2.01 15.818-12.148 0 0 1.137-3.234 5.943-5.943h-.699l1.136-.087Z"/><path fill="#C6C6C5" fill-rule="evenodd" d="M66.77 70.965c0-.175.087-.262.261-.262h.088c.262.087.524.087.786.087 1.574 0 3.322-.611 5.419-2.01a23.261 23.261 0 0 0 3.059-2.36c.874-.786 2.272-2.447 4.282-4.981 2.447-2.971 4.283-4.894 5.681-5.943.437-.262.7-.524.786-.524v.087s-.087.175-.262.262c-.874.874-1.748 2.535-2.621 4.894-.874 2.185-1.486 3.758-1.923 4.807-.437 1.049-.962 1.923-1.486 2.535-.175.174-.175.262-.175.262l.175-.088.087-.174.263-.263c.437-.524 1.398-1.835 3.059-3.932 2.534-3.321 4.719-5.769 6.554-7.254 1.049-.787 1.66-1.224 1.748-1.224l.087.088-.087.087c-1.31 1.224-2.534 2.972-3.758 5.331-1.136 2.36-1.748 4.195-1.748 5.594 0 1.048.175 1.748.7 2.36.436.524 1.048.873 1.922.873 1.66 0 3.409-.961 5.069-2.884 1.66-1.923 2.534-3.758 2.534-5.768 0-.786-.174-1.486-.611-1.923-.437-.524-.962-.699-1.66-.699-1.487-.087-2.885.962-4.196 2.972-.874 1.31-1.31 2.447-1.31 3.495 0 .525.174.874.436 1.224.262.262.525.437.962.437.262 0 .524-.087.699-.175.174-.087.35-.175.35-.262l-.088-.087-.175.087c-.175 0-.262.087-.262.087-.262 0-.437-.174-.437-.524 0-.175.087-.437.262-.524.175-.088.35-.175.525-.175.436 0 .611.175.611.699 0 .437-.175.7-.524.961a1.447 1.447 0 0 1-1.049.437c-.437 0-.874-.174-1.049-.524-.262-.35-.35-.787-.35-1.311 0-1.224.525-2.622 1.749-4.195 1.223-1.66 2.534-2.534 3.933-2.534.874.087 1.573.35 2.097.96.524.613.7 1.487.7 2.36 0 .874-.263 1.836-.7 2.885a11.45 11.45 0 0 1-2.01 2.709c-1.923 1.835-3.67 2.71-5.419 2.71-1.048 0-1.835-.438-2.534-1.224-.7-.787-1.049-1.836-1.049-2.972 0-1.223.525-2.797 1.573-4.544 1.05-1.836 2.36-3.321 3.758-4.632.175-.088.263-.175.263-.175l-.088-.088c-.175 0-.874.612-2.01 1.748-1.486 1.574-3.67 4.108-6.293 7.691-.786.962-1.485 1.923-2.272 2.622-.786.787-1.223 1.224-1.398 1.224l-.087-.088.087-.087c.437-.525.787-1.136 1.049-1.66.262-.7.699-1.836 1.31-3.671.612-2.01 1.224-3.496 1.748-4.457.525-1.137 1.311-2.01 2.098-2.885l.087-.087-.087-.087c-.087 0-.524.437-1.398 1.31-.612.612-2.185 2.535-4.894 5.769-1.311 1.66-2.622 2.971-3.671 3.845a27.861 27.861 0 0 1-3.67 2.622c-1.836.961-3.41 1.573-4.807 1.573-.438-.175-.7-.262-.7-.437Z" clip-rule="evenodd"/><path fill="#C6C6C5" fill-rule="evenodd" d="M97.184 71.403c-1.311 0-2.884-.524-4.807-1.573-1.31-.7-2.534-1.573-3.583-2.622a29.086 29.086 0 0 1-3.67-4.02c-2.623-3.234-4.283-5.157-4.808-5.768-.874-.874-1.31-1.311-1.398-1.311l-.087.087.087.088c.874.874 1.486 1.835 2.098 2.884.524 1.048 1.048 2.534 1.66 4.544.612 1.836 1.049 3.06 1.311 3.67.262.525.612 1.137.961 1.661l.088.175-.088.088c-.174 0-.611-.437-1.31-1.224-.787-.786-1.486-1.748-2.273-2.71-2.622-3.495-4.72-6.117-6.292-7.69-1.05-1.136-1.66-1.748-1.923-1.748l.175.175c1.486 1.31 2.709 2.884 3.758 4.72.961 1.834 1.486 3.32 1.486 4.631 0 1.136-.35 2.185-1.05 2.972-.698.786-1.572 1.223-2.534 1.136-1.748 0-3.496-.874-5.418-2.797-.874-.874-1.486-1.66-2.01-2.71a5.756 5.756 0 0 1-.7-2.796c0-.961.263-1.748.874-2.447.525-.612 1.224-.874 2.01-.874 1.399 0 2.797.874 4.02 2.622 1.137 1.573 1.661 2.971 1.661 4.195 0 .524-.175.961-.35 1.31-.261.35-.698.525-1.136.525-.35 0-.786-.175-1.048-.437s-.437-.524-.437-.874c0-.437.262-.611.612-.611.174 0 .35.087.524.262.175.175.262.262.262.524-.087.35-.175.525-.524.525 0 0-.175-.088-.263-.088v-.35l-.087.088c0 .087.175.175.437.35.175.174.437.174.612.174.437 0 .7-.175.961-.35.262-.261.437-.698.437-1.223 0-1.048-.437-2.272-1.31-3.496-1.312-2.01-2.71-3.059-4.196-3.059-.699 0-1.31.263-1.748.7-.437.524-.611 1.136-.611 1.922-.088 1.923.786 3.846 2.447 5.768 1.573 1.923 3.233 2.885 4.981 2.885.787 0 1.486-.263 1.923-.787.437-.612.7-1.31.7-2.36 0-1.398-.525-3.233-1.749-5.593-1.136-2.36-2.36-4.108-3.583-5.331l-.175-.175.088-.087c.174 0 .699.437 1.748 1.223 1.835 1.486 3.932 3.933 6.467 7.342 1.573 2.097 2.622 3.408 2.971 3.932l.262.35.088.087.175.088c0-.088-.088-.175-.175-.263-.524-.699-.962-1.485-1.398-2.534-.525-.961-1.05-2.622-1.836-4.807-.874-2.447-1.66-4.107-2.534-4.981l-.262-.263v-.087c.087 0 .35.175.786.524 1.398 1.05 3.234 3.06 5.68 5.943 2.01 2.447 3.41 4.195 4.196 5.07a23.271 23.271 0 0 0 3.059 2.359c2.097 1.398 3.933 2.01 5.418 2.01h.962c.174 0 .262.088.262.262-.175.088-.437.175-.874.175Z" clip-rule="evenodd"/><path fill="#C6C6C5" d="m123.577 51.563-6.118 3.671 2.534-6.205-3.932-2.797-.874.962c.437.35.611.611.699.874.087.174-.088.437-.262.699l-3.758 4.37c-.35.35-.787.524-1.311.262-.088-.088-.263-.088-.525-.262l-.786.96 1.311.962 2.185 1.486.786-.961c-.437-.263-.699-.612-.786-.874-.088-.263.087-.437.262-.787l3.758-4.282-3.146 7.603 1.485 1.049 7.342-4.457-3.671 4.195c-.262.262-.525.437-.787.437s-.699-.175-1.136-.525l-.874.962 4.72 3.233.786-.961c-.437-.262-.699-.524-.699-.787-.087-.262 0-.524.262-.786l3.758-4.37c.262-.35.525-.437.787-.437s.612.175 1.049.437l.873-.961-3.932-2.71Zm-13.022-6.38c.262-.087.524 0 .874.088l.524-1.136-1.398-.437-2.797-.962-.437 1.137c.874.262 1.136.699.874 1.398l-1.835 4.282c-.525 1.224-1.486 1.574-2.972 1.05-.612-.263-.961-.525-1.136-1.05-.175-.437-.175-.874.087-1.31l1.836-4.37c.087-.35.349-.525.612-.612.262-.088.611-.088 1.048.087l.525-1.136-5.244-1.835-.437 1.136c.786.262 1.136.7.786 1.398l-2.01 4.807c-.35.787-.262 1.66.263 2.36.524.786 1.398 1.398 2.709 1.835 2.796.961 4.632.35 5.418-1.66l1.836-4.458c.174-.35.437-.611.874-.611Zm-50.777 4.458c-.437.175-.787.175-1.224.175-.175 0-.437-.088-.874-.263l-3.146-1.31c.699-.525 1.136-1.05 1.31-1.661.176-.612.088-1.224-.174-1.835-.524-.962-1.398-1.399-2.622-1.399-.612.088-1.31.175-2.01.437-.087.088-.262.088-.35.175l-6.205 2.884-.087.087.087.263.437.786c.525-.175.962-.262 1.224-.175.175.088.35.175.524.525l2.797 4.894c.175.35.262.524.175.787-.088.174-.35.436-.874.699l.611 1.048 1.748-.786 3.584-1.66-.612-1.05c-.525.263-.962.35-1.311.263-.262-.088-.437-.262-.612-.525l-1.049-1.835v-.087l.7-.263 5.33 2.36 2.623-1.223.699-.35-.612-1.049c0 .088-.087.088-.087.088Zm-6.992-2.273c-.35.437-.7.787-1.224.962l-.437.262-.874.35-.96-1.748c-.263-.35-.263-.7-.263-.787.087-.175.437-.35 1.049-.7.262-.087.524-.174.874-.261h.262c.699-.088 1.223.175 1.573.699.35.35.262.786 0 1.223Zm15.819-.35a5.96 5.96 0 0 1-2.273.962c-.524.088-.786.088-1.048 0-.088-.087-.175-.262-.263-.612l-.611-2.447.611-.087c.525-.087.874-.087 1.224.175.175.175.437.524.7 1.048l1.223-.262-1.137-4.457-1.223.262c.087.7.087 1.136.087 1.311-.087.175-.524.437-1.223.525l-.525.087-.35-1.486c-.087-.437-.087-.699.088-.874.175-.174.525-.35 1.224-.437.874-.175 1.748-.087 2.534.088a9.134 9.134 0 0 1 2.098 1.223l.961-.699-2.36-2.622-8.477 1.748-.787.175.263 1.136c.174 0 .262-.087.437-.087.262 0 .524.087.699.087.175.087.262.262.35.612l1.398 5.418c.087.263.087.437-.088.612-.087.175-.437.437-.961.612l.262 1.136 9.439-2.01.874-3.758-1.224-.262c-.437 1.486-1.136 2.36-1.922 2.884Zm12.497-2.883-2.097-6.38-5.07-.088-.087 1.224c.525.087.874.087 1.136.262.175.175.263.35.263.7l-.088 5.593c0 .699-.437 1.049-1.398 1.049v1.223l4.457.087v-1.223c-.524 0-.961-.087-1.136-.262-.262-.088-.262-.35-.262-.7l.087-5.418 2.622 7.69h1.835l2.885-7.515-.088 5.33c0 .35-.087.613-.35.788a3.424 3.424 0 0 1-1.136.174v1.224l5.856.087v-1.223c-.525 0-.962-.088-1.136-.262-.175-.088-.263-.438-.263-.787l.088-5.506c0-.35.087-.612.35-.787.174-.174.611-.174 1.136-.174v-1.224l-5.244-.087-2.36 6.205Zm11.012-4.37c.962.262 1.311.612 1.136 1.31l-1.398 5.42c-.088.35-.262.611-.525.699-.262.087-.611.087-1.223 0l-.262 1.223 5.68 1.136.263-1.136c-.525-.087-.874-.262-1.049-.437-.175-.175-.262-.437-.087-.786l1.398-5.419c.087-.35.262-.612.524-.7.263-.087.7-.087 1.224 0l.262-1.223-5.68-1.136-.263 1.049ZM43.697 58.293c-.7.524-1.224.524-1.748 0l-1.311-1.398 1.223-.874c2.36-1.748 2.797-3.409 1.399-4.895-.787-.873-1.748-1.223-2.972-.96l-.786.261c-.437.175-.874.437-1.311.7l-5.07 3.845.875.874c.699-.524 1.31-.524 1.748 0l3.758 3.933.262.262c.262.262.35.524.35.786 0 .175-.263.437-.612.787l-.088.087.088.088.786.874 4.108-3.06.175-.087-.175-.087-.7-1.136Zm-3.409-2.797-.524.35-.175-.175-1.573-1.66c-.262-.263-.262-.525-.175-.787 0-.087.262-.262.525-.437.35-.262.699-.437 1.048-.437h.175c.525 0 .962.175 1.398.612.35.437.525.786.437 1.31-.262.35-.611.787-1.136 1.224Zm92.291 24.908c-.175-.262-.437-.437-.874-.437-.524 0-1.136.175-1.835.524-.7.35-1.486.962-2.36 1.66-1.224 1.05-2.535 2.448-3.933 4.109-.262.349-.524.699-.874 1.048-.175.262-.437.525-.612.787.263-1.049.525-2.098.699-2.972 0-.175 0-.35.088-.524.175-1.136.262-2.098.262-2.797v-1.049c-.087-.35-.087-.611-.262-.873v-.088l-.088.088c-.087.087-.174.087-.174.087 0 .087-.088.087-.088.087l-1.748.962-1.835.874s-.087.087-.175.087h-.175v.087l.175.525v.087h.088c.087-.087.174-.087.174-.087h.088c.175-.088.349-.088.437-.175.175 0 .262-.087.349-.087.437 0 .7.35.7 1.136 0 1.573-.35 3.933-1.137 6.992-.087.611-.262 1.223-.437 1.922a37.495 37.495 0 0 0-.524 2.098l-.175.699v.087h.874l.175-.35c.437-.96.874-1.922 1.398-2.796.7-1.31 1.486-2.447 2.273-3.67a5.59 5.59 0 0 1 .874-1.137c.262-.35.524-.699.874-1.136.874-1.049 1.66-1.923 2.359-2.534.175-.088.262-.175.437-.35.787-.612 1.486-.874 2.01-.874.35 0 .525.087.7.35.174.262.262.611.262 1.136v.087c0 .525-.088 1.224-.35 2.098-.087.087-.087.262-.175.437 0 .087-.087.262-.174.437a6.302 6.302 0 0 1-.787 1.748c-.262.524-.612 1.048-.874 1.573-.612.786-1.223 1.573-1.923 2.272-.699.7-1.485 1.223-2.272 1.835-.699.437-1.573.787-2.622.962-.262 0-.349.087-.612.087-.174 0-.437 0-.699.087a19.354 19.354 0 0 0-3.146.437c-.087 0-.262.088-.35.088-.087 0-.174 0-.349.087 0 .088-.088.088-.088.088-.262.087-.524.262-.874.437-.349.262-.611.524-.961.874-.612.699-1.049 1.398-1.398 2.01-.35.611-.437 1.311-.437 1.922 0 .525.087.962.262 1.399.262.437.524.786.961 1.136.35.262.699.437 1.224.612.087.087.087.087.262.087.262.087.612.175.961.175.263 0 .525.087.787.087 1.049 0 1.923-.262 2.534-.612a3.012 3.012 0 0 0 1.224-1.835v-.087l-.087.087c-.525.262-1.137.524-1.748.699a6.812 6.812 0 0 1-1.923.262c-.262 0-.524-.087-.787-.087-.437 0-.874-.175-1.223-.262-.088 0-.262-.088-.35-.088-.087-.087-.175-.087-.262-.174-.349-.262-.612-.437-.786-.699-.175-.263-.175-.525-.175-.874 0-.612.175-1.224.524-1.661.088-.087.175-.175.262-.175.088-.087.175-.175.262-.175.35-.262.787-.437 1.399-.699.087-.087.262-.087.349-.087.525-.088 1.049-.262 1.661-.35 1.049-.174 2.01-.437 2.971-.699l.787-.262c.175-.087.437-.175.612-.35.175-.087.437-.174.611-.262.7-.437 1.486-.961 2.273-1.66.786-.612 1.573-1.399 2.447-2.36 1.486-1.66 2.709-3.234 3.583-4.72.175-.262.262-.524.437-.873.874-1.748 1.398-3.409 1.398-4.982-.087-.787-.174-1.224-.349-1.573Zm-18.004 13.11c.088-.088.175-.175.35-.263.087-.087.175-.087.262-.175l.087-.087v-.087l-.349-.525h-.088l-1.31.787c-.088.087-.175.087-.263.087-.437.175-.786.262-1.136.262-.262 0-.437-.087-.612-.175-.087-.087-.174-.35-.174-.524 0-.35.174-1.136.699-2.36.087-.262.175-.436.262-.699.087-.262.175-.524.35-.786a31.42 31.42 0 0 1 1.048-2.36c.263-.7.525-1.31.787-1.835.524-1.224.961-2.185 1.311-2.972l.087-.262c.262-.612.437-.961.525-1.224l.174-.262h2.622l.088-.087.262-.524v-.088h-2.622l.087-.35.612-1.31a10.57 10.57 0 0 0 .525-1.486l.087-.175.087-.175v-.087h-.087c-.262.087-.437.087-.699.175h-.175c-.262.087-.612.087-.874.087h-.35c-.087.087-.087.262-.174.35-.35.961-.7 1.66-.962 2.097-.087.088-.087.175-.175.262 0 .088-.087.175-.087.175-.175.175-.437.262-.787.35-.349.087-.786.087-1.398.087h-.349l-.263.612-.087.087h2.447l-.087.35c-.175.262-.525 1.224-1.136 2.534l-.35.874-.437.962-1.573 3.67-.35.874a40.47 40.47 0 0 0-1.048 2.535c-.088.087-.088.262-.175.437-.262.786-.437 1.31-.437 1.573 0 .35.087.7.349.874.088.087.088.087.263.175.174.087.524.174.873.174h.525c.349-.087.786-.087 1.136-.262.087-.087.262-.087.35-.174.087 0 .262-.088.349-.088.787-.35 1.486-.7 2.01-1.049Zm-4.02-17.218h.175c.175 0 .349-.087.524-.175.088 0 .088-.087.088-.087 0-.087.087-.087.087-.087.087-.175.175-.262.262-.437.088-.088.088-.262.088-.437 0-.262-.088-.525-.175-.7a1.647 1.647 0 0 0-.699-.174h-.175c-.088.087-.175.087-.35.087-.087.088-.262.175-.437.35-.087.087-.262.262-.262.437-.087.175-.087.262-.087.437 0 .35 0 .524.262.699.087.087.349.087.699.087Zm-4.719 13.896a4.11 4.11 0 0 1 .262-.611l.087-.088 1.399-3.233c.786-1.749 1.398-3.234 1.748-4.458.349-1.136.524-2.01.524-2.622v-.262l-.088.088-.436.174-.088.088c-1.049.437-2.097.874-3.059 1.31-.175.088-.437.088-.612.175-.174.088-.349.175-.611.175l-.35.088-.087.087h-.088v.088l.088.262.087.35v.087h.088c.087-.088.174-.088.174-.088l.088-.087.786-.262c.088 0 .175-.088.35-.088h.262c.175 0 .262 0 .35.088.087.087.087.262.087.35 0 .349-.35 1.31-1.049 2.883-.175.35-.262.7-.437 1.05-.174.349-.349.786-.524 1.135l-.087.088c-.088.262-.263.437-.35.699-.437.874-.699 1.66-1.049 2.272-.349.874-.612 1.486-.786 2.01-.175.525-.263 1.049-.35 1.573-.087.525-.087 1.136-.175 1.748v.088l.088-.088c.611-.174 1.398-.524 2.272-.874.262-.087.612-.262.874-.35.262-.087.524-.262.786-.349.263-.087.525-.262.787-.437h.087l-.087-.087-.262-.525-.088.088a6.065 6.065 0 0 0-.699.262c-.175 0-.349.087-.437.087-.174 0-.349 0-.437-.087-.087-.087-.087-.262-.087-.35 0-.262.175-.874.612-1.835.262-.175.349-.35.437-.612Zm-4.545 1.836-.262.174c-.612.525-1.136.874-1.486.962-.087 0-.175.087-.262.087-.087.087-.087.087-.175.087a.668.668 0 0 1-.437-.174c-.087-.088-.175-.262-.175-.612.088-.874.962-3.583 2.797-7.953.35-.874.787-1.835 1.224-2.797.437-.961.874-2.097 1.398-3.146v-.087c.262-.612.524-1.136.699-1.66.525-1.225.961-2.448 1.311-3.41l.262-.786c.525-1.573.787-2.71.787-3.496v-.087l-.088.087a22.21 22.21 0 0 1-2.272.962c-.262.087-.437.262-.699.262l-.787.262c-.262.175-.524.262-.874.35l-.262.087-.087.087.175.525v.087c.087-.087.174-.087.174-.087l.088-.088c.262-.087.437-.174.612-.174.174-.088.349-.088.349-.088.175 0 .35.088.437.088 0 .087.088.174.088.35 0 .174-.175.698-.35 1.485-.262.786-.699 1.748-1.224 3.059l-1.835 4.37c-.961 2.36-1.748 4.37-2.447 5.942-.175.612-.437 1.137-.612 1.661-.262.787-.524 1.398-.699 1.835-.262.7-.437 1.399-.612 2.01-.087.612-.174 1.05-.174 1.486 0 .525.087.962.262 1.224.174.262.524.437.961.437.087 0 .175 0 .262-.088.7-.087 1.573-.524 2.622-1.398.262-.175.525-.35.787-.612s.524-.437.786-.699l.088-.087h-.088l-.262-.437Zm-16.692-4.72c.349-.524.786-1.136 1.31-1.66 1.136-1.224 2.36-2.273 3.758-2.972.263-.175.525-.262.787-.35 1.66-.786 3.496-1.135 5.419-1.135.35 0 .786 0 1.223.087h.437c.262 0 .524.087.874.087h.087c.088-.35.263-.524.35-.786v-.088c.087-.262.175-.437.175-.524 0-.175-.088-.262-.175-.437-.175 0-.262-.087-.524-.087h-.787c-2.622.087-5.244.96-7.866 2.447-1.835 1.048-3.495 2.272-4.894 3.758a7.888 7.888 0 0 0-.786.874 6.123 6.123 0 0 0-.7.874c-.611.786-1.136 1.573-1.485 2.272-.175.35-.262.612-.437.961-.437 1.049-.7 2.098-.7 2.972 0 .612.088 1.049.35 1.31.175.175.437.35.787.438h.262c.7 0 1.573-.263 2.71-.962.261-.087.436-.262.611-.437.262-.087.437-.35.7-.437.873-.611 1.747-1.398 2.534-2.185.699-.699 1.485-1.485 2.185-2.272a30.176 30.176 0 0 0-1.836 4.894c-.087.263-.175.437-.175.7-.087.174-.087.436-.087.611v.088l.087-.088c1.137-.262 2.185-.611 3.147-.961.874-.437 1.66-.874 2.36-1.398v-.175l-.35-.437v-.088l-.088.088c-.437.262-.786.437-1.048.524-.262.088-.525.175-.612.175-.175 0-.262 0-.35-.087-.087-.088-.087-.175-.087-.35 0-.262.35-1.224.961-2.71.088-.261.263-.611.35-.96.175-.263.262-.7.437-1.05l.175-.262v-.087l-.088.087c-.437.088-.874.263-1.223.35-.262.087-.612.087-.874.175.437-.612.874-1.224 1.136-1.835.087-.088.087-.263.175-.35.262-.7.437-1.398.437-2.01 0-.7-.175-1.224-.437-1.573-.088-.088-.088-.088-.262-.175-.088-.088-.088-.088-.263-.175l-.087-.087v.087a22.148 22.148 0 0 1-1.049 3.146c-.437 1.05-.961 2.01-1.66 3.06-.612 1.048-1.399 2.01-2.185 2.796-.175.175-.35.35-.437.524-.175.088-.35.262-.525.437-.524.437-.961.787-1.31 1.049-.088.087-.175.087-.263.087-.437.263-.786.35-1.136.35-.35 0-.524-.088-.7-.35-.174-.262-.261-.611-.261-1.048 0-1.137.262-2.185.699-3.234.524-.437.874-.961 1.224-1.486ZM66.07 91.241h-.087c-.087.087-.087.087-.175.087l-.611.612a2.865 2.865 0 0 1-.7.525h-.087c-.175.087-.262.087-.35.087h-.087c-.262 0-.961-.437-2.01-1.224-.175-.174-.437-.35-.612-.524-.262-.175-.524-.35-.786-.612l-.088-.087-.262-.175c1.223-1.224 2.185-2.447 2.884-3.758.087-.262.262-.524.35-.787.699-1.573 1.136-3.146 1.136-4.719 0-1.31-.262-2.447-.787-3.32l-.262-.525c-.087-.175-.262-.263-.35-.437-.524-.525-1.136-1.049-1.922-1.486-.7-.35-1.66-.787-2.622-1.049v-.087a32.578 32.578 0 0 0 1.31-3.321c.088-.262.088-.35.263-.612 0-.175.087-.437.175-.612v-.174h-.088c-.874-.088-1.748-.175-2.534-.263-.787-.087-1.573-.087-2.36-.087h-.175c-4.195 0-8.04.612-11.448 1.923-.7.262-1.399.524-2.01.874-.612.262-1.311.611-1.836.96-1.31.7-2.447 1.574-3.408 2.448-.962.874-1.748 1.923-2.447 2.971-.525.874-1.05 1.836-1.399 2.71 0 .175-.175.437-.175.524a12.258 12.258 0 0 0-.524 3.583c0 2.447.612 4.545 1.835 6.205.263.35.525.612.787.962.35.262.612.524.961.874 1.224.961 2.622 1.66 4.37 2.185 1.66.437 3.583.699 5.768.699 1.66 0 3.234-.175 4.894-.525.263-.087.612-.087.962-.174.262-.088.612-.175.961-.263a15.337 15.337 0 0 0 2.797-1.048c.175 0 .175-.088.35-.088.96-.524 1.835-1.048 2.621-1.66.437.35 1.049.786 1.66 1.31.613.525 1.4 1.224 2.273 1.924l.612.524h.087l.437-.35c.175-.174.35-.35.7-.611l.873-.875c.612-.524 1.136-1.048 1.486-1.485l.262-.262.175-.175.088-.088h-.088l-.787-.524Zm-10.924 1.311c-.787.437-1.66.874-2.447 1.136-1.66.612-3.583.874-5.593.874-2.797 0-5.157-.437-7.08-1.398-.35-.175-.786-.35-1.136-.525-.35-.262-.611-.437-.961-.699-1.136-.874-1.923-2.01-2.447-3.146a10.672 10.672 0 0 1-.874-4.282c0-1.05.087-2.098.35-3.147.174-1.048.524-2.01 1.048-2.971.7-1.398 1.573-2.622 2.622-3.583l.612-.612c.175-.175.437-.35.7-.525 1.135-.874 2.621-1.573 4.282-2.184.262-.088.611-.175.96-.263 2.098-.524 4.458-.786 7.255-.786.961 0 1.922.087 2.709.087h.175c.874.088 1.748.175 2.534.262-.087.525-.174.962-.262 1.399-.087.437-.175.874-.35 1.31-.786-.087-1.31-.087-1.835-.174H54.01c-1.573 0-3.059.087-4.37.437-1.398.262-2.534.786-3.583 1.398-1.136.612-1.923 1.398-2.447 2.185a4.625 4.625 0 0 0-.787 2.622c0 .262 0 .612.088.874.087.087.087.262.174.437.088.087.088.175.175.35l.088.087v-.175c.262-1.573 1.048-2.971 2.097-4.108.175-.174.437-.436.7-.611.174-.263.436-.437.698-.612.787-.525 1.66-1.049 2.535-1.398.175-.088.35-.088.524-.175a11.838 11.838 0 0 1 3.584-.525c.524 0 1.136 0 1.66.088v.087c.524.088 1.049.088 1.66.175-.436 1.224-.96 2.272-1.66 3.234-.874 1.398-1.835 2.447-3.059 3.32-2.01 1.486-4.457 2.273-7.254 2.273h-1.136l-.262-.087h-.612c-.175.35-.437.699-.786 1.136-.263.35-.7.786-1.05 1.31l.088.088c.35-.087.612-.087.962-.175h.174c.35-.087.787-.087 1.311-.087.962 0 2.01.087 3.147.437 1.136.262 2.272.612 3.583 1.136 1.748.7 3.408 1.66 5.069 2.71l.175.087c.35.262.699.437 1.048.699.263.175.612.437.874.699-.874.437-1.573.961-2.272 1.311Zm4.457-4.195c-.087.175-.175.262-.35.437-.087.087-.262.262-.349.437-1.224-.961-2.447-1.748-3.845-2.535-1.136-.611-2.36-1.223-3.671-1.748-.524-.262-1.049-.436-1.66-.611a7.389 7.389 0 0 0-1.486-.437c1.049-.35 1.922-.787 2.796-1.311.962-.525 1.836-1.136 2.535-1.835.524-.438.961-.962 1.398-1.486a15.23 15.23 0 0 0 1.66-2.272c.175-.263.35-.612.525-.962.175-.262.35-.612.525-.961l.174-.437a4.5 4.5 0 0 1 2.185 1.398.682.682 0 0 0 .35.35c.087.087.175.262.262.437.262.437.437.961.612 1.573.087.087.087.175.087.262.175.7.262 1.486.262 2.36 0 .961-.175 2.01-.35 3.059-.087.174-.087.35-.174.611-.087.175-.087.35-.175.612-.175 1.224-.699 2.185-1.31 3.059Zm20.189 3.933c-.35.087-.525.175-.787.175h-.087c-.263.087-.437.087-.612.087s-.35-.087-.437-.087c-.087-.088-.175-.175-.175-.35.088-.262.262-.787.525-1.748.35-.874.786-2.097 1.485-3.67.787-1.923 1.486-3.496 2.098-4.895a2.6 2.6 0 0 1 .35-.699c.087-.262.262-.524.349-.786.087-.263.262-.525.35-.787h-.175c-.35.087-.7.262-1.049.35-.262.087-.612.174-.874.262h-.35c-.087.087-.174.087-.262.087v.088l-.262.611c-.874 2.273-1.923 4.37-3.234 6.293-.262.35-.524.786-.786 1.136-.262.35-.524.787-.787 1.136-1.049 1.311-1.922 2.272-2.709 2.884-.787.612-1.486.962-2.097.962-.175 0-.35-.088-.525-.175-.087-.088-.175-.262-.175-.525 0-.262.175-.786.525-1.66.262-.787.786-1.835 1.398-3.146l1.573-3.409c.437-.961.874-1.835 1.136-2.534.088-.088.088-.263.175-.437.262-.874.437-1.486.437-2.01v-.088h-.087c-.612.262-1.224.525-2.01.787-.7.262-1.486.524-2.36.786l-.35.088v.087l.175.612h.088c.262-.088.436-.088.611-.175s.263-.087.35-.087c.175 0 .35 0 .437.174.087.088.175.175.175.35s-.088.524-.263.874c-.087.35-.262.787-.524 1.311l-1.573 3.146c-.612 1.398-1.136 2.535-1.573 3.496-.088.175-.088.35-.175.524-.35 1.137-.524 1.923-.524 2.447 0 .438.087.787.262 1.05.262.174.524.349.961.349.7 0 1.573-.262 2.447-.874.175-.087.35-.262.612-.35.175-.175.35-.262.612-.437a45.234 45.234 0 0 0 2.272-2.097c.7-.7 1.398-1.573 2.098-2.447-.35 1.049-.7 2.097-1.05 3.059a52.16 52.16 0 0 0-.698 3.146v.087l.087-.087.525-.175c1.485-.612 2.709-1.136 3.583-1.486l.524-.262c.175-.087.262-.087.437-.175v-.087l-.087-.7Z"/><path fill="#989883" d="M81.977 137.649c-2.36-2.884-6.555-6.205-13.546-7.341-.263-.088-7.08-1.661-9.876-11.974l-.35-3.845-2.971 2.272h-.087s-2.622 1.049-5.769 1.049c-4.195 0-7.34-1.748-9.438-5.244l-.263-.349c-.087-.175-1.748-2.36-1.748-6.643 0-.699 0-1.398.175-2.184l.874-3.933-3.408 1.136h-.088c-.087 0-3.845 0-5.593-2.272-.612-.874-.787-1.836-.787-2.972 0-1.31.35-2.71.7-3.845l.611-3.321h-4.632c-3.932.087-9.089-1.748-10.312-9.44l-.088-.436c-.087-.262-.874-2.272-3.233-4.545l-.35-.35.35-.349c2.36-2.272 3.146-4.282 3.233-4.544l.088-.437c1.31-7.691 6.467-9.527 10.312-9.527.612 0 1.05.088 1.137.088l4.02.874-1.224-4.108c-.35-1.136-.699-2.534-.699-3.845 0-1.049.175-2.098.787-2.884 1.748-2.36 5.506-2.273 5.68-2.273l3.147.437-.612-3.32c-.088-.787-.175-1.486-.175-2.098 0-4.283 1.66-6.468 1.748-6.555l.262-.35c2.01-3.583 5.244-5.33 9.439-5.33 3.146 0 5.768 1.048 5.856 1.048l2.971 1.398.437-3.146c2.797-10.313 9.613-11.886 10.05-11.973 6.905-1.136 11.012-4.457 13.46-7.341l.349-.437.35.437c2.36 2.884 6.554 6.205 13.546 7.341.262.087 7.079 1.66 9.876 11.973l.524 3.06 2.884-1.4c.088 0 2.622-1.048 5.856-1.048 4.195 0 7.341 1.748 9.351 5.244l.262.35c.088.174 1.748 2.359 1.748 6.641 0 .7 0 1.399-.175 2.185l-.611 2.972 3.233-.175c.088 0 3.846 0 5.594 2.272.611.874.786 1.923.786 2.884 0 1.311-.349 2.71-.699 3.933l-1.311 3.846 4.195-.525h1.136c3.933-.087 9.089 1.748 10.313 9.439l.087.437c.088.262.874 2.272 3.234 4.545l.35.35-.35.349c-2.36 2.272-3.146 4.37-3.234 4.544l-.087.437c-1.311 7.691-6.467 9.526-10.313 9.526-.524 0-.874 0-1.049-.087h-.087l-4.195-.874 1.311 4.108c.35 1.136.699 2.534.699 3.932 0 1.05-.175 2.098-.786 2.972-1.748 2.36-5.506 2.272-5.594 2.272h-.087l-2.709-.786.174 3.583c.088.787.088 1.486.088 2.185 0 4.282-1.661 6.467-1.748 6.555l-.262.349c-2.01 3.583-5.157 5.331-9.439 5.331-3.146 0-5.768-1.048-5.768-1.048h-.088l-3.146-2.273-.262 3.933c-2.797 10.225-9.614 11.886-9.963 11.886-6.904 1.136-11.012 4.457-13.46 7.341l-.349.437-.262-.524Zm.35-.262.35-.263-.35.263Zm-22.81-19.228c2.709 9.876 9.089 11.187 9.176 11.275 6.904 1.136 11.186 4.369 13.721 7.253 2.534-2.884 6.817-6.117 13.634-7.253.175-.088 6.554-1.399 9.264-11.187l.349-5.593 4.37 3.146c.437.175 2.709.961 5.419.961 3.933 0 6.729-1.573 8.652-4.894l.262-.35c.087-.087 1.573-2.01 1.573-6.03 0-.612 0-1.311-.087-2.097l-.262-4.895 3.758 1.05c.437 0 3.67-.263 4.806-1.924.437-.611.612-1.485.612-2.36 0-1.223-.349-2.534-.699-3.582l-1.835-5.594 5.68 1.136c.175 0 .437.088 1.049.088 3.671-.088 8.128-1.399 9.439-8.74l.087-.524c.088-.35.874-2.36 3.147-4.632-2.273-2.272-2.972-4.283-3.147-4.632l-.087-.525c-1.311-7.34-5.768-8.652-9.439-8.74-.699 0-.961.088-1.049.088l-5.68.7 1.835-5.244c.35-1.137.699-2.448.612-3.584 0-.961-.175-1.748-.612-2.36-1.224-1.835-4.894-1.922-4.807-1.922l-4.37.262.874-4.108c.088-.699.088-1.398.088-2.01 0-4.02-1.486-6.03-1.573-6.117l-.263-.437c-1.922-3.321-4.631-4.807-8.652-4.894-1.485 0-2.884.262-3.845.524-.961.262-1.573.524-1.573.437l-3.933 2.01-.699-4.282c-2.797-9.701-9.177-11.1-9.264-11.1-6.904-1.136-11.187-4.37-13.721-7.253-2.535 2.883-6.817 6.117-13.634 7.253-.175.088-6.555 1.399-9.264 11.187l-.525 4.282-4.107-1.922s-.612-.262-1.66-.525a15.12 15.12 0 0 0-3.846-.524c-3.933 0-6.73 1.573-8.652 4.894l-.262.437s-1.574 2.01-1.574 6.03c0 .612.088 1.311.088 2.01l.874 4.545-4.37-.612s-3.583.088-4.894 1.923c-.437.612-.612 1.486-.612 2.36 0 1.223.35 2.534.7 3.583l1.66 5.593-5.419-1.136c-.175 0-.437-.087-1.049-.087-3.67.087-8.127 1.398-9.438 8.74l-.175.524c-.087.35-.874 2.36-3.146 4.632 2.272 2.272 2.971 4.282 3.146 4.632l.087.524c1.311 7.341 5.768 8.652 9.44 8.74.698 0 .96-.088 1.135-.088l4.545.088-.874 4.457c-.35 1.136-.7 2.447-.7 3.583 0 .962.176 1.748.612 2.36 1.137 1.66 4.283 1.922 4.807 1.922l4.807-1.66-1.311 5.506c-.087.699-.087 1.398-.087 2.01 0 4.02 1.485 6.03 1.573 6.03l.262.437c1.923 3.321 4.632 4.807 8.652 4.895 2.71 0 4.982-.787 5.419-.962l4.195-3.146.786 5.418Z"/></svg>