<svg xmlns="http://www.w3.org/2000/svg" width="196" height="127" fill="none"><path fill="#B8B8B6" d="M24.079 59.54 12.41 65.035l1.355 2.936 1.506-.678 2.107 4.592-7.677 3.613-2.108-4.592 1.58-.753-5.494-11.44-1.58.752-2.033-4.517 17.689-8.204c2.86-1.355 4.968-.602 6.323 2.258l2.333 4.968c1.054 2.484.301 4.366-2.333 5.57Zm-4.366-6.925c-.301-.677-1.054-.753-2.108-.301l-9.183 4.29 1.957 4.216 9.259-4.366c.978-.452 1.354-1.054.978-1.807l-.903-2.032Zm29.506-2.333.527-.15c3.162-1.055 4.366-2.786 3.538-5.345l-1.656-5.194c-.978-3.01-3.01-3.99-5.946-3.01l-18.517 6.02 1.505 4.668 1.656-.527 3.914 11.968-1.656.527 1.581 4.817 8.054-2.634-1.58-4.818-1.506.527-.979-3.01 5.044-1.657 4.215 2.108-1.58.527 1.505 4.667 9.71-3.162-1.506-4.591-1.73.602-4.593-2.333Zm-2.408-7.678.677 2.108c.226.752-.15 1.354-1.204 1.655l-9.71 3.162-1.43-4.366 9.635-3.086c1.129-.376 1.806-.226 2.032.527Zm30.485-3.914-.452-3.312-11.817 1.656.602 4.29 9.785-1.355.678 4.893-9.786 1.355.452 3.161L78.5 47.722l-.451-3.01 5.344-.753 1.13 7.903L60.66 55.25l-.678-4.893 1.656-.226-1.73-12.495-1.657.226-.677-4.893 23.936-3.387 1.13 8.28-5.345.828Zm31.69 12.947.15-4.968 1.505.075.302-8.581-7.227 13.248-3.086-.076-6.473-14.15-.301 9.333 1.656.075-.15 4.592-8.356-.301.15-4.517 1.43.076.452-12.42h-1.053l.225-5.646 7.754.302 6.548 14.527 7.603-14.076 7.677.301-.225 5.646-1.506-.076-.376 11.893 1.505.076-.15 5.043-8.054-.377Zm11.742 1.204.677-4.968 1.882.301 1.731-12.495-1.881-.226.677-4.893 8.732 1.205-.678 5.043-1.731-.226-1.731 12.345 1.806.3-.677 4.969-8.807-1.355Zm38.765-9.033-3.312 12.495c-.753 2.936-2.409 4.065-4.817 3.388l-12.571-3.388c-2.408-.677-3.236-2.408-2.484-5.344l3.388-12.72-1.656-.453 1.279-4.742 8.431 2.259-1.28 4.892-1.807-.452-2.86 10.84c-.226.828.075 1.355.903 1.58l7.227 1.958c.903.225 1.43 0 1.655-.678l2.936-10.99-1.882-.527 1.28-4.892 8.731 2.333-1.354 4.968-1.807-.527Zm19.646 27.173 7.301 3.388 2.108-4.592-1.355-.602 5.043-10.84 1.355.603L196 53.819l-7-3.236-12.495 10.01-.302-15.882-7.075-3.311-2.409 5.118.979.452-5.269 11.29-1.28-.602-1.882 4.065 7.527 3.538 1.958-4.215-1.506-.678 3.914-8.43.452 15.58 2.785 1.28 11.818-9.409-3.613 7.829-1.355-.678-2.108 4.441ZM46.662 77.23h-1.205v-1.055c-.15.301-.451.527-.828.753-.527.301-1.204.452-2.032.452-1.43 0-2.484-.301-3.086-.904-.678-.677-1.054-1.73-1.054-3.236 0-2.785 1.43-4.216 4.215-4.216 1.13 0 2.033.151 2.71.527.828.377 1.28 1.054 1.28 1.882H44.93c0-.602-.225-.978-.752-1.28-.377-.225-.828-.3-1.43-.3-1.054 0-1.732.3-2.183.903-.301.451-.452 1.28-.452 2.333 0 1.28.226 2.183.602 2.71.377.527 1.054.753 1.957.753.828 0 1.43-.226 1.882-.678.376-.451.602-1.129.602-2.107h-2.634v-.753h4.14v4.215Zm12.871-2.56c0 1.806-1.355 2.634-3.99 2.634-2.559 0-3.838-.903-3.838-2.71V69.1h1.656v5.495c0 .752.226 1.204.602 1.505.376.226.903.376 1.731.376.753 0 1.355-.15 1.656-.376.377-.301.602-.753.602-1.505v-5.57h1.581v5.645Zm13.624 2.56h-1.73l-.98-2.184h-4.29l-.978 2.183h-1.732l3.84-8.054h2.182l3.688 8.054Zm-3.01-3.012-1.732-3.839-1.882 3.84h3.614Zm15.506 3.011h-1.958c-.3-.226-.451-.828-.451-1.806 0-.753-.15-1.205-.527-1.506-.301-.226-.903-.301-1.731-.301h-2.033v3.613h-1.656v-8.054h4.29c2.334 0 3.463.677 3.463 2.108 0 .451-.225.903-.602 1.28-.376.376-.903.601-1.505.677.752.075 1.28.226 1.58.527.302.3.527.903.527 1.73-.075.904.151 1.506.603 1.732Zm-2.334-5.796c0-.978-.828-1.43-2.484-1.43h-1.882v2.86h1.882c1.656-.075 2.484-.527 2.484-1.43ZM98.6 77.23h-1.73l-.98-2.183H91.6l-.978 2.183H88.89l3.84-8.054h2.182L98.6 77.23Zm-3.01-3.01-1.732-3.84-1.882 3.84h3.614Zm15.355 3.01h-2.258l-4.291-6.473v6.473h-1.656v-8.054h2.108l4.441 6.7h.075v-6.7h1.656v8.054h-.075Zm12.796-7.15h-3.387v7.15h-1.656v-7.15h-3.387v-.904h8.355v.903h.075Zm11.517 7.15h-7.151v-8.054h6.925v.903h-5.269v2.484h4.968v.904h-4.968v2.86h5.495v.903Zm11.818 0H140v-8.054h6.925v.903h-5.269v2.484h4.968v.904h-5.043v2.86h5.495v.903Zm13.172-4.14c0 1.43-.376 2.484-1.129 3.162-.753.602-1.957.978-3.688.978h-3.463v-8.054h3.613c1.43 0 2.484.226 3.162.677.978.603 1.505 1.656 1.505 3.237Zm-1.731.075c0-1.28-.301-2.107-.828-2.559-.452-.376-1.28-.602-2.484-.602h-1.581v6.398h1.43c1.129 0 1.957-.226 2.484-.602.678-.527.979-1.355.979-2.635ZM18.734 91.23l7.603-7.903 1.58 1.58-3.01 3.087 3.086 3.01 3.01-3.086 1.581 1.58-7.602 7.904-1.58-1.505 3.311-3.463-3.161-3.01-3.312 3.462-1.506-1.656Zm10.84 9.861 1.73 1.355 6.775-8.657-1.731-1.355-6.774 8.657Zm12.72 4.29.98-1.58 3.989 2.634-2.41 3.688c-.601.151-1.43.076-2.333-.075-.903-.226-1.806-.527-2.559-1.054-.978-.602-1.656-1.355-2.108-2.258-.451-.903-.602-1.806-.526-2.785.15-.978.451-1.882 1.053-2.785.602-.978 1.355-1.656 2.258-2.183.904-.451 1.807-.677 2.86-.602.754.075 1.657.376 2.485.978 1.129.753 1.882 1.581 2.183 2.485.3.903.3 1.806-.075 2.785l-2.108-.828c.15-.527.15-1.054-.075-1.581-.151-.452-.527-.903-1.13-1.28-.828-.527-1.655-.677-2.408-.451-.828.225-1.58.828-2.183 1.806-.677 1.129-.979 2.108-.903 2.936.15.903.602 1.58 1.355 2.032.376.226.828.452 1.354.527.452.075.979.151 1.355.075l.753-1.204-1.806-1.28Zm6.85 8.581 4.667-9.936 2.032.904-1.806 3.914 3.914 1.806 1.807-3.914 2.032.903-4.667 9.936-2.032-.903 2.032-4.366-3.914-1.806-2.032 4.366-2.033-.904Zm13.474 5.721 3.613-10.388 7.678 2.635-.602 1.731-5.57-1.957-.828 2.334 5.193 1.806-.602 1.731-5.194-1.806-.978 2.86 5.796 2.033-.602 1.731-7.904-2.71Zm13.323.226 2.183.226c0 .752.15 1.279.452 1.731.3.376.828.677 1.505.828.677.15 1.28.075 1.656-.151.452-.225.678-.527.753-.903.075-.226 0-.452-.075-.677a1.781 1.781 0 0 0-.678-.603c-.226-.15-.753-.376-1.656-.828-1.129-.526-1.882-1.053-2.258-1.505-.527-.753-.753-1.505-.602-2.333.075-.527.376-1.054.752-1.431.377-.451.904-.677 1.581-.828.602-.15 1.355-.15 2.183 0 1.355.302 2.334.753 2.86 1.506.603.753.753 1.581.603 2.559l-2.183-.301c0-.602-.076-.979-.377-1.28-.225-.301-.677-.527-1.28-.602a2.767 2.767 0 0 0-1.58.075c-.226.151-.452.302-.452.603-.075.225 0 .527.226.752.226.301.828.678 1.882 1.129.978.452 1.731.828 2.183 1.205.451.376.753.828.978 1.355.226.527.226 1.129.076 1.806-.15.602-.377 1.129-.828 1.656a3.246 3.246 0 0 1-1.656.903c-.678.151-1.506.151-2.409-.075-1.355-.301-2.334-.752-2.936-1.58-.752-.979-.978-1.958-.903-3.237Zm15.882 6.022.829-9.108-3.237-.301.15-1.882 8.732.752-.15 1.882-3.237-.301-.828 9.108-2.258-.15Zm22.582-1.807a5.82 5.82 0 0 0 1.882.753l-.678 1.656c-.376-.076-.677-.151-.978-.301-.075 0-.602-.301-1.581-.828-.677.376-1.505.602-2.333.677-1.656.151-3.011-.226-4.065-1.129-1.054-.903-1.656-2.258-1.806-4.065-.151-1.806.225-3.236 1.053-4.29.904-1.054 2.108-1.656 3.764-1.807 1.656-.15 2.936.226 3.989 1.129 1.054.904 1.656 2.259 1.807 4.065.075.979 0 1.807-.151 2.559-.225.452-.527 1.054-.903 1.581Zm-1.882-1.054c.226-.376.452-.752.527-1.279.075-.452.151-1.054.075-1.656-.075-1.28-.451-2.183-1.053-2.785-.603-.603-1.355-.828-2.258-.753-.904.075-1.581.451-2.108 1.129-.527.677-.678 1.656-.602 2.936.15 1.279.451 2.182 1.129 2.785.602.602 1.355.828 2.183.752.301 0 .602-.075.903-.226a11.843 11.843 0 0 0-1.43-.602l.527-1.279c.677.226 1.43.527 2.107.978Zm6.173-9.333 2.183-.527 1.354 5.796c.226.903.377 1.505.452 1.731.226.451.527.753.903.903.377.151.904.226 1.506.075.602-.15 1.054-.376 1.279-.677.226-.301.377-.678.377-1.054s-.151-.978-.301-1.806l-1.355-5.947 2.183-.527 1.279 5.646c.301 1.279.452 2.182.452 2.785 0 .527-.075 1.053-.301 1.505-.226.452-.602.828-1.054 1.204-.452.302-1.129.603-1.957.828-1.054.226-1.807.301-2.409.151a2.758 2.758 0 0 1-1.43-.602 3.975 3.975 0 0 1-.903-1.054c-.301-.602-.527-1.505-.828-2.635l-1.43-5.795Zm25.968 3.613-2.258.903-1.806-1.957-4.065 1.656.075 2.634-2.183.904-.15-11.818 2.183-.903 8.204 8.581Zm-5.419-2.484-2.936-3.237.151 4.366 2.785-1.129Zm9.861.526 6.925-3.537-.828-1.656-4.893 2.484-4.14-8.054-1.957.978 4.893 9.785Zm11.14-6.172-5.947-9.183 1.882-1.204 6.022 9.258-1.957 1.129Zm8.656-5.946 1.731-1.43-5.72-7.076 2.559-2.032-1.129-1.43-6.775 5.494 1.129 1.43 2.56-2.032 5.645 7.076Zm9.936-8.657-3.237-3.312L168.3 89.5l1.882-1.807 4.892 1.355-1.204-4.892 1.807-1.732 1.505 7.377 3.161 3.312-1.505 1.505ZM99.652 5.871c0 .075 0 .075-.075.15l.075-.15Zm7.603-2.333c-.076-.15 0-.301 0-.301-.226-.527-.452-.979-.678-1.205-.075-.075-.15-.075-.15-.075-.076 0-.076 0-.151-.075-.527-.15-.828-.226-1.054-.226h-.527c0 .075-.15.15-.526.15v-.15c-.603.15-1.13.226-1.431.226l-.225.226c0 .075-.076.075-.151.15v.15c.075 0 .226.076.527.227h.075c.075.075.075.075.151.075.075.226.226.3.301.15v-.225c-.075-.076-.151-.076-.226-.076l.226-.15c.075 0 .226 0 .301.075.15.075.226.075.301.075v.076c.376.225.677.451.828.677v.527l-.376.903c-.226.075-.301.15-.377.226-.301.376-.677.527-1.129.527l-.226.15v.151h-.527c-.225.15-.376.15-.526.15v.151c-.603 0-.979 0-1.13.075v-.3c-.075.074-.15.074-.15.074s0 .076-.075.076h-.151v-.076c-.075 0-.15 0-.15.076-.076 0-.076 0-.151-.076l.075-.075h-.075c-.075 0-.075 0-.075.075-.226-.075-.377-.075-.452-.075.075.075.075.075.15.075v.076h-.225v-.076c-.075 0-.075 0-.15-.075-.076 0-.076-.075-.151-.075v.075l-.678-.15v-.076c-.3-.075-.677-.15-.978-.376h-.226l-.301-.15c0-.076.075-.302.226-.678h.075l.226-.602.376-.452c.075-.3.226-.451.452-.527 0-.15.226-.527.752-.978.076 0 .076 0 .151.075.226-.376.376-.527.527-.527.15-.15.376-.226.677-.226V1.13c.377-.075.678-.226 1.054-.376V.527l.151-.075c.075.075.075.15.075.225h.151c0-.075.075-.15.225-.15h-.225V.452l.075-.076v.15l.301-.15c.301-.075.527-.15.527-.225-1.054 0-1.581.15-1.581.225-.075.076-.15.076-.226.076-.075 0-.15 0-.15.075-.076-.075-.151-.075-.301-.075l-.151-.301c-.075-.076-.15-.076-.226-.076V0l-1.129.226L98.75.3c-.075.075-.15.075-.226.075-.075 0-.075 0-.15.076-.527.075-.828.15-.904.225-.3.076-.451.151-.376.151-.226.075-.376.15-.452.226-.226.075-.376.226-.527.3l-.451.151c-.075.151-.226.151-.452.151-.075.075-.075.075-.075.226-.226.075-.376.15-.376.226a2.745 2.745 0 0 0-.829.752c-.225.076-.3.226-.376.377l-.527-.226c-.15-.15-.226-.226-.3-.226-.076-.15-.302-.376-.904-.677l-.452-.226c-.15-.075-.226-.075-.226 0l-.15-.15-.527-.227c-.452-.075-.602-.15-.602-.225-.15-.076-.301-.076-.377-.076h-.3c-.678-.15-1.054-.225-1.13-.225L85.652.753v.075l-1.205.15-.226.151c-.677.075-1.129.15-1.28.226l-1.204.301c-.075.075-.15.075-.225.075v.076h-.302c-.225.15-.376.225-.526.225v.076c-.377.075-.753.3-1.28.752-.226.076-.376.15-.376.226-.377.075-.678.301-.678.602h-.15c0 .076 0 .15-.076.15-.3.151-.526.302-.526.528-.076.075-.076.075-.151.075-.15 0-.226 0-.226-.075v.451c-.452.226-.602.377-.452.377l.076.3-.301.377c-.076.527-.15.753-.226.753l.226-1.13-.15.302c-.302.15-.302.376-.302.677-.075.076-.075.076-.15.076v.527h.15c0-.151 0-.226.075-.377 0-.075 0-.075.076-.075v.452c-.076.225-.151.451-.151.526h-.075c-.075-.075-.075-.15-.075-.225h-.076l.15.677.151 1.506.301.376.076-.075s0 .075.075.15h.075l.075.377h.076c0 .15.075.225.15.225.15.301.301.527.527.603l.452.677c.226.075.451.226.677.376.076.15.226.226.527.226v.075c0 .076.301.151.904.301v-.075c.225.075.376.075.526.075h.452c0-.075.15-.075.527-.075l.075.15.15-.15h.302c0-.075.075-.075.075-.15.226 0 .376-.076.452-.076.075 0 .075 0 0 0v-.075c.075-.075.225-.075.3-.075v-.15c.076 0 .151-.076.227-.151l.526-.15c.151-.151.226-.227.302-.227v-.15c.225-.15.451-.377.602-.602.226-.15.3-.301.376-.452l.15-.226h.151v-.075l.15-.15v-.076h.076c0 .075 0 .075 0 0s0-.226.075-.376c.076 0 .076 0 .15.075.076-.15.076-.301.076-.452h.075c0 .076 0 .151.076.151v-.376c.15-.076.225-.226.225-.452l-.075-.075c-.075-.226-.075-.452 0-.527L85.877 7c-.075-.15-.15-.226-.225-.226v.151l-.828-.452H83.77c-.301 0-.602 0-.828.076 0 .075-.075.075-.075.15.075 0 .15.075.376.075.075-.075.226-.075.376-.075.15.15-.15.452-.828.828-.075.15-.15.301-.15.377 0 .075 0 .15.075.15.075.903.075 1.355 0 1.506-.15.225-.226.376-.376.602-.076.225-.226.3-.302.376l-.225.15-.15.226c-.151.076-.302.151-.377.302-.226.075-.377.075-.452.15-.376 0-.602 0-.602.075h-.527c-.075 0-.075 0-.075-.075-.753-.075-1.204-.226-1.28-.452-.226-.15-.451-.451-.677-.752-.076 0-.076 0-.076-.076-.075-.225-.15-.451-.15-.526l-.376-.904.15-1.129c.075-.15.075-.3.075-.527 0-.15.076-.3.15-.527h.227V6.7l.075-.075c-.15 0-.15-.075-.15-.226l.15.15v-.3c.226-.226.452-.377.602-.452 0-.075.15-.226.377-.452l.3-.226v-.075c.603-.226.904-.376.753-.376v-.075c.452-.15.678-.301.753-.527 1.28-.377 2.032-.602 2.334-.602.075 0 .075 0 .15.075h.678c0 .075 0 .075.075.075h.527c.3.075.527.15.527.15.3.151.526.226.752.226 0 0 0 .076.076.076.075 0 .225.075.376.226.226.075.527.225.978.376.302.226.452.376.527.376 0 .226 0 .377.076.452v-.15l.075-.076c.075.075.15.075.226.075.075 0 .15 0 .15.076.15.15.301.225.452.225a.679.679 0 0 0 .452.452l.075.075v.076h.15l.828.677.226.226c0 .15-.075.226-.15.3-.076.453-.15.603-.226.603-.075.075-.076.15-.076.226 0 .075 0 .075-.075.15-.3.678-.677 1.355-1.129 1.882l-.376 1.054-.979 1.43c0 .377-.15.753-.3.904-.377.526-.603.903-.603 1.053l-.753 1.28v.226c0 .075-.075.075-.15.075-.076.075-.076.15-.076.226 0 .075 0 .15-.075.15 0 .15-.075.302-.226.527-.075.226-.225.452-.451.753l-.15.301c-.227.301-.377.527-.377.678-.226.225-.376.451-.452.752l-.903.904c0 .15-.15.3-.376.526-.226.226-.377.452-.302.603a.805.805 0 0 0-.376.225c-.452.226-.602.452-.602.603l-.678.602c-.15.075-.3.15-.3.3a3.333 3.333 0 0 0-1.13.904c-.677.075-.978.226-.978.527-.075-.075-.075-.075-.15-.075-.076 0-.076 0-.227.15-.225.076-.451.076-.752.076l-.527-.226h-.226c-.301-.301-.452-.527-.602-.678a1.455 1.455 0 0 1-.376-.677c-.151-.15-.302-.301-.302-.452h.076v.075c.15 0 .225 0 .225-.075h-.075c0-.226 0-.376.076-.451l-.151-.15c.075-.076.15-.227.226-.453.15-.3.226-.451.3-.602.528-.677 1.055-.978 1.657-.978l.075.075h.452l.226-.301s-.076-.075-.151-.075-.15-.076-.15-.076c-.377-.075-.603-.15-.527-.15v-.075l-.377-.226c-.075 0-.226-.076-.527-.076-.3-.075-.527-.075-.602.151-.527.301-.828.527-.903.602l-.527.527c-.15.376-.301.602-.452.753v.3l-.226.076s0 .226.076.452c.075.3.075.602.15 1.054.076.3.15.526.15.526h.076c.075.151.075.302.075.452.076 0 .076 0 .151-.075l.075.075.904.903c.3 0 .451.076.526.15h.151v.152l1.28.526a6.72 6.72 0 0 0 1.957.527c0 .15 0 .301.075.301h.075c0-.075-.075-.15-.075-.225.075-.076.15-.076.226-.076 0 .076.15.15.376.15l-.15.151h.376l-.075-.075-.15-.075v-.15c.225 0 .376 0 .45-.076.452-.075.753-.15.904-.226l.075.076.979-.302v-.075c.075 0 .15-.075.226-.075v-.075c.075 0 .15-.076.225-.151l.151-.15c.527-.151.753-.226.753-.377h.15v-.075l.678-.452.376-.226h.075l-.226.377h-.15c-.075.075-.075.15-.075.15 0 .076 0 .076-.076.15h.226c.075-.15.15-.3.301-.375v-.452c0 .075.076.075.15.075-.074.075-.074.075 0 .075v-.15h.076c0-.15.15-.226.452-.226 0-.075 0-.15.075-.15h.15c0-.076.076-.076.226-.226.226-.226.377-.452.452-.527h.15c0-.226.076-.377.151-.452 0-.075 0-.15.075-.226.452-.3.603-.527.603-.752h.075v-.226c.075 0 .075 0 .15-.075l.076-.226c.075 0 .075 0 .15-.076v-.15l.226-.15V20.7l.301-.226-.075-.15h.075c0-.076 0-.151.075-.151l.076.075.15-.3v-.151c.15-.076.15-.151.15-.226h.076c0-.226.075-.377.226-.452.15-.301.226-.451.3-.527h.076l.226-.527h.075l.301-.527h.076c-.076-.075-.076-.075-.076-.15s0-.075-.075-.15h.075v.15c.15.075.226-.075.377-.452.15-.376.15-.602.15-.753h.076c0 .076 0 .076.075.151.075-.075.15-.15.15-.301.226-.226.377-.452.527-.753h.076c0-.15 0-.3.075-.3.527-.678.828-1.205.903-1.582h.075c.076-.15.076-.225.15-.225v-.15a.575.575 0 0 0 .151-.377h.151c0-.226.075-.377.226-.452l.226-.527.15-.15v-.076c.226-.677.376-.978.527-1.054l.452-.827h.225v.075c0 .075.151.15.527.15.076.076.076.15.15.15.076 0 .076 0 .076.076v-.075c.226 0 .301 0 .377.075v-.075c.15.075.526.075 1.129 0V9.86c.451 0 .752 0 .903.075h1.054v.075h.226v-.075c.3-.075.451-.15.451-.15h.15l.753-.076.828-.301v-.075l.979-.527h.226v-.075l1.129-.678V7.98c.075-.075.15-.075.15-.075s.076-.076.226-.076c.301-.376.527-.602.828-.602v-.15c.076 0 .076-.076.226-.076l.903-.903c.151-.527.452-.903.828-1.13v-.225c.151-.15.151-.301.151-.376h.075c-.075-.15 0-.377.151-.828ZM84.071 25.216c-.075.075-.15.15-.301.226v.15l-.226.151c0-.075 0-.15-.075-.15h-.076c0-.076.076-.151.302-.226v.075c.075-.15.15-.301.3-.301l.076.075Zm21.753-20.323-.225.15-.076.226c-.15 0-.301.15-.301.376h-.226c0 .226.001.301-.075.377 0-.076 0-.15-.075-.226l-.075-.075-.076.225.226-.677c.076.075.075.075.151.075 0-.15.15-.226.301-.226 0-.225.15-.225.451-.225Zm-1.204 1.053c0 .076 0 .151-.075.151l-.151-.15h.226ZM99.2.903h-.15l-.226-.15V.677h.301c.076.076.076.151.076.226Zm5.571 5.27c-.076.075-.076.15-.151.225-.075.075-.075.075-.226.15-.075 0-.075-.15-.075-.3.151-.076.301-.076.452-.076Zm-5.947-5.12c.226.076.076.151-.451.227-.076-.076-.076-.15-.226-.452.15 0 .226 0 .376-.075h.15c0 .15 0 .226.076.226l.075.075Zm4.065 5.044h-.151v-.15h.151v.15Zm-5.495-4.742h-.226l.15-.15h.076v.15Zm5.42 6.022c-.226.15-.377.225-.452.376h-.527c0-.075 0-.15.075-.226l.904-.15ZM96.942 1.43h.226c-.075.15-.15.226-.3.226v.226h-.227v.15l-.376.15-.226.151c-.226.151-.301.226-.376.226v.15c.075 0 .075 0 .15.076-.075.075-.075.075-.075.15h-.301v.226c.075 0-.15.076-.527.226-.075-.075-.075-.075-.075-.226l.753-.451c-.076-.075-.076-.15-.076-.377l.15.151c.076-.226.151-.376.151-.376.076 0 .15 0 .15.075 0-.075 0-.15.076-.226l.226.226.602-.527.075-.226Zm3.613 5.27-.225.225-.151-.301c.226 0 .301 0 .376.075Zm-4.44-4.216-.151.15V2.41c.075.075.075.075.15.075Zm4.742 5.194-.151-.076c.075 0 .075 0 .151-.075v.15Zm0 .677c0-.075 0-.075 0 0Zm.075.301h.226c-.076.076-.076.076-.076.226h-.225c-.076 0 0-.075.075-.226Zm-4.517-4.365c-.075-.076-.075-.151 0-.226v.226Zm3.99 4.064h-.226c-.075-.075-.075-.075-.075-.15l.075.075.226.075Zm-4.441-4.892v.3c-.075 0-.075.076-.226.151a2.84 2.84 0 0 0-.376.452c0-.452.15-.678.451-.678l.15-.225Zm.226.903v.226c-.076 0-.076 0-.15.075v.075h-.076v-.226c.15-.075.15-.15.226-.15Zm2.86 3.086s-.15.075-.452.15c-.15-.15-.225-.3-.15-.376 0 .075.15.075.452.15.075 0 .15 0 .15.076Zm1.656 1.505-.903.226h-.075c.075 0 .225-.075.451-.3l.075-.076c.076-.075.226 0 .452.15Zm-9.033-6.172-.15.15c-.301 0-.753-.15-1.204-.526l-.226-.15h-.15l-.151-.227h.225c.302.226.753.377 1.205.527.075.15.226.226.451.226Zm7.904 6.248v.225c-1.58.076-2.334.151-2.334.151-.3 0-.677 0-1.28-.075-.526-.076-.978-.076-1.203-.076-.076 0-.076-.075-.151-.3-.075.075.15.075.602.15.452.075.903.075 1.204.15h.527c.226-.075.377-.075.527-.075h2.108v-.15ZM94.76 6.774c.075.151.075.226 0 .226v-.226Zm-3.764-3.688h.15c-.075.075-.15.075-.15 0ZM94.308 6.7c-.075-.075-.15-.075-.226-.075v.15h-.15c-.076-.075-.076-.15-.076-.225h.15c.076 0 .076 0 .076.075.075 0 .075 0 .15-.075 0 .075.076.15.076.15ZM92.2 4.516c.075.15 0 .226-.15.226v-.226l-.226-.225-.979-.377V3.84c-.376 0-.526-.15-.526-.527h.15v.075c.828.301 1.43.678 1.806.904l-.075.225Zm-.3.377v.226c-.076 0-.076 0-.076.075-.075-.075-.15-.15-.15-.226h.225v-.075Zm-.227.527h-.225l-.603-.301v-.076l-.451-.226a3.498 3.498 0 0 0-.678-.225c-.225-.301-.527-.452-.752-.452v-.15c.075 0 .225 0 .3.075v.075c.452 0 .904.15 1.28.452l.678.3.376.377c.075.075.075.15.075.15Zm2.183 3.01h.15c.076.076 0 .151-.075.452h-.075l-.15-.226c.075-.15.15-.226.15-.226Zm.15 1.355-.075-.15c0 .075.076.075.076.15Zm-5.72-8.355v.15c-.075.076-.075.076-.15.076v.301c-.076.075-.151 0-.226-.075-.075 0-.301-.075-.753-.15-.075-.076-.075-.076-.226-.076-.075 0-.15 0-.15.075-.452 0-.753 0-.904.076.076-.076 0-.151-.075-.302-.075.076-.075.151-.075.302H85.5v-.151h-.15v.15h-.15c-.075.076-.226 0-.452-.075-.075.076-.3.076-.677.076l-.226.225-.15-.15-.151.15v-.075c-.075 0-.15 0-.226.075v.076c-.226-.076-.376-.076-.527 0l-.226-.226v-.075c.302 0 .603-.076.979-.226l.602-.15v.15c0-.15.301-.226.828-.226.075 0 .15 0 .15.075.076-.075.227-.15.528-.15.3 0 .526 0 .526.075h1.355c.226.075.377.075.753.075Zm-.075 1.656h-.301c-.075-.075-.15-.075-.226-.075-.301-.226-.452-.301-.527-.226V2.71c-.075 0-.075.075-.075.226-.075 0-.15 0-.15-.076v-.3c-.151 0-.227 0-.227.075-.075-.076-.15-.076-.3-.076v.226h-.076c-.075-.075-.075-.075-.075-.15h-.377c0-.076 0-.151.076-.151-.527-.075-.828-.075-1.054 0-.075-.075-.15-.15-.226-.15 0-.151.075-.226.226-.226.15.075.301.075.376 0 .075 0 .075 0 .15.075.452 0 .603.075.603.15l.602-.15 1.13.452v.15l.45.301Zm3.312 5.119c.075.15 0 .225-.075.3l-.076-.075.15-.225Zm.602.376c-.075.075-.15.15-.226.452l-.15.15h-.076s.076-.15.15-.376c0-.075 0-.075.076-.075V8.58h.226Zm1.28.677.225.226c-.075.15-.225.452-.526.828v.15h-.076c.075.076.075.151 0 .227a.928.928 0 0 1-.15.225h-.15l.074.226h-.15c0-.376.226-.978.677-1.731v-.15h.076Zm-1.656.377v-.226.226Zm-5.721-6.097h-.301l-.226-.226c-.075 0-.075 0-.075.075h-.301v-.075h-.226c0-.075-.075-.075-.301-.226l-.076-.075h-.15.15v.075c.151 0 .377 0 .527.075.076.076.301.151.753.226.075 0 .075 0 .15.076v.075h.076Zm4.968 5.796-.226.226c-.075.075-.075.15-.15.15 0-.226 0-.301.075-.376h.075v-.15c.075.074.15.15.226.15Zm1.43 1.656v.226a.575.575 0 0 0-.15.376h-.151c.075-.301.15-.527.301-.602Zm-.452-.226v.301c-.075 0-.15.075-.15.226-.075-.075-.075-.15-.075-.226l.225-.301Zm.377.903v.226c-.076 0-.076 0-.15.075.075-.15.075-.226.15-.3Zm-9.786-9.635c-.075-.075-.075-.075 0 0Zm7.98 7.98c-.151 0-.151.15-.151.375-.076.076-.076.076-.15.076 0-.075 0-.15-.076-.226.15-.452.226-.602.226-.602.075.075.075.075.075.15.075 0 .075.076.075.226Zm-.678 0h-.15c-.076-.076-.151-.151-.151-.227 0-.075.075-.225.15-.451.076.075.076.15.076.3h-.076v.151h.076v.226h.075Zm.3.752c-.074-.15-.074-.301 0-.301v.3Zm-.601-.828-.226.226v-.076c.075-.075.15-.15.226-.15Zm.3.828h.151c-.075.075-.15.301-.225.527-.076.075-.151.226-.226.527-.076 0-.15 0-.226.075 0-.15.15-.452.451-.903.076 0 .076-.15.076-.226Zm-7.903-8.732c.076.226-.075.377-.376.377v.15h-.527v.15c-.075 0-.226.076-.376.076v.075a.683.683 0 0 0-.527.226s-.15.075-.377.15c0-.075-.075-.15-.075-.225l.377-.226h.225l.15-.15h.151l.904-.377c0-.075.15-.15.451-.226Zm7.528 8.43v.151c-.076.076-.151.15-.151.301h-.075c0 .151-.15.377-.452.828-.075.076-.075.076-.075.226h-.15c-.076-.075-.076-.075-.076-.226-.075.076-.075.076-.075.226h-.076v-.226h.076v-.225c.075-.301.3-.603.527-.828.075-.226.15-.302.225-.302l.302.076Zm1.881 2.635c.076 0 .076.076.076.15 0 .151-.076.302-.302.528 0 .15-.075.3-.15.527-.15.226-.226.376-.226.527h-.075c-.075.075-.075.15-.15.451l-.227.226h-.225v-.15h.15c.076-.076.076-.076.076-.226h-.076v.15h-.075l-.075-.226h.15v.076c.15-.15.226-.226.301-.226.076-.075.076-.15 0-.377l.076.076.15-.15c0-.076 0-.151-.075-.227h.075v.076c.075-.15.226-.301.301-.377.075-.451.226-.677.301-.828Zm-6.097-5.193v.451c0 .15-.075.301-.075.527-.075 0-.075.075-.075.226 0 .15-.076.301-.226.301v.15l-.226.226c0-.075.075-.225.226-.527.075 0 .15-.225.226-.752 0-.076 0-.226.075-.527 0-.15 0-.226.075-.226-.075.075 0 .15 0 .15Zm-.828 1.28c-.075.376-.15.601-.376.677-.075-.452.075-.753.376-.904v.226Zm-.3-1.732-.076.15h-.075l-.15.452-.076.075v.076h-.075l-.076.075v.226l-.075.075v.075h-.075v-.15c-.076 0-.076 0-.076.075l-.15.753-.075.15h-.076v.452c-.075 0-.075 0-.075.075v.301l-.15.226-.302.15v-.15h.076c.075-.075.075-.075.075-.226.226-.15.301-.527.301-1.28h.075v-.526c-.075-.076-.075-.226-.075-.527.075-.075.15-.226.15-.301l.302-.226.15.075c.15-.3.226-.451.226-.376h.226c.075.075.15.226.075.3Zm5.72 7c-.075.075-.076.15-.15.15-.076 0-.076.076-.151.076 0 .301-.076.452-.226.527l-.226.527-.376.527v-.226c.15-.452.376-.678.527-.828.075-.376.225-.678.602-.753Zm.075 1.731h-.15c0-.225.075-.376.15-.376v.376Zm1.28-6.021c.075.075 0 .3-.15.752v.151l-.151.15c-.076 0-.076.076 0 .151h-.076a.804.804 0 0 0-.225.376c-.076.226-.226.452-.452.828.075.076.075.076.075.151-.15.075-.15.301-.15.527l-.527.527V14h-.076v.225h-.075l-.075-.075c-.075 0-.075.15 0 .301-.075.15-.15.377-.376.602l-.151.226v.15c-.15.151-.301.452-.527.904h-.15c-.076.075-.076.15-.076.301a5.061 5.061 0 0 0-.527.828c-.15.226-.3.452-.376.678v.15h-.075c-.075.301-.15.452-.301.527v.15h-.076c-.075.151-.15.302-.3.302 0 .15-.076.3-.151.376v.15l-.226.226.226-.752.226-.226c-.151-.15-.076-.301.225-.452v-.15h.15c0-.076 0-.15-.074-.226.075 0 .15-.226.376-.678.226-.451.301-.677.376-.752.15-.15.226-.452.377-.904.828-1.505 1.43-2.559 1.882-3.01-.076-.377 0-.678.225-.678v-.15c-.075.075-.075.075-.15.075v-.15h.226c.075-.377.225-.603.3-.753 0-.076.076-.151.302-.377 0-.075 0-.15-.075-.15.376-.377.526-.527.602-.527Zm-1.807 5.57v.15-.15Zm0 .376c-.075-.075-.075-.15-.15-.226h.075c0 .076 0 .15.075.226Zm-.3.527-.227.15c0-.075 0-.075-.075-.075 0-.075.075-.15.15-.3l.151.075v.15ZM78.876 4.065v.226c-.075.075-.15.075-.226.075v.075c-.075.226-.3.452-.677.828-.075 0-.075 0-.15.075 0 .076-.076.076-.151.076l-.602.828v.3h-.076c-.075.302-.15.452-.226.528v-.151h.076c0-.226 0-.452.075-.602h.075c0-.301.076-.527.301-.678.226-.451.527-.828 1.054-1.204.076-.075.076-.075.076-.15h.15v-.076c.301-.075.376-.15.301-.15Zm9.183 9.86a3.065 3.065 0 0 0-.451.828c-.076.226-.15.377-.226.452-.075 0-.15 0-.15.075-.076.527-.227.753-.528.828.076.15 0 .301-.225.452-.151.226-.302.376-.302.527h-.075c0 .075-.075.15-.226.3-.075-.225.15-.677.753-1.204 0-.225.15-.526.377-.752 0-.226.3-.678.903-1.506V13.7h.075c.075 0 .075.076.075.226Zm.602 2.936h.151c0 .075 0 .226-.075.301-.076.15-.076.226-.076.226h-.15l.15-.527Zm.377.903-.075.15h-.076l-.075.227c-.301.451-.527.677-.677.602.075.075.075.15.075.3l-.452.227c.076-.301.226-.602.452-.904l.226-.3c-.076-.076-.076-.076-.076-.151a.16.16 0 0 0 .15-.15c0-.076.076-.151.151-.227.151-.075.226-.075.377 0v.226Zm-7-6.022v.151c-.302.226-.678.301-.979.376v.076h-.15v-.226l.526-.301v-.076h.226c0-.075.075-.075.075-.225l.226.225h.076Zm6.699 4.441-.903 1.958h-.076c0 .075 0 .075-.075.225-.075.076-.075.15-.15.226-.076.076-.076.226-.151.301l-.226.15-.226.528c0 .075 0 .075.076.075 0 .226-.076.376-.151.527v.075h-.075c0 .075-.076.075-.15.226v-.527c.074 0 .15 0 .225-.075 0-.226.075-.602.301-.979.226-.376.376-.677.376-.903.076 0 .15-.075.15-.226.076-.15.076-.226.151-.226v-.225c.151-.301.377-.603.603-.904l.3-.226Zm-1.054-.526c-.075.15-.226.526-.452 1.129l-.225.226c-.076.075-.151.15-.226.15v.376c-.15.15-.301.377-.377.603l-.15.15-.527.527c.075.075.075.075.075.15-.15 0-.226.151-.226.377-.15.226-.3.452-.3.602-.076.15-.151.226-.151.376.075-.225.225-.451.527-.677l.075.452h-.075c0-.15 0-.226-.076-.226-.075.15-.075.3-.075.376 0 0 0-.075.15-.15v.15c-.075 0-.075.075-.15.15-.075.076-.075.151-.15.151v-.15h-.076c-.3.075-.451.15-.527.226 0-.226.15-.603.377-1.054h.15c0-.15 0-.226.075-.301l.753-1.205h.15c-.075-.3.076-.451.227-.527.15-.526.451-1.053.903-1.58.075-.076.075-.076.075-.15 0-.076 0-.076.075-.151h.076c0-.151 0-.076.075 0Zm0 3.763-.075-.15h.075v.15Zm.075.301c-.075-.075-.15-.075-.15-.15h.075l.075.15Zm-1.957-1.957-.075.15h-.075c0 .076-.076.076-.151.227 0-.151.075-.301.15-.603h.076v.226h.075Zm.376 1.13h-.15c0 .15 0 .3-.075.3v-.15c0-.075.075-.15.075-.301 0 0 .075 0 .075.075v.075h.076Zm-.752-.528-.076-.15h.076v.15Zm.527.828s-.076.15-.15.452c0 0-.076-.15-.151-.376.075-.076.225-.076.3-.076Zm.376 1.054h-.226c0 .15 0 .301-.075.301h-.075c0-.15.075-.3.15-.376v-.15h.15c0 .15.076.225.076.225Zm-5.871 3.538a.162.162 0 0 1-.15-.15h.15v.15Zm2.107.226-.526.15c0 .15 0 .226.075.377-.226.075-.452.075-.527 0v.15h-.075l-.377.377c-.075.075-.15.15-.15.225h-.076v.076c-.075-.076-.15-.076-.225-.076v.15c.075 0 .15 0 .225.076 0-.075.076-.15.226-.226v-.075l.377-.376c.15-.075.225-.075.376.075.15 0 .226-.075.301-.15h.075v.15c0 .075-.15.226-.527.376 0 .15-.15.226-.526.226v.076l-.603.15c0-.15 0-.226.076-.226h-.15v.15c.074.076.074.076.074.151h-.3v.076h-.076c-.075 0-.075 0-.075-.076h-.226l-.527.15c-.075 0-.075-.074-.075-.15h.15v-.075c.15 0 .301-.075.527-.226.226-.15.376-.226.452-.3.752-.528 1.204-.904 1.355-1.13.376 0 .602-.15.677-.452.075 0 .075-.075.226-.075v.452h-.15Zm-2.86 1.204-.301.15v-.15l.226-.226h.075c-.075.076-.075.15 0 .226Zm-.978.527.225.226c-.075 0-.075 0-.15.075-.226 0-.377-.15-.527-.376l.15-.15.076.075c.075-.076.075-.076.15-.076.076 0 .076-.075.15-.15h.151c0 .15 0 .226-.075.226v.15h-.15Zm10.538-14.98-.076.227h-.075c0-.076.075-.15.15-.226Zm-.527 7.378h-.15l-.076-.076.226.076Zm-1.957.527v-.151c.075.075.075.075 0 .15Z"/><path fill="#B8B8B6" d="M102.436 13.775c-.075 0-.075 0 0 0Zm9.635-9.108.226-.226c0-.075 0-.225-.075-.376-.075-.15-.075-.3-.075-.3h-.076v-.151h-.075v-.076c-.301-.075-.677-.15-.979-.15-.526.075-.828.226-.903.3l-.226.151c-.15.076-.225.076-.301.076 0 0-.075 0-.15.075 0 0 0-.075.075-.075h-.15v.15c-.302.15-.452.15-.527.075-.076.076-.076.076-.076.151-.225.075-.376.075-.451.075h-.226v.15c-.376-.075-.527 0-.527 0s-.075 0-.075-.075c-.904.377-1.43.603-1.581.678a.923.923 0 0 0-.226.15c-.226 0-.376.076-.451.226-.226.076-.377.15-.452.226a5.549 5.549 0 0 0-1.204.903c-.151 0-.302.076-.302.226-.15.075-.225.15-.225.226-.753.677-1.28 1.204-1.506 1.656-.301.452-.451.602-.527.602-.602.753-.978 1.205-.978 1.28-.076.075-.076.15-.076.15l-.451.828-.602 1.13a1.456 1.456 0 0 1-.377.677h.076v.15h-.15v.151h-.151c-.151.15-.226.376-.226.677l-.076.076v.15c-.15 0-.3.226-.451.678-.15.451-.301.677-.377.677-.075 0-.225.226-.451.828l-.828 1.28h-.076v-.15c-.075.075-.075.15 0 .225-.075 0-.15 0-.15.075l-.376.678c-.15.376-.302.602-.527.677.075.075.075.226 0 .377l-.076-.076h-.075v.226h-.075v.15c-.226 0-.301.226-.376.753h-.151c-.075.301-.226.602-.376.753v.075h-.076c0 .076 0 .076.076.15l-.602.98v.225c-.151 0-.377.301-.603.903.15 0 .226.076.301.151h2.258l.302-.527h.075v.226h.15c.151-.226.302-.376.377-.602.075-.15.226-.301.3-.377l-.074.377h-.151c0 .075 0 .15-.075.226h-.076l-.15.526h-.301v.151c.376 0 .677-.075.753-.15l.526-.302.151-.225v.075c.075-.075.075-.075.075-.15v-.151h.076c.075-.226.15-.377.15-.452l-.15-.075h.15c.075-.075.075-.15.15-.226.076-.075.076-.15.151-.226h.076v-.15c.075-.076.075-.076.075-.15.075 0 .075 0 .075.074 0 .076 0 .076.075.076 0 0 0-.076-.075-.15l.15-.151.302-.603h.075v-.225h.075v-.226l.226-.226c.075-.15.226-.376.301-.527.075-.226.15-.376.301-.527.075-.15.226-.226.301-.226.076 0 .076 0 .076.076v-.15h-.076c0-.076 0-.152.076-.227.075-.075.075-.15.075-.226h.15c0-.225.076-.376.151-.451v-.075c.15-.076.15-.151.15-.226.302-.301.452-.602.603-.828 0-.15 0-.301.075-.301h.075v-.15h.075v-.076l.151-.226c.075-.075.151-.075.226-.075h.075v-.15h-.15c.225-.227.301-.452.301-.603h.075v-.15h-.075l.225-.377c0 .075 0 .075-.075.15l.226-.15.903-.452c.301-.15.527-.225.678-.3.075-.076.15-.151.301-.151v-.075l.527-.15c0 .074 0 .074.075.074a3.318 3.318 0 0 0 1.204-.451c0 .075 0 .075.076.075 0-.075-.076.226-.226.677-.151.226-.301.452-.377.678l-.376.376c-.15.226-.301.377-.301.452l-.527.903c-.15.301-.301.452-.527.527-.15.075-.451.602-.903 1.58l-.527 1.13c-.301.677-.452 1.129-.527 1.204-.075.15-.075.377-.075.602-.075 0-.151.15-.151.377 0 .226 0 .376.151.451.15.452.301.753.527.904 0 .075 0 .075.075.15h.075v.075h.151v.076h.075v.075c-.075 0-.075 0-.075.075v.075h.075c0-.075 0-.075.075-.15.828.226 1.129.301.904.301.527.075.903.075.978.075.075 0 .301-.075.678-.15.376-.076.602-.15.752-.15v-.076c.377-.15.603-.15.603-.15.376-.377.602-.603.752-.603.076 0 .226-.075.452-.226.226-.15.376-.225.527-.225 0 .075.451-.377 1.355-1.28.075-.527.301-.828.527-.903v-.076l.225-.15c.301-.452.452-.602.527-.602 0-.076 0-.15-.075-.15.151 0 .226 0 .226-.076-.075-.075-.075-.075-.075-.15.376-.227.451-.302.451-.377h-.075c.075-.075.075-.075.075-.15-.15 0-.301.15-.527.451-.225.301-.376.452-.527.452 0 .075 0 .15-.075.226l-.527.451c-.527.678-.903 1.054-1.204 1.13-.226.225-.452.376-.527.376.075-.076.075-.076.151-.076v-.075h.075v.075c-.151.076-.226.15-.226.226h.075c-.226.301-.451.452-.677.527l-.377.15c-.451 0-.677-.075-.903-.15-.075-.301.151-.979.527-1.957.075 0 .075-.075.151-.226.075-.15.075-.226.15-.226.151-.3.301-.602.452-.828.15-.226.301-.451.451-.602 0 0 .076-.075.151-.226h.075v-.075h.076c.225-.376.376-.677.602-.978.752-.904 1.054-1.28.903-1.28v-.075c.677-.603 1.054-1.054 1.054-1.43h.075l.151-.377h.075v-.075c.301-.377.451-.828.527-1.204v-.527c-.151 0-.301-.226-.377-.452l-.828-.376h-1.43c-.301.075-.602.15-1.054.225-.376.076-.828.226-1.354.377v.075c-.678.15-1.054.301-1.054.527-.753.15-1.129.301-1.054.527-.452.226-.828.376-1.204.527-.377.15-.603.3-.828.451v-.075l.225-.15c-.075 0-.075 0-.075-.076l.301-.376c.075-.226.151-.452.377-.677l.075-.076c.301-.602.602-1.054.828-1.505.301-.377.527-.678.753-.979h.15c0-.15.075-.3.301-.527.226-.225.301-.376.301-.527.226-.15.377-.376.527-.677h.075c0 .301.076.15.302-.527h-.151V8.13c.075 0 .151 0 .226-.075h.15v-.076h.076l.677-.903c0-.15.075-.226.301-.301 0-.15 0-.226.151-.15 0-.151.075-.226.301-.377.226-.15.301-.226.376-.376.527-.452.903-.603.979-.603v-.075c.075 0 .15 0 .15.075l.076-.075.075.075.075-.075v-.15c.677-.076 1.054.075 1.054.451.075-.075.301-.075.828-.075.226-.15.527-.376.677-.753Zm-9.936 19.646c-.075 0-.075 0 0 0h-.15.15Zm5.345-19.646.828-.226c-.301.226-.527.302-.678.302l-.15-.076Zm.527.678c-.452.3-.678.451-.678.677h-.15v.075h-.076v.076l-.075.075c0-.075.075-.226.301-.452v-.15s.151 0 .377-.15V5.42c.075 0 .15-.075.301-.075Zm-1.732 1.58-.225.226h-.151c.151-.15.226-.226.376-.226Zm-.075-.828c0 .302-.15.377-.452.302-.15.15-.376.3-.602.376v.075h-.075v.075h-.075v.151h-.226v.075h-.075v.076c-.076 0-.226.075-.452.225-.226.15-.301.301-.301.377v-.076c-.075 0-.151 0-.151.076-.075-.15.076-.301.377-.377a2.872 2.872 0 0 1 1.279-.903c0-.301.301-.452.753-.452Zm3.387 6.173-.225.15c-.151-.15-.226-.226-.302-.226 0-.075 0-.075.076-.15 0 .075.075.075.301.075v.075l.226-.075v.15h-.076Zm-.903-.15h-.15v-.076l.15.075Zm-3.161-4.065-.301.225-.603.753h-.075c0-.15.075-.301.376-.602.226-.226.377-.376.603-.376Zm2.183 4.064.451-.075-.15.15v.076h-.151v.075h-.15v-.226Zm1.204.904v.225h-.075l.075-.225Zm1.355-.527c-.452 1.354-.903 2.258-1.28 2.71h-.075v.075h-.075v.15l-.226.15v.076h-.075l-.076.15-.075-.075.301-.451c.151-.226.301-.377.376-.603.151-.15.226-.376.302-.526.075-.226.225-.527.526-.753.076-.226.076-.376.151-.527.075-.15.15-.226.226-.376Zm-1.43.828-.226.225h-.075v-.15h.15v-.15l.151.075Zm-1.28-1.13h.151c-.151.226-.377.377-.678.527.151-.376.376-.527.527-.527Zm.301 1.205c0 .075-.075.15-.15.15v-.075c.075-.075.075-.075.15-.075Zm-3.011-4.366c-.075.301-.15.527-.301.602h-.15c0 .076 0 .15-.076.226-.527.527-.752.903-.752 1.204h-.151c-.075.076-.075.076-.075.151v.15h-.226v-.15c.226-.226.376-.376.452-.602l.075.075c0-.075.075-.15.15-.226-.075 0-.075 0-.15.076-.075-.076 0-.151.075-.226.075 0 .075 0 .151.075.075 0 .075-.15.075-.226h.075v.075c.075 0 .151-.15.301-.376.151-.301.301-.376.377-.376v-.076l.15-.376Zm1.807 3.538c-.377.301-.828.452-1.205.527v-.075l-.15-.076c.301-.15.602-.226.828-.3.301.074.451 0 .527-.076Zm.15 1.129-.075.15.075-.15Zm1.205.677c.075.377-.076.603-.452.753 0 .075-.075.075-.075.15 0-.225 0-.3.15-.3.076-.302.226-.527.377-.603Zm0 .678c-.076 0-.076 0-.151.075v-.075l.151-.15v.15Zm-4.366-7.979c0 .15-.151.301-.301.452-.226.225-.377.376-.377.451h-.15v.076s-.075 0-.075.075h-.076v.075h-.075v.075h-.075c-.226.527-.301.603-.301.377h-.151c0 .075 0 .075.075.15l-.301.15v.076h-.075v.15c-.075 0-.075 0-.151.076l-.075.15c-.075 0-.15.076-.376.302-.226.225-.301.3-.151.376-.15.15-.226.301-.301.527.075-.075-.075.075-.301.226-.226.225-.376.451-.376.602h-.15c.15-.301.3-.527.526-.678.527-.903.828-1.355.903-1.355.076-.225.151-.3.301-.376.151-.376.452-.677.753-.828 0-.075.151-.301.527-.677.452-.301.678-.452.753-.452Zm2.107 6.248s0-.076 0 0Zm1.807 2.107c.075 0 0 0-.075.15.075-.074.075-.15.075-.15Zm-4.215-5.57v.15c-.226.076-.301.151-.377.302-.451.3-.752.602-.828.978h-.15l-.151.15c0-.075.151-.3.377-.601l.903-.904h.226v-.075Zm3.989 5.495c0 .075 0 .075-.075.15l.075-.15Zm-4.215-4.366c0 .226 0 .301-.075.377h-.076v.075h-.225c.075-.226.15-.377.225-.452h.151Zm4.215 4.592c-.075.15-.15.226-.15.226l.15-.226Zm.602.903v.075c.151 0 .076.076-.225.15l.225-.225Zm-1.731-1.43c-.075-.075 0-.075 0-.15v.15Zm.828.978c0-.075 0-.075.075-.15l-.075.15Zm-4.29-4.215.15-.15-.15.15Zm4.516 2.785c-.151.301-.226.452-.301.527h-.075v.075h-.076v.076h-.075v.075h-.075l.075.15c-.151 0-.452.302-.903.904.075-.226.15-.377.15-.452h.076v-.15h.15c0-.076.151-.226.376-.527 0-.226.076-.377.151-.377l.226-.376c.15 0 .226 0 .301.075Zm-1.28.527c.076 0 .076 0 0 0Zm-1.129-1.43c.075.15-.075.226-.376.226.15-.075.301-.15.376-.226Zm-2.183-1.957-.226.226v-.15c.076-.076.151-.076.226-.076Zm2.785 2.935c-.075 0-.075 0 0 0Zm-.15.226-.075-.15h.075v.15Zm-3.237-3.086h-.15.15Zm.226.527h-.151c.076-.075.076-.15.076-.226.075.075.075.15.075.226Zm-1.054-1.355c.075.15-.075.301-.301.527 0 .15.151-.075.301-.527Zm6.474 4.517-.904 1.354c-.451.603-.752.979-.828 1.054l-.301.301-.15.226c.15-.301.301-.527.451-.677a2.83 2.83 0 0 1 .377-.452c.15 0 .301-.226.376-.527l.527-.602c.15-.527.301-.753.452-.678Zm-6.248-3.764v.15s-.075.076-.151.076c-.075 0-.15 0-.225.075v-.15c.225-.151.376-.151.376-.151Zm.376.451s0 .076-.075.151h-.075v.075c-.076.076-.076.15-.151.15s-.075.076-.15.076v-.075c.15-.301.301-.377.451-.377Zm3.312.904h-.15l-.151.15c-.301.076-.677.226-1.129.377-.452.226-.978.451-1.581.752-.15.151-.225.226-.376.226v.075h-.075v.076h-.076c-.075.075-.075.075-.15.075l-.226.301.452-.226c.226-.075.376-.226.602-.376.226-.075.376-.226.527-.301.226 0 .451-.15.903-.377a1.46 1.46 0 0 0 .678-.376c.225-.075.451-.075.602-.075v-.301h.15Zm-3.312-.301h.151c0 .075-.075.15-.301.3l.15-.3Zm-1.129-.904c-.075 0-.075 0-.15.076v-.15l.15.074Zm5.043 5.194-.15.15c.075-.15.15-.15.15-.15Zm-4.817-4.893h.226c-.075 0-.075.151-.075.377-.076-.075-.076-.075-.151-.075l-.226.225v-.075c0 .15.075 0 .226-.452Zm.301.753h-.15c0-.075.075-.075.075-.15.075 0 .075.075.075.15Zm4.441 5.646.753-1.13c0 .076-.075.226-.301.527h-.075c.075.076.075.076.075.151h-.151v.226h-.075v.15h-.075v.15h-.076l-.15.302h-.075c.075-.15.15-.301.15-.376l-.15.226c0-.151 0-.226.15-.302v.076Zm-5.419-6.323h.15c-.075.226-.226.3-.451.376l.301-.376Zm.451.677h-.15v.15c-.151 0-.226 0-.226.076 0 0 0-.075.15-.226h.226Zm4.441 3.237c-.376.903-.752 1.505-1.129 1.882 0-.15.075-.377.301-.602.226-.226.301-.377.301-.452l.527-.828Zm-5.57-3.764-.15.15c-.076-.15 0-.15.15-.15Zm.678.828c-.076.076-.076.076-.076.15l-.075-.074.151-.076Zm5.118 5.345s0 .075 0 0c-.075 0-.075 0 0 0Zm.151.15c-.076 0 0 0 0 0Zm-5.495-5.796c0-.075-.15.15-.377.602-.075 0-.15 0-.225.076v-.076h.075v-.075h.075c.15-.226.226-.451.377-.527h.075Zm5.194 5.947c-.076.075-.076.075-.076.15 0-.075.076-.075.076-.15Zm-.151.376c.075 0 0 .075 0 0Zm.075-1.054c0 .226-.075.301-.075.377a1.63 1.63 0 0 0-.376.602c-.226.075-.377.3-.452.602h-.075v-.226h.15c.151-.3.301-.602.452-.828.15-.15.301-.376.376-.527Zm-1.731-.376c0 .075-.075.075-.151.15-.075.377-.225.678-.526.829 0-.076 0-.302.225-.527.226-.226.377-.452.452-.452Zm-4.065-2.785-.3.226c0-.076.15-.226.3-.452v.226Zm4.291 4.667c0 .226-.075.376-.075.451h-.151l.226-.451Zm1.505-.301c0 .15-.075.3-.226.602-.15.3-.301.527-.376.828-.452.3-.602.602-.602.978h-.075v.076c-.076.075-.076.15-.076.15h-.075l-.226.15c-.075-.15.076-.376.377-.903 0-.075.075-.15.15-.376s.226-.376.301-.602c.151-.226.226-.452.377-.602.225-.15.376-.226.451-.301Zm-2.408-.377-.302.602c-.15.076-.15.151-.15.226h-.075c.225-.753.376-1.053.376-.903.075 0 .151 0 .151.075Zm1.881 2.56v-.151.15Zm-1.204-1.355v.451h-.075v.076h-.076l-.225.526c0-.15 0-.225.075-.3v-.076h.075v-.15h.075c0-.302.076-.452.151-.527Zm1.656 2.559c-.075-.075-.151-.075-.226-.075v-.377c.151.226.226.377.226.452Zm-.979-.301.452-.828h-.075c-.151.527-.301.828-.377.828Zm-1.43-2.56-.376.603c-.075-.076.075-.301.376-.602Zm.979.904c-.075.602-.226 1.054-.377 1.28h-.075c-.075-.151.075-.603.452-1.28Zm-.602-.678-.151.452h-.075v.15h-.075v.151h-.076c-.075.226-.226.452-.376.678 0 .075.226-.377.602-1.355h.151v-.076Zm1.43 2.259v.526h-.151s.076-.15.151-.526Zm-.377-.603c0-.075-.075.076-.15.527v.15c-.075 0-.151.151-.226.377h-.15c-.151-.15.075-.451.526-1.054Zm-5.118-6.247-.527.978c-.075 0-.15.076-.226.226-.075.15-.15.377-.3.527-.076.15-.227.376-.302.527l-.15.301c0-.075.075-.226.15-.376.075-.226.15-.377.226-.602a2.25 2.25 0 0 1 .301-.603c.075-.15.226-.3.301-.3l.452-.754.075.076Zm3.688 5.871h.151c0 .075-.075.075-.075.226h-.076v-.226Zm-2.71-6.398c0 .15-.075.226-.15.3a.575.575 0 0 0-.15.377h-.076l-.376.753-.15.226h-.076l-.376.677h.075v.076c.15 0 0 .075-.301.3v.227l-.226.225c-.452.15-.602.602-.602 1.28-.301 0-.527.15-.527.376 0-.15.226-.451.527-.903 0-.15.075-.301.15-.452.076-.225.15-.3.15-.376.528-.753.904-1.28 1.055-1.656.225-.15.376-.376.527-.828.075 0 .15-.075.225-.226.151-.226.226-.376.302-.376Zm1.958 5.42c.075.075.075.15 0 .376a3.223 3.223 0 0 1-.151.376h-.075l-.151.452h-.075v-.226h.075c.075.376.226.075.377-.979Zm3.387 3.01-1.205.452-.677.075h-.376l-.151-.15c-.15-.076.226-.076 1.054-.076.452-.15.903-.225 1.355-.3Zm-1.656-.075c-.151.075-.301.075-.452.075 0-.15 0-.226.075-.376 0-.075.151.075.377.301Zm-1.882-.903v.15c-.075-.075-.075-.15-.075-.226.075 0 .075 0 .15-.075l-.075.15Zm.075.226c0 .075-.075 0 0 0Zm.753 1.204-.226-.226c.075 0 .226.075.527.15l-.301.076Zm1.957-14.528c0 .076 0 .076 0 0Zm19.722 9.334v-.15h-.151v.075c-.075.075-.075.075-.151.075-.075-.075-.15-.075-.225-.075-.076 0-.076 0-.076.075l-.376.376c-.151.075-.226.15-.226.226h-.15l-.226.301c-.226.15-.301.226-.377.376-.225.151-.301.226-.301.377-.225.075-.376.075-.451.226l-.076.15c0 .075-.075.226-.301.377-.225.15-.376.225-.451.225v.15c-.753.377-1.129.678-1.129.829h-.151v.075c-.602.301-.903.527-1.054.602-.527 0-.752.076-.828.15l-.828.302c-.527.15-.978.15-1.279.15 0-.075 0-.075-.076-.15h-.075l-.075-.075h.075v-.076l-.15-.225c0-.302-.076-.527-.226-.527.075-.076 0-.301-.151-.678 0-.451.076-.828.301-.978h.076c.301-.301.602-.452.903-.527.075-.076.15-.076.226-.076v-.075c.226-.075.451-.15.602-.226.376-.225.753-.3 1.204-.376v-.075c.076-.076.151-.076.226-.076v-.225c.151.075.376-.076.753-.301.828-.527 1.355-.904 1.581-1.054.225-.15.376-.301.451-.301v-.076c.226-.15.376-.3.452-.376h.075v-.075h.075v-.075h.076l.376-.377.226-.226.075.076v-.076s.075-.075.075-.226h.076l.451-.903c.075-.3.075-.527.151-.752.075-.226.075-.302.15-.377l-.527-.903-.527-.376v-.151c.076-.075.151-.075.302-.075v-.076h-.377v.151c-.301-.075-.451-.15-.527-.226-.075-.075-.15-.075-.226-.075-.301-.075-.602-.075-.903-.075-.301 0-.451 0-.677-.076h-.602c-.226 0-.527.076-.904.076-.225.075-.376.15-.451.15h-.151c-.075.226-.301.301-.677.301.075-.075.075-.075.15-.075.151-.226.301-.376.527-.452.377-.15.678-.225.678-.225v-.076c.075-.075.075-.075.225-.075.678 0 .979 0 .828-.15v-.076c.226.075.377.15.377.15v-.15h-.301c-.377-.075-.678 0-.753.15-.527 0-.753 0-.753.227h-.15l-.452.3c-.301.226-.527.452-.602.603h-.226c-.075.376-.376.677-.978.753l-.452.602c-.226.075-.376.226-.452.527h-.15l-.226.15c-.226.301-.376.527-.527.678-.527.602-.828.903-.828.978l-.226.377c-.075.3-.15.526-.226.752-.075.226-.15.377-.225.452-.226.075-.302.376-.377.828-.15.075-.226.376-.301 1.054-.075.15-.15.527-.15 1.129-.076.075-.151.15-.151.226 0 .075.075.075.151.225.075.753.225 1.205.451 1.43v.226h.151c-.076.076-.076.15-.076.302h.076v-.151l.376.376v.15l-.301-.225v-.075c-.075.075-.075.075-.075.226.376.15.677.225.677.225-.075 0-.075 0-.075.076h.075v-.076s.151.076.377.226l.075.15c0 .076 0 .076.15.076l.452.15c.527.151.903.226 1.28.226v-.15h.15v.075h.075v-.075h.151v-.075c.151 0 .226 0 .226-.076h.527c.15-.15.301-.15.527-.15v-.076h.15l2.334-.903.301-.3.226-.151.225-.151 1.28-.978c.602-.302.828-.527.677-.527v-.076h.076v-.075c0-.15.15-.226.376-.301v-.15c.151-.076.301-.151.527-.452h.075v-.15h.226c0-.227.226-.452.677-.678 0-.076 0-.15.076-.301.075-.15.075-.226.075-.301h.075v-.226h.076Zm-12.195 4.968s-.075.075 0 0Zm9.485-10.614.15.15c-.225 0-.451 0-.602.076v-.15c.151 0 .301 0 .376-.076v.076l.076-.076Zm-1.054-.3c-.075.075-.075.075-.226.075l-.075-.076h.301Zm.376.3v.15c-.15 0-.225 0-.376.076 0-.075.151-.15.376-.226Zm-.903-.451c-.075.15-.15.226-.376.3 0-.074 0-.15.075-.15v-.226c0 .076.151.076.301.076Zm-.602-.076c0 .076-.075.076-.226.151v-.075c.075 0 .151 0 .226-.076Zm.903 1.13-.301.225h-.15v.076c-.076 0-.076 0-.151.075V14h.075c.076-.076.151-.076.226-.226l.226-.226h.075v.15Zm2.183.903c0 .15-.075.3-.151.376v.301h-.075v-.075l-.075.226h-.151c0 .075 0 .075.076.075 0 .075 0 .15-.076.226-.075.075-.075.15-.075.226h-.075v.075c-.075 0-.075 0-.151.075v.15h-.075v.076h-.075v.15l-.301.151s0 .075.075.075l-.527.527c0-.15.075-.225.226-.376l.527-.527c.15-.15.301-.527.527-1.204.075-.075.075-.226.075-.377 0-.15 0-.3.075-.527 0 .076.075.076.151.076 0 .15 0 .226.075.3Zm-3.839-1.807c-.075.076-.15.076-.15 0h.15Zm.828.828c-.15.15-.301.301-.527.452V14l.226-.226c-.226-.075-.075-.075.301-.15Zm-1.054-.828c-.075.076-.15.15-.301.15-.15.076-.301.076-.527.227v.15h-.15v-.075h.15v-.075s.076 0 .151-.076v-.075c.15 0 .226 0 .301-.075v-.075c0 .075.151 0 .376-.076Zm.678 1.732c-.301.075-.527.3-.678.527 0-.076.151-.226.377-.452-.076 0 0-.075.301-.075-.075 0-.075 0 0 0Zm-2.183-1.28c-.151.15-.226.226-.301.226 0-.226.15-.301.301-.226Zm1.43.226c.075.075-.15.226-.527.527v.075c-.226 0-.527.15-.828.452l-.527.3.151-.3.753-.302c.075-.075.15-.15.301-.225.075-.076.225-.15.376-.226l.151-.075c.075-.076.075-.076.075-.151l.075-.075Zm2.183 3.99-.151.15v.075h-.075c0-.15.075-.226.226-.226Zm-4.065-3.915c-.15.075-.226.226-.376.376h-.075l-.076-.15c.076 0 .151-.075.226-.15.151-.076.301-.076.301-.076Zm5.721 1.204c-.075.302-.151.527-.452.828v.15c0 .152-.226.302-.527.603v.075l-.752.678-.301.3c-.151.151-.452.377-.904.678h-.075v.076c-.075 0-.15 0-.226.075v.075l-1.054.527c-.075.075-.225.15-.376.226-.226.075-.376.15-.602.226v.075h-.075v.075l-.828.226v-.075.075c-.076.075-.301.15-.527.301h-.076l.226-.226v-.15c-.075 0-.075 0-.15-.076h.075l.151-.15.225-.075c-.075-.076-.075-.076-.075-.226 0-.15.151-.377.527-.602 0 0 .075-.076.151-.226h.075c-.075.075-.075.15-.075.15 0 .076 0 .076-.076.151h.076l.225-.452c-.075-.075-.075-.075-.15-.075v.075h-.075l.225-.226c.076.076.076.076.076.151l.15-.15h-.15c0-.151.15-.377.376-.753.301-.377.452-.602.677-.828l.076-.076v-.075l.226-.15h.075l.828-.979c.075 0 .075-.075.226-.15-.151 0-.076-.076.301-.15.075 0 .075-.076.15-.151.076-.076.151-.151.226-.151-.075.15-.15.301-.301.452v.15c.301-.3.452-.527.527-.602h.075v-.15l.226-.151c.527-.452 1.054-.678 1.656-.602l.226.15c0 .226 0 .377.075.452v.677h-.301Zm-5.043.904c-.151.15-.226.15-.226.15v-.15c-.075 0-.151.075-.151.226h.151v.075l-.226.225v.076h-.075v.15c0 .076-.075.076-.151.076-.075 0-.075 0-.226.075v.075c-.075 0-.075 0-.15.075v-.075h.075v-.075c.075 0 .151-.075.226-.226v-.15c0 .075 0 .075.075.15h.076c0-.075 0-.15.075-.15h-.075v-.076l.602-.527-.151.15c.075-.15.075-.15.151-.074Zm-.753 1.58.527-.602c0 .15-.075.301-.226.527-.15.226-.301.376-.301.452h-.075v-.15h-.076l-.15.225c-.075 0-.075 0-.075-.075l.225-.226v.15h.076l.075-.3Zm-.753-.903h-.226c0 .15 0 .226.076.226h-.151s0 .075-.075.15c-.075.076-.075.151-.075.226l-.076-.075c-.15.15-.15.226-.15.301v.075h-.075v.076h-.151c0 .075-.075.225-.226.3h.075v.076l-.075-.075s0 .075-.075.075-.075 0-.151.075c0-.075 0-.15.076-.15h.075l.075-.076c0-.075 0-.075-.075-.15h.075v.075c.075-.075.151-.15.151-.226v.076l.301-.377c0-.075.075-.15.226-.3 0-.076.075-.076.15-.151 0-.076 0-.15.075-.226h.226v.075Zm-1.129-.527h.151c0 .075 0 .15-.076.226-.075.075-.075.15-.075.15v-.075c-.075 0-.075.075-.15.15h-.076l-.677.528.677-.828c.076 0 .226-.075.226-.15Zm-.15.753v.075c-.076 0-.151 0-.151.075v-.075l.151-.075Zm1.806 1.129c0 .075 0 .15-.075.226-.075.075-.075.15-.151.226.076 0 .151 0 .226.075h-.15v.226l-.151.15-.15.226h-.076l-.226.226c.076.075.076.075.076.15-.076.076-.151.151-.151.226h-.075v.301h-.075v.15c-.076 0-.076 0-.076.076v.075h-.075s-.075 0-.15.076v.075c.075-.075.075-.075.15-.075 0 .075 0 .15-.075.226-.075.075-.075.075-.075.15h-.151v.075h-.075v.076h-.151v-.302l.151-.225.527-1.28.978-1.129Zm-1.882.15c0 .076-.075.076-.15.151l.15-.15Zm0 1.054-.15.15c0-.074 0-.15.15-.15-.075 0-.075 0 0 0Zm-.301-.075-.075-.15h.075v.15Zm.151.301h-.151c0 .075 0 .15-.075.15h-.075v.076h-.076v-.075c.076 0 .076-.076.151-.15.075-.076.075-.076.226-.151v.15Zm-.075-2.258v.15c-.076.076-.076.076-.151.076s-.075.075-.151.15c0-.075-.225.15-.602.678.151.075.226.15.226.226 0 .075-.075.15-.226.15.076-.075.076-.15.076-.226h-.076v.15h-.075v.151c-.151.151-.301.302-.301.377v.226l-.075.075v.15c.15-.075.301-.075.301-.075v.075h-.076l-.075-.075h-.075a4.398 4.398 0 0 0-.226.527s-.075 0-.075.075c0-.075 0-.075-.075-.15v.15c-.076-.075-.076-.075-.076-.15-.075.075-.075.15-.075.3l.151-.074v.15c-.151 0-.226.075-.302.15l.151-.075s-.075.151-.151.377h-.15v-.076c0-.075.075-.225.15-.451.076-.075.151-.301.151-.602h.151v-.301h.15c0-.226.151-.603.527-1.205 0-.075.075-.226.226-.3v-.151h.376l.301-.377c-.075-.075 0-.075.076-.075Zm3.914 6.7h-.151v-.076l.075-.075c0 .075 0 .15.076.15Zm-.301.075h-.151v-.076l.151.076Zm-.151 0c0 .075-.075.15-.226.225 0-.3.076-.376.226-.226Zm-.301.15-.151.15v-.075c.076-.075.076-.075.151-.075Zm-3.161-3.312-.151.15c-.151.302-.151.452-.151.527.226-.225.302-.451.377-.602h-.075v-.075Zm.301.452h.15c.075.3-.075.527-.226.752 0-.075 0-.15-.075-.15 0 0 .075-.226.151-.602Zm.075-2.033-.226.226v.15c-.15.076-.226.227-.376.377h-.076c-.15.301-.301.452-.301.376v.226l-.15.226v.075l-.151.15c-.075.227-.15.377-.15.377-.226.452-.452.678-.527.678 0 .226.075.3.15.376.076 0 .076 0 .151-.075.075-.301.075-.452.226-.377l.226-.376c.15-.376.225-.602.376-.602 0-.075 0-.075.075-.075.301-.603.527-.979.602-1.13v-.075h.076c0-.075.075-.15.15-.3.075-.151 0-.151-.075-.227Zm-.075 2.86.225-.225c0 .075-.075.527-.15 1.355-.075-.15-.075-.301-.075-.527h-.076v-.602h.076Zm.677 1.506c-.075-.301-.075-.527-.075-.677.15.376.15.602.075.677Zm.301.15c-.15-.15-.15-.225-.075-.225l.075.226Zm.452.753.15.15c-.075 0-.075 0-.15.076l-.075-.075c-.151 0-.302-.075-.527-.075-.076.075-.226.075-.452.226 0-.076 0-.151.075-.226.076-.076.076-.15.076-.226h.15v.075c.075.075.151.075.301.075h.452Zm-1.882-.903-.602-.677v-.226h.075v.075h.075c0 .075 0 .075.076.075h.075v.076h.075c0 .075.075.15.151.226 0 .376.075.451.075.451Zm-.979 0-.15-.15c-.452-.151-.602-.527-.602-1.054h.075c0 .075 0 .075.075.226.076.075.076.15.076.225-.076.076-.076.15 0 .226.075-.075.075-.075.075-.15v.075l.15.15c0 .076 0 .151.076.151 0-.15 0-.226-.076-.376v.075h.076v.075h.075v.076c-.075 0 0 .15.15.451Zm6.248-7.979a.8.8 0 0 0-.376.226c-.076.075-.151.15-.226.15 0-.075.075-.15.15-.225v-.15h.151c-.226 0-.075-.076.301-.151v.15Zm-.602.527-.151.15-.15.226h-.075c0-.075.075-.225.225-.376h.151Zm-5.119 8.205c-.301-.15-.376-.226-.451-.377 0 0 .075 0 .15-.15.076.226.226.376.301.527Z"/><path fill="#B8B8B6" fill-rule="evenodd" d="M112.072 84.455v4.667l33.345-2.108-33.345-2.559Zm-30.26 0v4.667l-29.507-2.108 29.507-2.559Zm3.386 2.409 11.893-6.022 11.592 6.097-11.743 6.549s-11.968-6.85-11.742-6.624Z" clip-rule="evenodd"/><path fill="#B8B8B6" fill-rule="evenodd" d="m96.94 83.477 1.054 2.634 2.785.226-2.183 1.806.753 2.71-2.409-1.505-2.408 1.505.677-2.785-2.107-1.731 2.785-.226 1.053-2.634Z" clip-rule="evenodd"/></svg>