<svg xmlns="http://www.w3.org/2000/svg" width="60" height="60" fill="none"><path fill="#FFD910" d="m49.844 39.6-13.733 5.676 2.297 5.544 13.733-5.616a3.048 3.048 0 0 0 1.66-1.627 3.005 3.005 0 0 0-.64-3.3 3.048 3.048 0 0 0-2.149-.9c-.4-.002-.797.073-1.168.223ZM13.673 1.884a2.394 2.394 0 0 0-.182-.348l-.096-.192a3.456 3.456 0 0 0-.266-.324l-.11-.132A3.043 3.043 0 0 0 9.744.216L1.899 3.36a3.011 3.011 0 0 0-1.61 1.61 2.98 2.98 0 0 0-.014 2.267 3.01 3.01 0 0 0 1.588 1.63 3.043 3.043 0 0 0 2.283.061L9.212 6.9 21.76 37.356c.33.7.919 1.248 1.644 1.529a3.056 3.056 0 0 0 2.254-.018c.72-.293 1.3-.85 1.619-1.556a2.992 2.992 0 0 0 .092-2.235L13.673 1.884ZM59.66 26.688l-6.238-15.072a4.481 4.481 0 0 0-2.428-2.395 4.528 4.528 0 0 0-3.423-.005L29.014 16.8a4.476 4.476 0 0 0-1.452.964 4.438 4.438 0 0 0-1.309 3.144c0 .583.117 1.161.343 1.7l6.238 15.072a4.469 4.469 0 0 0 2.427 2.4c1.096.45 2.328.45 3.425 0l18.545-7.56a4.487 4.487 0 0 0 1.46-.966 4.45 4.45 0 0 0 1.316-3.158 4.423 4.423 0 0 0-.346-1.708Zm-7.133 1.2-13.77 5.64a1.01 1.01 0 0 1-1.33-.552l-4.28-10.332a1.023 1.023 0 0 1 .557-1.32l13.77-5.616a1.02 1.02 0 0 1 1.33.552l4.28 10.332a1.014 1.014 0 0 1-.557 1.332v-.036Z"/><path fill="#fff" d="M30.224 48c.597 0 1.182.176 1.679.506.497.33.884.798 1.113 1.346a2.979 2.979 0 0 1-.655 3.27 3.044 3.044 0 0 1-3.294.65 3.017 3.017 0 0 1-1.356-1.105 2.984 2.984 0 0 1 .376-3.788A3.034 3.034 0 0 1 30.224 48Zm0-6a9.115 9.115 0 0 0-5.038 1.517 9.014 9.014 0 0 0-3.34 4.039 8.938 8.938 0 0 0-.515 5.2 8.98 8.98 0 0 0 2.481 4.608 9.09 9.09 0 0 0 4.643 2.463 9.13 9.13 0 0 0 5.239-.512A9.053 9.053 0 0 0 37.763 56a8.953 8.953 0 0 0 1.528-5 8.967 8.967 0 0 0-2.656-6.364A9.102 9.102 0 0 0 30.224 42Z"/></svg>