<svg xmlns="http://www.w3.org/2000/svg" width="133" height="46" fill="none"><path fill="#192330" d="M69.156 19.47h-5.184v-3.6c0-.6-.312-.9-.936-.9H61.56c-.648 0-.972.3-.972.9v14.04c0 .335.072.575.216.72.144.12.396.18.756.18h1.476c.336 0 .576-.06.72-.18.144-.145.216-.385.216-.72v-3.493h5.184v3.96c0 2.64-1.524 3.96-4.572 3.96h-4.608c-3.024 0-4.536-1.32-4.536-3.96V15.401c0-2.64 1.512-3.96 4.536-3.96h4.608c3.048 0 4.572 1.32 4.572 3.96v4.068Zm7.783 6.3v8.567h-5.112V11.441h9.432c3.024 0 4.536 1.32 4.536 3.96v6.408c0 2.112-.96 3.384-2.88 3.816l4.032 8.712h-5.508l-3.6-8.568h-.9Zm0-10.549v6.912h2.772c.336 0 .576-.06.72-.18.144-.144.216-.372.216-.684v-5.148c0-.6-.312-.9-.936-.9h-2.772ZM93.85 30.557h7.344v3.78H88.702V11.441h12.204v3.78H93.85v5.58h6.012v3.78H93.85v5.976Zm21.679-19.116v3.78h-4.212v19.116h-5.148V15.221h-4.176v-3.78h13.536Zm6.218 0h4.824c3.024 0 4.536 1.32 4.536 3.96v14.94c0 2.664-1.512 3.996-4.536 3.996h-4.824c-3.048 0-4.572-1.332-4.572-3.996v-14.94c0-2.64 1.524-3.96 4.572-3.96Zm4.212 18.216V16.121c0-.6-.312-.9-.936-.9h-1.728c-.648 0-.972.3-.972.9v13.536c0 .6.324.9.972.9h1.728c.624 0 .936-.3.936-.9Z"/><path fill="#FFD910" d="M45 24.805C45 30.435 40.488 35 34.921 35c-5.566 0-10.079-4.564-10.079-10.195 0-5.63 4.513-10.195 10.08-10.195C40.487 14.61 45 19.174 45 24.805Z"/><path fill="#192330" fill-rule="evenodd" d="M34.921 31C38.235 31 41 28.27 41 24.805c0-3.465-2.765-6.195-6.079-6.195-3.314 0-6.079 2.73-6.079 6.195 0 3.465 2.765 6.195 6.08 6.195Zm0 4C40.488 35 45 30.436 45 24.805c0-5.63-4.512-10.195-10.079-10.195-5.566 0-10.079 4.564-10.079 10.195 0 5.63 4.513 10.195 10.08 10.195Z" clip-rule="evenodd"/><path fill="#FFD910" d="M20.158 24.805c0 5.63-4.513 10.195-10.08 10.195C4.513 35 0 30.436 0 24.805c0-5.63 4.512-10.195 10.079-10.195 5.566 0 10.079 4.564 10.079 10.195Z"/><path fill="#192330" fill-rule="evenodd" d="M10.079 31c3.314 0 6.079-2.73 6.079-6.195 0-3.465-2.765-6.195-6.08-6.195C6.766 18.61 4 21.34 4 24.805 4 28.27 6.765 31 10.079 31Zm0 4c5.566 0 10.079-4.564 10.079-10.195 0-5.63-4.513-10.195-10.08-10.195C4.513 14.61 0 19.174 0 24.805 0 30.435 4.512 35 10.079 35Z" clip-rule="evenodd"/><path fill="#192330" fill-rule="evenodd" d="M17.108 13.765c.062-.047.138-.1.23-.156.869-.54 2.497-1.052 4.6-1.102 4.117-.096 9.547 1.593 13.448 7.447a2 2 0 0 0 3.329-2.218c-4.758-7.14-11.567-9.352-16.87-9.228-2.606.062-4.983.69-6.615 1.701-.799.495-1.61 1.202-2.037 2.17-.49 1.11-.366 2.34.395 3.357 1.876 2.506 3.137 4.274 3.948 5.527.172.267.32.505.448.717l-9.034.614a2 2 0 1 0 .27 3.99l9.662-.656.146-.032c.178-.04.353-.064.598-.1l.069-.01.018-.002c.228-.033.613-.088.977-.204.378-.121 1.038-.4 1.489-1.096.468-.722.455-1.49.352-2.034-.18-.954-.807-2.077-1.636-3.359-.838-1.295-2.068-3.021-3.787-5.326Zm18.747-4.529c-.582-.216-1.729-.379-3.813-.046a2 2 0 0 1-.63-3.95c2.423-.387 4.346-.307 5.834.245 1.584.587 2.55 1.668 3.005 2.909.418 1.144.347 2.268.227 3a7.556 7.556 0 0 1-.342 1.317l-.012.031-.005.012-.002.005v.003c-.001 0-.002.002-1.86-.737l1.858.739a2 2 0 0 1-3.722-1.463l.004-.01a3.526 3.526 0 0 0 .134-.542c.064-.395.05-.743-.037-.98-.051-.142-.154-.354-.639-.533Zm.543 2.052Z" clip-rule="evenodd"/></svg>