<svg xmlns="http://www.w3.org/2000/svg" width="194" height="147" fill="none"><path fill="#B8B8B6" fill-opacity=".12" d="m179.712 128.667-3.617-1.934c-8.83-4.878-40.786-12.53-41.122-12.615l-3.701-.925 3.112-2.186 9.251-6.391 5.97-21.108.505-1.682 1.682.504c4.877 1.43 36.834 14.97 38.263 15.558l3.532 1.514-3.448 1.598-16.146 7.652 4.625 16.063 1.094 3.952Z"/><path fill="#B8B8B6" fill-opacity=".12" d="m151.373 84.012-6.139 21.697-9.755 6.728s32.376 7.736 41.543 12.782l-5.046-17.408 17.492-8.325c-.084 0-33.302-14.044-38.095-15.474ZM13.876 128.668l3.616-1.935c8.83-4.877 40.786-12.53 41.123-12.614l3.7-.925-3.112-2.187-9.25-6.391-5.97-21.108-.505-1.682-1.682.505C36.918 83.76 4.962 97.3 3.532 97.888L0 99.402 3.448 101l16.146 7.653-4.625 16.062-1.093 3.953Z"/><path fill="#B8B8B6" fill-opacity=".12" d="m42.216 84.012 6.14 21.697 9.755 6.728s-32.377 7.736-41.544 12.782l5.046-17.408-17.408-8.325S37.34 85.442 42.216 84.012Z"/><path stroke="#B8B8B6" stroke-width="2" d="M156.093 45.815v54.627c-.57 5.296-3.588 9.642-6.552 12.708a34.084 34.084 0 0 1-4 3.527c-.536.403-.979.709-1.284.912-.153.102-.272.178-.35.228l-.088.055-.021.012-.003.003h-.001l-.009.005-33.282 20.507c-6.698 3.705-13.296 3.53-18.26 2.411a31.286 31.286 0 0 1-5.987-2.008 25.33 25.33 0 0 1-1.659-.824 16.17 16.17 0 0 1-.426-.24l-.104-.062-.023-.015-.004-.002v-.001l-.01-.006-.011-.006-34.06-20.183-.004-.003c-4.45-2.606-7.152-6.404-8.746-9.582a26.43 26.43 0 0 1-1.624-4.028 20.117 20.117 0 0 1-.401-1.51.139.139 0 0 1-.003-.011V44.587c0-.004.002-.008.003-.011.014-.07.038-.175.07-.314.068-.277.174-.686.331-1.196a26.39 26.39 0 0 1 1.624-4.028c1.594-3.178 4.296-6.976 8.746-9.582l.003-.002L84.017 9.355l.012-.007.01-.006h.001l.004-.003.023-.015.104-.062c.094-.055.237-.137.426-.24.378-.207.94-.497 1.659-.824a31.24 31.24 0 0 1 5.987-2.008c4.964-1.119 11.563-1.294 18.262 2.411l33.367 20.424.006.004h.001l.004.003.02.012.088.055c.078.05.197.126.35.228.305.203.748.51 1.284.912a34.086 34.086 0 0 1 4 3.527c2.84 2.938 5.73 7.05 6.468 12.049Z"/><path fill="#EDEDED" d="m35.153 111.764-.42-1.598-7.906-28.004-.42-1.598 1.514-.504c21.444-7.064 44.654-10.596 69.042-10.596 39.693 0 69.127 9.67 69.463 9.755l1.514.505-.421 1.597-7.905 28.004-.42 1.598-1.598-.42c-16.903-4.121-35.656-6.139-55.671-6.139-36.414 0-64.838 6.98-65.174 7.064l-1.598.336Z"/><path fill="#B8B8B6" d="m28.425 81.657 7.905 28.004s61.726-15.305 121.686-.841l7.905-28.004c-.084 0-67.024-22.285-137.496.841Z"/><path fill="#E0E2D2" d="M51.13 113.866c-.083-.42.085-.841.505-.925 0 0 1.514-.42 4.373-1.009.42-.084.757.168.841.589.085.42-.168.756-.588.841-2.86.588-4.205 1.009-4.205 1.009h-.252c-.253.084-.505-.168-.673-.505Zm89.899-.084c-.504-.084-.925-.168-1.429-.252-.421-.084-.673-.421-.589-.841.084-.421.42-.673.841-.589.504.084.925.168 1.43.252.42.085.672.421.588.841-.084.337-.336.589-.757.589 0 .084 0 .084-.084 0Zm-5.718-.841c-1.514-.252-2.944-.42-4.373-.589-.421-.084-.673-.42-.589-.841.084-.42.421-.672.841-.672 1.43.168 2.943.42 4.373.588.421.084.673.421.589.841-.084.337-.337.589-.757.589 0 .084-.084.084-.084.084Zm-75.518-1.009c-.084-.421.168-.757.588-.841 1.346-.252 2.776-.421 4.373-.673.42-.084.757.252.841.589.085.42-.252.757-.588.841-1.598.252-3.028.42-4.373.673h-.084c-.42.084-.673-.169-.757-.589Zm66.772-.084c-1.514-.168-2.944-.337-4.373-.505-.421 0-.673-.42-.673-.841.084-.42.421-.672.841-.672 1.43.168 2.943.336 4.373.504.42.084.673.421.673.841-.084.336-.421.673-.841.673Zm-58.026-1.178c0-.42.252-.756.672-.84 1.43-.169 2.86-.337 4.457-.421.421 0 .757.252.757.673 0 .42-.252.757-.672.841-1.514.168-3.028.336-4.373.42h-.084c-.42 0-.673-.336-.757-.673Zm49.196.253c-1.514-.168-2.944-.253-4.373-.337-.421 0-.673-.42-.673-.756 0-.421.42-.673.757-.673 1.429.084 2.943.252 4.457.336.42 0 .673.421.673.841-.084.336-.337.589-.841.589.084 0 .084 0 0 0Zm-40.366-1.093c0-.421.252-.757.672-.757 1.43-.084 2.944-.169 4.458-.253.42 0 .757.337.757.673 0 .421-.337.757-.673.757-1.514.084-2.944.168-4.373.252h-.084c-.42 0-.757-.336-.757-.672Zm31.62.504c-1.514-.084-2.944-.168-4.373-.168-.421 0-.757-.336-.673-.757 0-.42.336-.757.757-.673 1.43.084 2.943.084 4.457.253.42 0 .673.336.673.756-.084.253-.421.589-.841.589Zm-22.79-1.009c0-.421.336-.757.673-.757 1.43-.084 2.943-.084 4.457-.084.42 0 .757.336.757.757 0 .42-.337.757-.757.757-1.514 0-2.944.084-4.373.084a.754.754 0 0 1-.757-.757Zm13.96.673c-1.514 0-2.944-.084-4.373-.084a.754.754 0 0 1-.757-.757c0-.421.336-.757.757-.757 1.43 0 2.943 0 4.457.084.42 0 .757.336.757.757-.084.42-.421.757-.841.757Z"/><path fill="#C6C6C5" d="M58.11 57.438c.252-1.85.42-4.29.42-7.064 0-2.775-.168-5.046-.42-6.896-.252-1.766-.589-3.112-1.178-3.869-1.009-1.513-2.943-1.597-5.802-.252-2.86 1.346-4.71 3.28-5.719 5.382-.504 1.01-.925 2.355-1.177 3.953a35.872 35.872 0 0 0-.42 5.634c0 2.018.084 3.785.336 5.13.252 1.346.589 2.439 1.093 3.196 1.01 1.597 2.944 2.439 5.803 2.27 1.261-.084 2.018-.252 2.438-.672.925 1.177 1.935 2.438 2.86 3.7a115.102 115.102 0 0 0 2.943-3.28c-1.43-1.934-2.27-2.943-2.355-3.027.59-1.01.925-2.355 1.178-4.205Zm-5.13 1.43c-.336 1.26-.925 1.85-1.766 2.018-.841.084-1.43-.42-1.766-1.514-.337-1.093-.505-3.28-.505-6.644 0-1.681.084-3.195.084-4.373.084-1.177.253-2.102.42-2.775.337-1.177.842-2.018 1.767-2.354.925-.337 1.43 0 1.766 1.009.168.504.252 1.43.336 2.607.084 1.177.168 2.775.168 4.625-.084 3.7-.252 6.139-.504 7.4Zm17.828-15.642v10.848c0 1.85-.168 3.196-.42 3.868-.253.757-.757 1.094-1.514 1.178-.757.084-1.261-.253-1.514-.841-.336-.673-.504-1.935-.504-3.869V33.555c-1.682.504-3.28 1.009-4.878 1.681v18.67c0 3.868.589 6.56 1.682 8.073 1.01 1.43 2.775 2.102 5.214 2.018 2.355-.084 4.12-1.009 5.214-2.859 1.093-1.85 1.682-4.794 1.682-8.914V31.2c-1.682.42-3.28.84-4.962 1.177v10.849Zm18.754-14.128c-2.103.252-4.205.42-6.224.672-.925 5.719-1.765 11.353-2.606 16.903-.841 5.55-1.766 11.017-2.608 16.483 1.683 0 3.364-.084 5.046-.084.253-2.102.589-4.205.925-6.307 1.598-.084 3.112-.084 4.71-.168.336 2.102.588 4.205.925 6.307h5.045c-.84-5.634-1.766-11.269-2.607-16.903-.84-5.635-1.766-11.27-2.606-16.903ZM84.6 50.626c.336-2.439.589-4.877.925-7.316.336-2.44.589-4.962.925-7.4.252 2.438.589 4.877.841 7.316.252 2.438.589 4.877.84 7.316-1.176-.084-2.354 0-3.531.084Zm17.576-7.905V29.013c-1.682-.084-3.28-.084-4.962-.168V62.82c3.953 0 7.905.084 11.858.084v-6.475c-2.355-.085-4.625-.169-6.98-.169.084-4.372.084-8.998.084-13.539Zm9.839 3.953v16.482c1.682 0 3.28.084 4.878.084V31.116c-1.598-.337-3.28-.589-4.878-.925v16.482Zm7.485-8.662c1.429.252 2.859.588 4.373.925v24.556c1.597.084 3.279.168 4.877.168V40.282c1.43.42 2.859.841 4.373 1.346v-5.55a141.321 141.321 0 0 0-13.623-4.29v6.224Zm25.144 3.195c-.42 1.262-.841 2.607-1.261 3.869-.421 1.345-.841 2.775-1.262 4.12h-.084c-.42-1.681-.757-3.363-1.177-5.13-.421-1.766-.757-3.532-1.177-5.297a152.334 152.334 0 0 0-5.467-2.355c.925 3.111 1.766 6.139 2.691 9.082.926 2.944 1.766 5.803 2.692 8.578v9.923c1.597.084 3.279.168 4.961.252v-9.082c.841-2.102 1.766-4.12 2.691-6.055.841-1.85 1.766-3.616 2.691-5.298-1.682-.757-3.532-1.682-5.298-2.607Z"/><path fill="#fff" d="m52.98 92.086-7.232 1.261.42 2.355.926-.168.672 3.7-4.709.841-.673-3.7.925-.169-1.597-9.25-.926.168-.672-3.616 10.932-1.934c1.766-.337 2.86.672 3.28 3.027l.673 4.037c.336 2.018-.337 3.195-2.019 3.448Zm-1.597-5.887c-.085-.589-.505-.757-1.178-.673l-5.634 1.01.589 3.363 5.718-1.009c.673-.084.925-.505.757-1.093l-.252-1.598Zm16.987 3.7 2.27 2.439 1.01-.084.336 3.616-5.719.589-.42-3.616.925-.085-2.102-2.27-3.028.336.253 2.355.925-.084.42 3.784-4.793.505-.42-3.785 1.008-.084-1.009-9.334-.925.084-.42-3.7 11.016-1.178c1.766-.168 2.775.925 3.028 3.28l.42 4.12c.168 2.019-.589 3.112-2.523 3.28l-.252-.168Zm-.505-5.97c-.084-.59-.42-.841-1.093-.757l-5.718.588.336 3.448 5.803-.588c.588-.085.925-.421.84-1.01l-.168-1.682Zm17.24.42-.168-2.523-6.812.336.168 3.196 5.635-.252.168 3.7-5.635.252.169 2.44 6.727-.337-.084-2.27 3.028-.17.336 5.972-13.708.757-.168-3.7 1.01-.085-.505-9.419-1.01.085-.168-3.7 13.708-.757.336 6.223-3.027.252Zm17.996 10.596v-3.7h.841v-6.392l-3.868 10.092h-1.682L94.44 84.517v6.98h.925v3.448h-4.71v-3.364h.841v-9.335h-.672v-4.204h4.457l4.036 10.68 4.037-10.764h4.373v4.204h-.841v8.915h.841v3.784h-4.626v.084Zm7.149.168.168-3.784 1.093.084.505-9.419-1.094-.084.169-3.7 5.045.252-.168 3.784-1.009-.084-.505 9.335 1.01.084-.169 3.784-5.045-.252Zm21.696-11.185-1.009 9.587c-.252 2.27-1.093 3.28-2.523 3.112l-7.316-.757c-1.43-.168-2.018-1.346-1.766-3.616l1.009-9.755-.925-.084.421-3.7 4.877.504-.42 3.7-1.01-.084-.925 8.326c-.084.672.169 1.009.673 1.009l4.205.42c.505.084.841-.168.925-.757l.925-8.493-1.093-.084.42-3.785 5.13.505-.42 3.868-1.178.084Zm14.044 15.138.505-3.616.841.084.925-6.392-5.214 9.503-1.682-.252-2.439-10.849-.925 6.896.925.169-.504 3.448-4.71-.673.505-3.364.841.084 1.261-9.25-.588-.085.588-4.204 4.373.672 2.523 11.185 5.466-10.091 4.373.588-.588 4.205-.841-.084-1.262 8.83.841.084-.504 3.7-4.71-.588Z"/><path fill="#C6C6C5" d="M76.863 115.212a3.93 3.93 0 0 0-1.43.252c-.336.084-.588.336-.84.588-.253.253-.421.589-.59.926-.167.42-.252 1.009-.252 1.681 0 1.01.253 1.851.841 2.439.59.589 1.346.841 2.271.841.925 0 1.682-.252 2.27-.925.59-.589.842-1.429.842-2.439 0-1.093-.253-1.85-.841-2.523-.59-.588-1.346-.84-2.271-.84Zm1.261 5.045c-.336.421-.756.589-1.261.589-.505 0-.925-.168-1.261-.589-.337-.336-.505-.925-.505-1.682 0-.756.168-1.345.505-1.682.336-.336.756-.588 1.345-.588.505 0 1.01.168 1.346.588.336.337.504.926.504 1.682-.168.757-.336 1.262-.673 1.682Zm7.737-.757c-.168-.168-.42-.336-.672-.504.588-.084 1.009-.252 1.26-.589.253-.336.421-.757.421-1.177 0-.421-.084-.757-.252-1.009-.168-.253-.42-.505-.757-.589a6.272 6.272 0 0 0-1.514-.168h-2.775v6.475h1.346v-2.691h.252c.337 0 .505 0 .673.084.168.084.252.168.42.253.084.168.337.42.673.925l.925 1.429h1.598l-.757-1.261c-.42-.673-.673-1.009-.84-1.178Zm-2.018-1.429h-1.01v-1.682h1.935c.252 0 .336.084.505.252.084.168.168.337.168.505 0 .168-.084.336-.168.504-.084.169-.253.253-.337.253-.084.168-.504.168-1.093.168Zm4.71 3.784h1.345v-6.475h-1.346v6.475Zm6.138-2.439h1.514v.841c-.168.168-.42.253-.673.421-.252.084-.588.168-.84.168-.59 0-1.01-.168-1.346-.589-.337-.42-.505-.925-.505-1.766 0-.757.168-1.261.505-1.598.336-.336.757-.588 1.345-.588.42 0 .673.084.925.252.253.168.42.421.505.757l1.261-.252c-.168-.589-.42-1.094-.84-1.43-.421-.336-1.094-.505-1.935-.505-.588 0-1.177.085-1.513.337a2.473 2.473 0 0 0-1.262 1.177 3.91 3.91 0 0 0-.42 1.766c0 .589.084 1.178.42 1.766.252.505.673.925 1.093 1.262.505.252 1.094.42 1.766.42.505 0 1.094-.084 1.598-.336.505-.168.925-.421 1.177-.673v-2.607h-2.859v1.177h.084Zm4.457 2.439h1.346v-6.475h-1.346v6.475Zm7.064-2.186-2.691-4.373h-1.261v6.475h1.261v-4.205l2.607 4.205h1.346v-6.475h-1.177v4.373h-.085Zm4.962-4.373-2.523 6.475h1.346l.504-1.514h2.607l.589 1.514h1.43l-2.607-6.475h-1.346Zm-.252 3.952.925-2.439.925 2.439h-1.85Zm6.812 1.43v-5.382h-1.346v6.475h4.625v-1.093h-3.279Z"/></svg>