<svg xmlns="http://www.w3.org/2000/svg" width="148" height="147" fill="none"><path fill="#B8B8B6" fill-opacity=".1" fill-rule="evenodd" d="m65.564 2.66.415-.167.333-.25.332-.249.332-.166.416-.166.332-.166.416-.166.332-.167.416-.166.415-.166.416-.083.498-.166.416-.083.415-.167.499-.083.415-.083.499-.083h.499L73.458 0h1.579l.499.083h.498l.416.166.498.083.499.25.415.083.499.166.415.25.333.165.415.25.333.249.332.166.416.25.332.249.332.166.333.25.249.249.332.249.333.166.25.25.331.166.333.249.332.25.25.165.415.167.25.249.332.25.332.165.333.25.249.083.166.083.166.083.25.166.166.083h.166l.166.083.166.083.083.083h.333l.083.084h.166l.083.083h.249l.167.083h.997l.249-.083h.332l.25-.083.249-.083h.499l.249-.084.332-.083.333-.083h.249l.332-.083.333-.083.332-.083h.332l.333-.083.415-.083.25-.083h.748l.415-.083.416-.084h1.163l.415-.083h1.745l.416.083h.415l.416.084.498.083h.416l.499.166.415.083.499.166.498.083.499.25.498.166.416.166.415.25.416.248.415.25.416.332.332.25.333.249.332.332.332.333.25.249.332.415.249.25.25.332.166.332.249.333.249.332.167.332.166.25.166.415.166.25.25.332.166.332.166.25.166.332.249.332.167.25.083.332.249.332.166.25.249.332.167.25.166.332.166.25.249.248.167.25.166.25.166.165.166.167.166.166.083.166.25.083.083.166.166.083.166.083.083.083.166.084.167.166h.166l.166.166h.166l.25.083.249.166h.166l.249.083.25.166h.249l.332.084.333.166h.249l.415.166.333.083.415.083.416.083.249.083h.249l.333.167h.249l.332.083.25.083.249.083.332.083.333.166h.249l.333.166.332.084.332.083.25.083.332.166.332.166.25.166.332.083.332.166.333.167.332.166.25.166.332.166.415.25.25.249.332.25.332.165.25.25.332.249.333.25.249.249.332.332.333.332.415.499.333.332.249.499.249.415.249.416.25.415.166.499.249.415.083.499.083.415.167.416.083.415.083.416.083.415.083.499v.332l.083.416.083.415v.416l.083.332v.831l.083.333.083.332v.416l.084.332v.415l.083.416.083.332v.416l.083.332.166.499.083.415.166.333v.332l.166.25.084.249.166.166.083.25.166.165.166.166.166.25.167.249.332.25.249.249.333.332.415.25.25.166.249.249.249.166.249.25.25.166.249.166.332.249.25.166.332.25.249.249.333.249.249.25.332.249.25.249.332.25.332.332.25.249.249.25.332.332.333.332.249.332.249.416.333.332.249.333.249.415.333.333.249.415.166.499.25.415.249.416.166.498.249.499.167.498.083.499.166.582.083.498.083.499v1.995l-.083.498v.415l-.166.416-.083.415-.083.416-.084.498-.166.333-.083.415-.166.416-.083.415-.166.332-.083.416-.167.332-.083.333-.166.415-.083.333-.166.415v.332l-.166.416-.084.415-.083.333-.166.415v.416l-.083.166v.25l-.083.165v.25l-.083.166v1.163l.083.166v.084l.083.166v.083l.083.166v.249l.083.167.083.166.083.166v.166l.084.166.166.167v.249l.166.166.083.25.166.249.083.249.167.25.083.249.332.581.083.25.249.249.084.332.166.333.166.249.166.332.083.333.25.249.083.415.166.333.166.332.166.333.083.332.167.332.083.416.166.332.083.416.166.415.083.416.083.415.083.416.083.498.084.416v.415l.083.416v2.409l-.083.5-.167.415v.498l-.166.499-.166.415-.166.499-.166.415-.25.333-.166.415-.249.416-.249.249-.167.415-.249.333-.249.25-.25.332-.249.332-.249.25-.249.332-.167.249-.249.25-.249.332-.25.249-.249.166-.249.332-.249.25-.25.25-.249.248-.249.333-.25.25-.249.248-.166.25-.166.249-.25.25-.166.165-.166.25-.083.249-.166.166-.166.25-.083.166-.084.166-.083.166-.083.166-.083.166v.084l-.083.166-.083.166v.166l-.083.166v.499l-.083.166v.332l-.083.25v1.579l.083.332v.665l.083.665v1.246l.083.332v2.493l-.083.333v.831l-.083.415-.083.416-.083.332v.416l-.084.415-.083.416-.166.415-.083.416-.166.415-.166.416-.167.415-.166.415-.166.416-.249.415-.25.416-.249.499-.332.415-.166.332-.333.416-.332.249-.333.416-.332.249-.332.249-.333.25-.415.249-.333.249-.249.249-.415.167-.333.249-.332.166-.416.083-.332.166-.332.25-.333.083-.332.166-.249.166-.416.083-.332.166-.25.084-.415.166-.249.166-.333.083-.332.166-.25.166-.415.167-.249.083-.333.166-.332.166-.249.166-.25.167-.249.166-.249.166-.166.166-.167.083-.166.166-.249.167-.083.166-.083.083-.167.166-.083.166-.166.083-.083.25-.166.166-.083.166-.166.166-.083.166-.167.25v.249l-.166.249-.083.25-.166.332-.166.332-.167.25-.083.415-.166.249-.166.416-.083.415-.166.416-.083.249-.167.25-.083.249-.166.249v.332l-.166.167-.083.249-.166.332-.084.25-.166.332-.083.249-.166.25-.166.249-.166.332-.167.25-.166.332-.166.249-.166.25-.166.332-.25.249-.249.333-.166.249-.249.249-.25.25-.166.332-.249.249-.249.25-.25.332-.332.166-.249.249-.333.25-.249.332-.416.249-.332.25-.416.249-.415.166-.332.249-.416.167-.415.166-.416.083-.332.166-.416.083-.415.083-.333.083-.415.083h-.332l-.416.084h-.332l-.416.083h-3.324l-.332-.083h-1.662l-.332.083h-1.33l-.166.083h-.25l-.249.083h-.498l-.167.083-.166.083-.166.083h-.166l-.249.083-.084.083-.166.083-.166.084-.25.166h-.082l-.167.166-.249.083-.25.166-.165.166-.166.167-.25.166-.25.249-.248.249-.25.167-.249.249-.25.249-.166.25-.166.166-.249.249-.166.249-.25.166-.249.25-.249.249-.25.249-.249.25-.249.249-.25.166-.332.249-.166.25-.332.249-.25.249-.332.25-.25.166-.332.249-.332.166-.332.25-.333.166-.332.249-.416.166-.332.166-.415.25-.333.166-.415.166-.416.166-.415.167-.416.083-.415.166-.499.166-.582.083-.498.083-.416.083-.581.083h-.499l-.499-.083h-.415l-.499-.083-.415-.083-.499-.083-.332-.166-.499-.083-.415-.083-.332-.25-.416-.083-.332-.166-.333-.166-.415-.166-.333-.167-.415-.166-.25-.083-.415-.166-.25-.249-.332-.083-.415-.167-.25-.249-.415-.083-.25-.166-.415-.166-.332-.084-.332-.166-.333-.166-.25-.083-.248-.083-.25-.083-.249-.083h-.25l-.165-.083-.167-.083h-.581l-.166-.084h-.999l-.166.084h-.414l-.25.083-.249.083h-.166l-.25.083-.249.083-.249.083-.25.083-.249.166h-.249l-.332.166-.831.333-.333.083-.332.083-.25.166-.332.083-.332.167-.25.083-.415.083-.25.166-.415.083-.332.083-.333.083-.332.166h-.415l-.333.167-.415.083h-.416l-.332.083-.416.083-.498.083H57.42l-.498-.083-.416-.083-.498-.083-.499-.083-.415-.167-.499-.083-.416-.166-.498-.166-.415-.249-.416-.25-.332-.166-.416-.249-.332-.249-.416-.25-.25-.249-.331-.332-.333-.25-.25-.332-.248-.249-.25-.25-.249-.332-.25-.249-.249-.333-.249-.249-.25-.249-.165-.25-.25-.332-.249-.249-.166-.25-.25-.249-.249-.249-.249-.249-.166-.25-.25-.332-.249-.249-.25-.25-.248-.166-.167-.249-.249-.166-.166-.167-.166-.166-.167-.083-.166-.166-.249-.083-.083-.166-.166-.083-.166-.084-.084-.083-.166-.083h-.166l-.083-.083-.166-.083-.166-.083h-.167l-.166-.083-.166-.083h-.416l-.166-.083h-.249l-.25-.083-.249-.084h-1.246l-.332-.083h-.582l-.333-.083h-.581l-.416-.083H36.48l-.25-.083-.415-.083h-.332l-.416-.083h-.332l-.416-.083-.332-.083-.333-.083-.498-.167h-.332l-.333-.166-.498-.083-.333-.166-.332-.166-.416-.166-.415-.167-.416-.166-.415-.249-.416-.166-.332-.25-.416-.249-.415-.249-.416-.333-.332-.249-.415-.332-.25-.333-.332-.249-.332-.415-.25-.25-.25-.415-.248-.333-.167-.332-.166-.332-.166-.416-.166-.332-.25-.333-.082-.332-.167-.416-.083-.249-.166-.415-.083-.333-.083-.332-.083-.333-.167-.332v-.332l-.166-.25-.166-.747-.083-.25-.083-.332-.083-.333-.166-.332v-.332l-.167-.25-.083-.332-.083-.332-.166-.333-.083-.166-.083-.249-.083-.25-.083-.249-.084-.249-.083-.166-.166-.167v-.166l-.166-.166v-.166l-.166-.083-.083-.166-.083-.084-.083-.166-.083-.083-.167-.166-.083-.083-.166-.166-.083-.083-.166-.167-.083-.083-.167-.166-.249-.083-.166-.083-.166-.166-.25-.083-.166-.167-.332-.166-.25-.166-.332-.166-.166-.166-.332-.083-.333-.25-.332-.083-.25-.166-.249-.166-.415-.166-.25-.167-.332-.166-.332-.249-.25-.166-.415-.166-.25-.167-.415-.249-.332-.166-.333-.249-.332-.25-.332-.249-.333-.249-.332-.333-.333-.332-.332-.249-.332-.333-.333-.332-.332-.333-.333-.332-.249-.415-.332-.333-.333-.415-.249-.416-.25-.498-.249-.416-.249-.415-.25-.416-.165-.498-.083-.416-.167-.499-.083-.415-.083-.499-.083-.415v-.499l-.083-.415v-.748l.083-.499v-1.08l.083-.415.083-.333v-.415l.083-.333v-.415l.083-.25.084-.415.083-.332v-.666l.083-.415.083-.332v-.665l.083-.415v-.583l.083-.332v-.749l-.083-.165v-.665l-.083-.166v-.333l-.083-.083v-.166l-.083-.166v-.166l-.083-.167-.084-.166-.083-.083v-.166l-.166-.25-.083-.082-.083-.167-.166-.249-.166-.166-.083-.25-.167-.249-.166-.249-.166-.25-.25-.165-.166-.333-.249-.166-.166-.25-.166-.249-.166-.249-.25-.25-.166-.332-.25-.249-.165-.25-.25-.249-.166-.332-.25-.25-.165-.332-.167-.249-.249-.332-.166-.333-.25-.332-.166-.332-.166-.333-.166-.332-.166-.333-.25-.415-.083-.333-.166-.498-.166-.332-.166-.416-.166-.332-.083-.499-.084-.415-.083-.499-.083-.416-.083-.415-.083-.499-.083-.58v-.997l.083-.499.083-.499v-.498l.166-.499.083-.415.167-.499.166-.415.083-.333.25-.415.165-.416.25-.332.166-.416.166-.332.166-.416.25-.249.249-.415.166-.25.25-.332.415-.665.166-.332.166-.332.25-.25.166-.415.25-.25.165-.332.166-.332.167-.333.166-.332.166-.25.083-.249.166-.249.083-.166v-.166l.084-.167.083-.166.083-.25v-.082l.083-.166v-.166l.083-.084v-.332l.083-.083v-.914l-.083-.166v-.333l-.083-.25-.083-.248v-.417l-.083-.25-.083-.331-.084-.25v-.332l-.166-.25-.083-.332v-.332l-.083-.25-.083-.415-.083-.332-.083-.25-.083-.415v-.25l-.083-.415-.167-.332v-.333l-.083-.332-.083-.416v-.415l-.083-.333v-.83l-.083-.333V51.27l.083-.415v-.913l.083-.499.166-.415v-.416l.167-.499.083-.415.166-.499.083-.415.166-.416.25-.415.249-.416.166-.415.25-.333.248-.415.25-.25.25-.415.248-.249.333-.332.25-.25.331-.332.25-.25.332-.249.333-.166.249-.25.25-.165.332-.25.332-.166.25-.25.248-.165.333-.166.25-.167.332-.166.249-.25.25-.165.332-.167.249-.166.332-.166.25-.25.249-.249.25-.166.248-.166.25-.083.166-.25.166-.083.25-.166.082-.166.167-.083.083-.166h.083l.083-.166v-.083l.083-.084.083-.083v-.083l.083-.083v-.083l.083-.083.083-.083v-.332l.084-.084.083-.166.083-.25v-.498l.083-.249.083-.166.083-.333v-.664l.083-.333.083-.332.083-.25v-.581l.083-.331.083-.25v-.415l.084-.25.083-.332.083-.332v-.25l.083-.415.166-.332v-.333l.166-.332.083-.333.167-.332.083-.332.166-.333.083-.332.166-.416.166-.249.166-.416.167-.332.249-.332.166-.333.25-.415.166-.25.249-.415.25-.332.249-.333.249-.332.332-.332.333-.333.332-.25.25-.332.415-.249.332-.332.333-.166.415-.25.332-.166.333-.166.332-.25.416-.083.332-.166.416-.166h.332l.332-.166.333-.083.415-.083.25-.083.415-.084.25-.083.332-.083.332-.083h.332l.665-.083.333-.166h.582l.415-.166h.332l.25-.083.332-.084.332-.083h.25l.249-.083.25-.083.248-.083.167-.083.166-.083.25-.083h.082l.166-.083.167-.083h.083l.083-.083.166-.083v-.084h.166v-.083l.166-.083.084-.083.083-.083.083-.166.083-.083.166-.167.083-.166.166-.166.083-.166.167-.166.166-.25.166-.249.166-.25.25-.332.083-.249.166-.25.25-.248.082-.25.166-.249.167-.332.249-.25.166-.332.166-.25.166-.249.167-.332.249-.332.25-.25.165-.249.25-.332.249-.333.25-.25.249-.248.166-.333.332-.332.25-.25.332-.249.332-.332.333-.333.332-.249.332-.25.333-.248.332-.25.416-.249.415-.25.333-.249.498-.166.416-.25.581-.248.499-.167.498-.166.5-.083.414-.083.5-.083.498-.083h1.412l.416.083h.498l.416.083.415.083h.416l.332.166.499.083h.332l.333.167h.415l.416.083.332.166h.416l.332.083.415.166h.333l.415.083.416.083.332.083h.748l.415.084h1.081l.083-.083h.332l.083-.084.25-.083.166-.083.25-.166.248-.083.333-.25.332-.249.416-.249.249-.166.25-.166.249-.25.249-.166.25-.166.248-.166.333-.25.25-.249.331-.166.25-.166.332-.166.333-.25.249-.166Z" clip-rule="evenodd"/><path fill="#B8B8B6" fill-rule="evenodd" d="m129.467 73.541 8.06-6.73-9.307-4.903 6.565-8.227-10.138-2.908L129.3 41.3l-10.553-.582 2.659-10.221-10.387 1.496.415-10.47-9.805 3.656-1.911-10.387-8.892 5.65-3.905-9.722-7.48 7.312-5.899-8.725-5.817 8.725-7.479-7.312-3.905 9.722-8.892-5.65-1.745 10.387-9.888-3.656.415 10.47-10.387-1.496 2.66 10.221-10.471.665 4.653 9.473-10.22 2.742 6.564 8.227-9.307 4.903 8.06 6.73-8.06 6.648 9.307 4.903-6.565 8.227 10.138 2.908-4.653 9.39 10.47.665-2.659 10.221 10.387-1.496-.332 10.553 9.888-3.656 1.828 10.387 8.892-5.65 3.906 9.805 7.478-7.396 5.817 8.726 5.9-8.726 7.479 7.396 3.905-9.805 8.892 5.65 1.828-10.387 9.722 3.656-.415-10.47 10.387 1.496-2.659-10.221 10.47-.665-4.653-9.39 10.138-2.908-6.565-8.227 9.307-4.903-7.894-6.647Zm-55.842 50.773c-28.087 0-50.939-22.852-50.939-50.939 0-28.17 22.852-50.939 50.94-50.939 28.169 0 50.938 22.852 50.938 50.94 0 28.086-22.769 50.938-50.939 50.938Z" clip-rule="evenodd"/><path fill="#B8B8B6" d="M121.655 73.375c-.083 13.296-5.402 25.179-14.044 33.904-8.725 8.725-20.774 14.043-33.987 14.043v-2.16c12.714 0 24.099-5.152 32.492-13.462 8.226-8.31 13.378-19.777 13.378-32.408 0-12.714-5.152-24.098-13.378-32.491-8.31-8.227-19.778-13.379-32.492-13.379v-2.16c13.296 0 25.262 5.318 33.987 14.043 8.642 8.809 13.961 20.858 14.044 34.07Zm-48.03 47.947c-13.213 0-25.18-5.401-33.904-14.043-8.725-8.725-14.044-20.608-14.044-33.904 0-13.295 5.402-25.261 14.044-33.987 8.725-8.642 20.691-13.96 33.904-13.96v2.16c-12.631 0-24.099 5.152-32.408 13.38-8.31 8.309-13.462 19.776-13.462 32.49 0 12.631 5.152 24.099 13.462 32.408 8.31 8.31 19.777 13.462 32.407 13.462v1.994Z"/><path fill="#C6C6C5" d="M68.888 106.697c0-.083.083-.083.083-.166 0-.166 0-.166-.083-.249v-.083c-.083-.083-.166-.083-.25-.167 0 0-.165 0-.415-.083-.249 0-.581-.083-.83-.166-.25-.083-.582-.166-.832-.249-.332-.083-.415-.166-.415-.166h-.332c-.083.083-.083.083-.083.249v.249c.083.083.083.083.249.083 0 0 .083 0 .166.083h.332c.166.084.25.167.333.25v.332l-.914 3.656a.634.634 0 0 1-.166.416c-.084.083-.167.083-.333 0-.083 0-.166 0-.332-.083l-.166-.083c-.084-.083-.167-.083-.25 0-.083.083-.083.166-.166.166 0 .166 0 .166.083.249.083.083.083.166.25.166 0 .083.083.083.415.167.332 0 .582.083.914.166.25.083.498.166.83.166.25.083.333.166.333.166.166 0 .25 0 .333-.083a.179.179 0 0 0 .166-.166c.083-.083.083-.166 0-.249-.083-.084-.166-.084-.25-.084h-.166c-.083-.083-.249-.083-.332-.083a1.196 1.196 0 0 0-.25-.166c-.082-.166-.082-.249 0-.415l.915-3.657c.083-.166.166-.332.166-.415.166-.083.166-.083.415 0 .084 0 .084.083.25.083l.166.083c-.083.166-.083.166.166.083Zm3.49 1.911c0 .084 0 .167.083.167.084.083.167.083.167.166.166 0 .166-.083.249-.166.083 0 .083-.167.083-.25 0 0 0-.083.083-.083v-.997c0-.166.083-.332.083-.415l.083-.167c0-.083 0-.166-.083-.166-.083-.083-.166-.083-.25-.166a.179.179 0 0 0-.165.166c-.083 0-.083.166-.083.166v.084c-.167-.167-.416-.333-.665-.333a1.567 1.567 0 0 0-.665-.166c-.582-.083-.997.083-1.413.332-.415.333-.581.665-.664 1.164 0 .249 0 .498.083.664.166.167.249.333.415.582.166.166.582.333 1.247.499h.083c.664.166.997.415 1.08.581.166.167.166.416.166.665-.083.333-.166.665-.415.831-.25.083-.582.249-.998.166-.415-.083-.747-.166-.997-.415-.249-.249-.415-.665-.332-.997v-.25c0-.166 0-.332-.083-.415 0-.083-.166-.166-.166-.166-.166 0-.166.083-.25.166-.083.083-.166.083-.166.332v.333c0 .249 0 .498-.083.664 0 .167 0 .333-.083.499 0 .166-.083.332-.083.332 0 .084 0 .167.083.25v.083c.083.083.083.083.25.166.082 0 .166-.083.249-.083.083-.083.083-.166.083-.332v-.167c.166.167.415.333.664.416.167.083.499.166.831.166a1.89 1.89 0 0 0 1.496-.415c.416-.333.665-.665.665-1.33.083-.249 0-.415-.083-.582-.083-.166-.166-.415-.332-.581-.167-.167-.582-.333-1.164-.499-.083 0-.166-.083-.166-.083-.582-.166-.914-.416-1.163-.499a1.562 1.562 0 0 1-.167-.664c.083-.333.166-.582.416-.665.166-.166.415-.249.83-.249.333.083.666.166.832.332.25.166.415.415.415.665v.415c-.083 0-.083.166 0 .249Zm-8.559-.083c-.083-.083-.166-.083-.25 0-.082.083-.165.167-.165.25 0 0-.083.166-.083.332-.084.166-.084.249-.167.416-.083.249-.166.415-.332.498-.166.083-.415.083-.665-.083l-.914-.332c-.166-.083-.332-.083-.332-.25-.083-.083-.083-.249.083-.498l1.163-3.407c.083-.166.083-.333.167-.333.166-.083.249-.083.415 0l.166.167c.083 0 .166.083.166.083.083.083.166.083.25 0 .083-.083.166-.083.166-.167 0-.083 0-.166-.083-.249-.083-.166-.167-.166-.333-.249-.083 0-.249-.083-.581-.166-.25-.083-.499-.083-.665-.167a5.73 5.73 0 0 0-.665-.249c-.25-.166-.415-.166-.415-.166-.167-.083-.25-.083-.333-.083-.083.083-.083.083-.083.249-.083.083-.083.166 0 .249 0 .084.083.167.166.167 0 0 .083.083.166.083.167 0 .25.083.333.083.083.083.25.166.25.249.082.083.082.249 0 .416l-1.247 3.573c0 .166-.166.249-.166.332-.084.083-.25.083-.416 0-.083-.083-.083-.083-.25-.166-.082-.083-.165-.083-.165-.083-.084-.083-.167-.083-.25 0-.083 0-.083 0-.166.083 0 0-.083.083-.083.166-.083.166-.083.166 0 .25 0 .083.083.083.083.083a.258.258 0 0 0 .166.083h.166l.084.083c.332.083.664.083.914.249l1.994.665c.25.083.499.166.748.332.083 0 .083.083.083.083h.415c.083-.083.083-.166.167-.332 0-.083.083-.166.083-.332l.166-.333c.083-.166.083-.332.166-.581l.166-.333v-.332c.166-.25.083-.333-.083-.333Zm-5.817-3.157c.25.166.582.166.748 0h.083c.084-.083.25-.083.333-.167.166-.166.166-.249.332-.415.166-.416.25-.914.083-1.246-.083-.167-.166-.333-.415-.416a.648.648 0 0 0-.333-.332c-.083-.083-.249-.167-.332-.25-.083-.083-.415-.166-.748-.415a4.199 4.199 0 0 1-.83-.333c-.084-.083-.25-.166-.416-.249 0 0-.083-.083-.166-.083a2.458 2.458 0 0 1-.333-.249c-.166-.083-.25-.166-.332-.083a.179.179 0 0 0-.166.166c-.084.083-.084.166-.084.166l.167.166c.083 0 .166.083.249.083.083.083.166.083.25.083.165.084.165.167.248.333 0 .083-.083.249-.083.415l-1.662 3.158c-.083.249-.249.332-.332.416-.083.083-.25 0-.416-.084-.083-.083-.083-.083-.166-.083l-.166-.166c-.166-.083-.166-.083-.25-.083-.082 0-.165.083-.165.083-.083.083-.083.166 0 .249v.084c.083.083.166.083.166.166 0 0 .166.083.415.166.25.166.416.249.665.415.166.084.416.25.748.416.332.166.499.332.665.415.332.167.581.25.83.333.333.083.582.166.915.083.498-.083.83-.416 1.08-.831.166-.416.25-.748.166-1.08-.249-.25-.415-.499-.748-.831Zm-1.578-1.662.415-.748c.083-.166.166-.249.332-.249.167-.084.416.083.665.249.499.249.831.498.914.665a.622.622 0 0 1 0 .747c-.083.167-.249.416-.415.416-.166.166-.416.166-.665.083-.166-.083-.25-.083-.416-.166-.166-.166-.332-.166-.581-.333-.083-.083-.166-.166-.333-.166l-.083-.083c-.083-.166-.083-.166-.083-.249l.25-.166Zm1.33 3.241c-.167.332-.416.581-.749.664h-.581c-.167-.083-.416-.166-.582-.249-.416-.249-.665-.415-.831-.582-.083-.166-.083-.332.083-.498l.582-1.164c.083-.166.249-.332.415-.332.083 0 .166.083.416.166.083.083.166.083.332.166.582.333.831.665 1.08.831.083.25 0 .665-.166.998ZM41.3 91.657c.166-.084.332-.167.415-.167l.166-.166c.084-.166.084-.166 0-.25-.083-.082-.166-.082-.166-.165-.166 0-.166 0-.332.083-.083 0-.166.083-.25.083-.083.166-.249.166-.415.25-.25.165-.415.165-.665.165a2.068 2.068 0 0 1-.415-.581l-.582-1.247c-.083-.166-.083-.332-.083-.415.083-.166.166-.166.416-.333l1.246-.664c.083-.084.166-.084.25-.084.082.084.166.167.249.25.166.415.249.665.249.748 0 .083-.166.249-.416.332 0 .083-.083.083-.083.083-.083.083-.166.083-.166.083-.166.083-.166.083-.166.166v.167c.083.083.166.083.25.083.082 0 .165 0 .415-.083.083 0 .166-.084.332-.167a2.59 2.59 0 0 0 .499-.332c.083-.083.332-.166.581-.25.084-.082.167-.082.25-.165.083 0 .083 0 .083-.084.166-.083.25-.166.332-.166.083-.166.083-.166.083-.249l-.166-.166c-.083 0-.166 0-.25.083h-.082c-.083.083-.166.083-.166.166-.084.083-.084.083-.167.083-.166.083-.415.166-.415.083-.166-.083-.333-.332-.416-.665-.083-.166-.083-.166-.083-.249.083-.166.083-.166.25-.25l.914-.415c.083-.083.166-.083.249-.083h.166c.083 0 .166.083.332.333l.582 1.08c.166.332.166.582.166.665-.083.166-.166.332-.498.415-.083.083-.166.166-.333.166-.166.084-.249.084-.332.167-.083 0-.083 0-.083.083l-.083.083c-.083.166-.083.166 0 .25 0 .082 0 .082.083.165 0 0 .083 0 .083.083.083 0 .166 0 .25-.083.082-.083.165-.166.332-.166.166-.166.415-.25.581-.332.083-.083.167-.083.333-.166.083-.084.249-.167.332-.167.166-.083.166-.166.25-.249 0-.166 0-.25-.084-.332v-.083c-.166-.25-.332-.499-.415-.748l-.831-1.662-.25-.416a5.709 5.709 0 0 1-.249-.664c-.083-.25-.166-.416-.249-.5 0-.082-.083-.082-.083-.165-.083-.083-.083-.083-.166-.083-.083-.084-.166-.084-.25 0-.083.083-.166.083-.166.166s0 .166.083.25c0 .082.083.082.166.165.084.083.084.166.167.166.083.167.083.333.083.416-.083.166-.083.25-.333.332L39.39 88c-.167.083-.416.166-.416.083-.083 0-.166-.083-.332-.332 0-.083-.083-.166-.083-.166-.084-.083-.084-.166-.167-.166 0-.167-.083-.167-.166-.167h-.166c-.166.084-.166.084-.166.25-.083.083 0 .083.083.249 0 0 0 .083.083.166.166.25.332.582.499.831l1.163 2.16c.083.25.25.5.332.749 0 .083.084.083.084.083.082.166.166.166.249.249.083 0 .166 0 .332-.083.083-.083.166-.166.332-.166.167-.083.25-.083.333-.166-.416.249-.25.166-.083.083Zm3.573 4.071c.083-.166.166-.332.166-.581.083-.25-.083-.665-.332-1.247l-.166-.166c-.25-.582-.333-.914-.333-1.163 0-.166.083-.416.416-.582.249-.166.498-.25.748-.166.166.083.332.166.415.25.083.082.166.082.25.248.166.333.332.582.332.831 0 .25-.083.499-.25.665a1.164 1.164 0 0 1-.332.25l-.083.083c-.083.166-.25.166-.332.249 0 .083-.084.083-.084.166s.084.166.084.166c.083.083.166.166.249.166h.083c0-.083.083-.083.166-.166 0 0 .083 0 .083-.083.333-.166.582-.415.831-.665a.635.635 0 0 1 .416-.166l.166-.166c.083-.083.166-.083.166-.166a.179.179 0 0 0-.166-.166.179.179 0 0 0-.166-.167c-.083 0-.167 0-.25.083l-.083.084c.083-.25 0-.499-.083-.665-.083-.25-.166-.499-.332-.665-.25-.332-.499-.582-.748-.665-.083-.083-.25-.083-.416-.083-.415-.166-.83 0-1.246.25-.25.166-.332.332-.499.498-.083.25-.083.415-.083.665 0 .25.083.665.416 1.246l.083.083c.25.665.415.998.332 1.247 0 .166-.166.332-.415.581-.333.167-.582.25-.831.167-.083 0-.166 0-.25-.083-.166-.167-.415-.333-.581-.499-.25-.415-.416-.748-.332-1.08.083-.333.249-.665.581-.831l.25-.166c0-.084 0-.084.083-.084.083-.083.083-.166.166-.249 0-.083 0-.166-.083-.25l-.083-.082h-.167c-.083 0-.166 0-.332.083 0 0-.083.083-.25.166-.165.166-.332.332-.581.415-.083.084-.25.167-.416.25-.166.083-.249.166-.332.166-.083.083-.083.166-.083.25-.083.082 0 .166 0 .249.083.083.166.083.25.083.082 0 .082 0 .249-.083 0-.084 0-.084.083-.084 0 0 0-.083.083-.083 0 .25 0 .499.083.748.083.333.166.582.415.831.333.416.665.665 1.08.831.084.083.084.083.167.083.498.166.914 0 1.413-.332.166-.166.332-.332.415-.499Zm1.579 4.571c-.083-.083-.166-.083-.166-.083-.166-.167-.25-.333-.25-.416 0-.083.167-.25.25-.332l2.659-2.41c.166-.166.332-.25.415-.25.083 0 .166.084.416.25.249.25.415.498.415.665 0 .166-.083.332-.332.498-.083.166-.166.166-.333.333-.166.083-.166.166-.249.166-.083.083-.166.166-.166.25 0 .082 0 .165.083.249.083.083.166.083.25.083.082 0 .166-.084.249-.084l.249-.249c.166-.166.25-.332.415-.415.084-.083.167-.083.333-.25.083-.083.166-.083.25-.166.082 0 .082-.083.082-.083.083-.083.083-.166.083-.25 0-.082-.083-.165-.083-.249 0-.083-.083-.083-.083-.083 0-.083 0-.083-.083-.166-.416-.332-.665-.665-1.08-1.08l-.499-.582c-.415-.332-.665-.664-.997-1.08l-.083-.083c-.166-.166-.25-.166-.333-.166-.083 0-.249.083-.415.083 0 .083-.166.083-.166.25-.083.082-.166.248-.25.332-.083.083-.332.166-.415.415-.166.166-.332.166-.332.166-.083.083-.166.166-.166.25-.084.166 0 .166.083.249.083.083.166.083.249.083.083-.083.166-.083.25-.083.082-.083.165-.166.165-.25.083-.166.25-.249.333-.332.166-.166.415-.332.581-.25.167 0 .416.084.665.416.166.166.25.333.25.416 0 .083-.084.249-.333.415l-2.576 2.41v.083c-.166.083-.332.166-.415.166-.084 0-.25-.083-.416-.249-.083 0-.083-.083-.083-.166-.083-.083-.083-.166-.166-.166-.083-.083-.166-.083-.166-.083-.167 0-.167.083-.25.083-.083.083-.166.083-.166.249 0 .083.083.166.166.25.083.082.25.249.499.415.166.249.415.415.498.498.084.167.333.416.5.665l.082.083c.166.166.25.333.333.416.083.083.166.166.249.166.083.083.166 0 .25-.083.082-.083.082-.166.082-.249 0-.084-.083-.167-.083-.25-.083-.332-.166-.332-.25-.415Zm6.066 4.986c-.083 0-.083 0-.166-.084h-.083c-.166-.166-.166-.249-.25-.332 0-.166 0-.249.167-.499l.748-2.243.664-1.994c.083-.25.083-.416.083-.5-.083-.165-.083-.248-.249-.331-.083-.167-.166-.167-.332-.167-.083 0-.083 0-.25.084-.083 0-.083.083-.249.166l-1.662.997-2.16 1.329c-.167.083-.416.167-.499.167-.166 0-.25-.084-.416-.167l-.083-.083-.166-.166c-.083-.083-.083-.083-.166-.083-.083.083-.166.083-.166.166-.083.083-.083.166-.083.249 0 .084.083.167.083.25 0 0 .166.083.415.332.333.166.582.333.831.582l.416.415c.166.167.166.25.25.25.082.083.165.166.248.166.084-.083.167-.083.167-.166.083-.083.083-.167.083-.167 0-.166-.083-.166-.083-.249-.084-.083-.167-.083-.167-.083-.083-.083-.083-.166-.166-.166-.083-.083-.083-.166-.083-.166v-.167c.083-.083.083-.083.083-.166.083-.083.166-.083.166-.083l.665-.332c.083-.083.166-.083.166-.083.083-.083.166 0 .166 0l.582.498.748.665c.083 0 .083.083.083.166.083.083 0 .166 0 .25l-.332.332c0 .083-.083.083-.083.166-.083.083-.083.083-.083.166l-.167.166c-.083 0-.166.001-.166-.083h-.083c-.083-.083-.083-.166-.166-.166 0-.249-.083-.249-.083-.249-.083-.083-.083-.083-.25-.083-.083 0-.166.083-.166.083-.083.166-.083.166-.083.249 0 .083 0 .166.083.249 0 0 .166.084.25.167.166.166.332.166.415.332.333.249.665.499.914.831a.257.257 0 0 0 .166.083c.084.083.167.083.25.083.166 0 .166 0 .249-.083.083-.083.083-.083.083-.249.083-.083 0-.083-.083-.249Zm-.665-3.158-.914-.665-.166-.166c0-.083 0-.083.083-.083 0 0 .083 0 .083-.083h.083l1.912-1.164h.083l-.084.167-.747 1.911c0 .083 0 .083-.084.083v.083h-.083c-.083 0-.083 0-.166-.083Zm38.89.914c-.25-.083-.582-.166-.831-.166-.416 0-.914.083-1.413.415-.083.083-.332.166-.665.416-.332.166-.581.249-.748.332-.166.083-.249.166-.415.166h-.083c-.083 0-.166.083-.332.083-.167.084-.25.083-.25.167-.166.083-.25.083-.25.166-.082.083 0 .166 0 .249.084.083.084.166.167.166.083.083.166.083.25 0h.082c.084-.083.084-.083.084-.166.166-.083.166-.083.249-.166.166-.083.25-.083.415-.083.084.083.167.166.25.332l1.579 3.407a.905.905 0 0 1 .083.416c0 .166-.083.166-.25.249-.083.083-.166.083-.249.083-.083.083-.166.083-.166.166a.179.179 0 0 0-.166.166c-.083.084-.083.167 0 .25a.258.258 0 0 0 .166.083c.083 0 .166 0 .332-.083.083-.083.25-.166.499-.25.166-.083.415-.249.581-.332.084-.083.167-.083.333-.166.083-.083.166-.166.332-.166.333-.167.582-.25.748-.333.831-.332 1.33-.914 1.579-1.662.166-.664.083-1.412-.25-2.243-.498-.665-.996-1.247-1.661-1.496Zm1.163 3.906c-.083.498-.582.914-1.163 1.163-.333.166-.582.249-.748.249h-.083c-.083 0-.25-.166-.416-.415l-1.412-2.992-.083-.166c-.084-.332-.167-.499-.084-.582 0-.166.167-.249.5-.415.58-.249 1.08-.333 1.495-.333.166 0 .25 0 .415.084.499.166.914.664 1.247 1.412.332.748.415 1.413.332 1.995Zm14.459-14.46a.456.456 0 0 0-.415.25c-.083 0-.083 0-.083.083-.084.083-.167.25-.167.332.083.166.083.166.167.25v.083c.166.083.166.083.332.083.083 0 .083-.083.166-.166.083-.084.083-.084.083-.167v-.166c0-.083.083-.083.083-.083 0 .083.083.083.083.083.167.166.25.25.25.416.083.083 0 .249-.083.415-.167.166-.416.333-.914.416l-.25.083c-.083.083-.332.083-.415.25a1.166 1.166 0 0 0-.25.332c-.166.083-.166.332-.249.415a.53.53 0 0 0 0 .499c-.166-.084-.332-.416-.332-.665 0-.333.083-.831.415-1.745v-.166c.166-.582.25-1.08.166-1.33 0-.166-.083-.332-.166-.499-.166-.166-.249-.249-.415-.332-.416-.332-.831-.415-1.33-.25-.249.084-.498.167-.665.416l-.664.665c-.167.332-.333.665-.416.997v.831c.166.333.333.665.665.914.083.083.249.083.415.083h.084c.083 0 .332-.083.415-.249.166-.083.166-.25.166-.415 0-.167-.083-.25-.166-.333-.166-.083-.166-.166-.249-.166-.083 0-.083 0-.083.083-.083 0-.083 0-.167.083v.083l-.083.083c-.083 0-.083 0-.166-.083-.083-.166-.249-.332-.166-.665 0-.332.166-.581.415-.914 0-.083.084-.083.167-.166a1.29 1.29 0 0 1 .664-.498c.333-.084.665-.084.914.166.167.166.25.166.333.415.083.166.083.333.083.416-.083.166-.083.498-.249.914-.167.415-.167.748-.25.997-.083.416-.083.914.083 1.33.167.332.416.664.665.914.25.083.416.166.665.166a.639.639 0 0 0 .416-.166c.083-.167.166-.25.166-.333 0-.083-.083-.166-.166-.249-.167-.083-.333-.083-.499.083-.083-.083-.083-.166-.083-.25 0-.165.083-.249.083-.332.166-.166.166-.249.415-.415.084 0 .167-.083.25-.083.166-.083.249-.166.415-.166.083 0 .083 0 .166-.083.416-.167.665-.333.831-.582.167-.25.25-.582.167-.831-.084-.333-.25-.582-.499-.748-.332-.25-.582-.332-.748-.332Zm3.573-4.237c-.332-.665-.914-1.164-1.662-1.58-.914-.415-1.578-.58-2.243-.415h-.083c-.665.166-1.081.582-1.413 1.164-.332.664-.332 1.246-.083 1.91.249.583.748 1.081 1.496 1.414.083.083.166.083.166.166.831.415 1.579.581 2.243.415.665-.083 1.164-.498 1.496-1.163.333-.665.333-1.33.083-1.911Zm-.581 1.578c-.25.416-.582.665-1.164.748-.498.083-1.08-.083-1.745-.415-.166-.083-.415-.166-.498-.333a2.148 2.148 0 0 1-.831-.914c-.25-.415-.25-.83 0-1.33.166-.415.415-.664.831-.664.083-.083.166-.083.166-.083.498-.083 1.163.083 1.745.415.665.333 1.163.748 1.413 1.164.249.582.332.997.083 1.412Zm-7.147 6.482c-.249-.332-.581-.499-.914-.665-.415-.166-.665-.332-1.08-.332-.582-.083-1.08.166-1.496.498l-.25.25c-.415.498-.664.997-.664 1.495 0 .582.166 1.08.665 1.413.083.166.166.166.332.25.416.249.748.415 1.164.332.498 0 .997-.25 1.412-.748.25-.332.416-.582.582-.914a1.709 1.709 0 0 0 0-.914c.166.166.415.415.499.582.166.332.415.581.415.914.083.498-.083.914-.415 1.33l-.084.082c-.166.166-.332.333-.664.333-.167.166-.25.166-.416.166v-.083s-.083 0-.083-.083c0-.167 0-.333-.083-.333-.083-.083-.166-.166-.332-.166-.167 0-.167.083-.333.166-.083.166-.166.25-.166.416.083.083.083.249.249.332.166.166.416.333.748.249h.249c.333-.083.582-.166.831-.415.084-.166.25-.249.416-.332.582-.582.748-1.247.665-1.912-.166-.665-.416-1.33-1.081-1.911h-.166Zm-.914 1.33c-.083.166-.166.415-.415.664-.333.333-.582.499-.998.499-.332 0-.664-.166-.997-.415-.083-.084-.166-.084-.166-.167a1.34 1.34 0 0 1-.25-.748c-.082-.249.084-.581.25-.83.083-.084.083-.167.166-.167.333-.415.665-.498.998-.581.332 0 .664.166.914.415.249.166.415.415.415.665.083.083.083.25.083.332a.253.253 0 0 1 0 .333Zm-14.625 11.883c-.083-.167-.083-.25-.083-.333-.083-.166-.083-.332-.166-.665-.083-.166-.083-.332-.083-.332 0-.083-.084-.083-.084-.083a.179.179 0 0 0-.166-.166c-.083-.083-.083-.083-.166-.083-.166.083-.166.083-.25.166v.332s.084.166.084.249l.166.333c.083.332.083.498 0 .665-.083.166-.332.249-.665.332l-1.33.416c-.165.083-.332.083-.415 0-.083-.084-.166-.167-.249-.416l-.415-1.33c-.084-.166-.084-.166 0-.249.083-.083.166-.166.249-.166.415-.166.665-.166.83-.083.167 0 .167.166.333.415v.167a.257.257 0 0 1 .083.166c.083.166.083.166.166.166.084.083.167.083.25.083l.166-.166c.083-.166.083-.249 0-.416l-.166-.332a4.062 4.062 0 0 0-.25-.582c0-.166-.083-.415-.166-.581 0-.25-.083-.416-.083-.416-.083-.166-.083-.332-.166-.415-.083-.083-.166-.083-.25-.083-.082 0-.165.083-.165.083v.249c.083.083.083.166.083.249 0 .083 0 .166.083.25.083.166 0 .415-.083.415-.084.083-.333.166-.665.332-.166.084-.25.084-.333 0-.083 0-.166-.166-.166-.249l-.249-.914c-.083-.166-.083-.415-.083-.415.083-.167.166-.167.332-.25l1.247-.415c.332-.083.581-.083.664 0 .084.083.25.249.333.498.083.167.083.25.083.416 0 .166 0 .249.083.332 0 .083.083.083.166.166.083.084.166.084.333.084.083 0 .166-.084.166-.167.083-.083.083-.166 0-.249 0-.083 0-.166-.166-.415-.083-.167-.083-.416-.166-.582 0-.083 0-.166-.084-.333 0-.166-.083-.332-.083-.415-.083-.166-.166-.166-.166-.249-.083-.083-.166-.083-.332-.083 0 0-.083 0-.083.083-.25.083-.499.166-.831.249l-1.745.499-.499.083c-.166.083-.332.083-.582.166-.249.083-.415.083-.498.083h-.083c-.167 0-.167.083-.25.083v.083c.083.083.083.166.083.249v.084a.258.258 0 0 0 .167.083h.249c.083 0 .166-.083.25-.167.082 0 .165-.083.248-.083.167-.083.25-.083.416 0 .083.083.166.167.166.333l.997 3.573c.083.166.083.415 0 .415 0 .167-.166.167-.332.25-.083 0-.166 0-.25.083h-.165c-.167.083-.167.166-.167.166-.083.083-.083.166-.083.249l.166.166c.084.084.167.084.333 0 0 0 .083 0 .166-.083.332-.083.665-.166.914-.332l2.41-.665c.25-.083.498-.083.665-.083.083-.083.083-.083.166-.083h.083c.083-.083.166-.166.25-.166.082-.166.082-.249 0-.333 0 .333-.084.333-.167.084Zm12.714-6.981c-.083 0-.083 0-.25.083 0 .084-.083.167-.166.167l-.166.166c-.083.166-.249.166-.415.166-.083 0-.166-.166-.416-.249l-2.243-2.909c-.167-.166-.25-.332-.416-.415l-.083-.083c-.083-.166-.166-.166-.166-.166-.083 0-.166 0-.25.166-.082 0-.082.083-.249.166-.166.083-.249.25-.332.332-.083.083-.083.083-.25.167-.083.083-.166.083-.249.166-.083.083-.083.166-.083.249 0 .083 0 .166.083.249a.257.257 0 0 0 .166.083c.084 0 .084-.083.25-.083 0-.083.083-.083.083-.166.083-.083.166-.083.166-.083.166-.166.25-.166.416-.166.083 0 .166.166.332.249l2.244 2.742c.083.167.166.333.166.416 0 .083-.083.249-.166.332-.084.083-.167.083-.167.166-.083.084-.083.083-.166.083-.083.167-.166.167-.166.333 0 .083 0 .166.083.249.083.083.083.166.166.166s.166-.083.333-.166c0 0 .083-.083.083-.166.25-.332.581-.582.83-.748.167-.166.25-.166.416-.332.166-.166.416-.25.582-.416l.166-.166c.083-.166.166-.166.166-.249 0-.166 0-.166-.083-.333h-.25Zm-19.113 3.823v-.166c-.083-.083-.166-.083-.249-.083-.083 0-.166 0-.498.083-.25.083-.416.083-.665.166h-1.163c-.167 0-.25.083-.416.083-.083.083-.083.166-.083.249 0 .083 0 .166.083.25.083 0 .166.083.25.083.082 0 .165-.083.249-.083h.166c.166-.084.25 0 .332.083.083.083.166.166.166.415l.084 1.413c-.084 0-.333 0-.5.083-.165 0-.498 0-.83.083-.416.083-.665.083-.914.083-.166 0-.416.083-.582.083l-.083-1.329c0-.167 0-.333.083-.416.083-.083.166-.083.332-.083h.333c.166 0 .166 0 .25-.166 0-.083.082-.166.082-.249-.083-.084-.083-.167-.166-.167-.083-.083-.166-.083-.332-.083-.083 0-.25.083-.499.083-.332.083-.498.167-.748.167-.166 0-.415.083-.664 0h-.416c-.083.083-.25.083-.332.166 0 .083-.084.166-.084.249.084.166.084.166.084.249.083.083.083.083.249.083.083 0 .166 0 .25-.083h.249c.166-.083.249 0 .415.083.083.084.083.167.083.416l.333 3.656c0 .166 0 .333-.084.416-.083.083-.166.083-.332.083h-.499c-.083 0-.166.083-.249.166-.083.083-.083.166-.083.166 0 .166.083.166.083.249.083.084.166.084.25.084.083 0 .166 0 .415-.084.25-.083.499-.083.748-.166h1.164c.165 0 .248-.083.331-.166.167-.083.167-.083.167-.249 0-.083-.083-.166-.166-.25-.084 0-.084-.083-.167-.083s-.166.083-.249.083c-.083 0-.166.084-.166.084-.083 0-.25 0-.416-.167-.083-.083-.083-.166-.166-.415l-.083-1.662c.25 0 .415-.083.665-.083.25 0 .415-.083.665-.083.249 0 .498-.083.748-.083.249 0 .415-.083.664-.083l.166 1.661c0 .167 0 .333-.083.416-.083.083-.166.083-.415.083h-.332c-.084 0-.167 0-.25.083-.083.083-.083.166-.083.249 0 .167.083.167.083.25.166.083.25.083.416.083.083 0 .249-.083.498-.083.25 0 .499-.083.665-.083.25 0 .499-.083.748 0 .25 0 .415 0 .415-.083h.084c.083 0 .166 0 .166-.084.083-.083.083-.166.083-.249 0-.166 0-.166-.083-.249-.083-.083-.166-.083-.166-.083h-.084c-.083 0-.166 0-.249.083-.166 0-.166.083-.25.083a.635.635 0 0 1-.415-.166c-.083-.083-.083-.166-.083-.333l-.332-3.739c-.083-.166 0-.332.083-.332.083-.167.166-.167.415-.167h.416c.083 0 .166-.083.25-.166v-.083c.248-.083.248-.166.248-.249Z"/><path fill="#C6C6C5" fill-rule="evenodd" d="m110.437 69.22 1.329 3.574 3.823.166-3.075 2.327 1.163 3.656-3.24-2.16-3.075 2.16.997-3.656-2.991-2.327 3.822-.166 1.247-3.573Zm-72.793 0 1.247 3.574 3.822.166-2.991 2.327 1.08 3.656-3.158-2.16-3.157 2.16 1.08-3.656-3.075-2.327 3.823-.166 1.33-3.573Zm35.648 5.9s-3.407-1.579-2.41-7.23c.997-5.65 1.496-11.467 2.742-11.55 0 0 1.164-.665 1.413.499l.083 34.485s-1.828 1.413-3.823-.25c0 0-.664-.498-.332-1.578 0-.831 2.327-14.376 2.327-14.376ZM59.498 56.09s-1.08 8.975-.997 9.308c.166.415-.083 1.662 1.745 2.243 0 0 1.163.582 1.163 1.413 0 0 0 8.974-.914 16.12l-1.08 3.242c-.416 1.246-.665 3.407 2.908 3.324 3.573-.084 2.992-2.41 2.41-3.99-.665-1.661-.997-4.486-1.163-6.564-.25-2.16-.748-11.633-.499-12.215 0 0-.083-.914 1.33-1.413 1.412-.498 1.578-1.496 1.578-2.493 0-.914-.997-8.974-.997-8.974h-.581v8.31c0 .166-.167.332-.416.332h-.332c-.25 0-.416-.166-.416-.332v-8.31h-.498v8.31c0 .166-.167.332-.416.332h-.332c-.166 0-.416-.166-.416-.332v-8.31h-.581v8.31c0 .166-.084.332-.416.332h-.332c-.166 0-.416-.166-.416-.332v-8.31h-.332Zm22.185 11.053c-5.152-1.995-2.16-11.301 3.158-10.97 5.235-.415 7.728 8.394 3.158 10.887-.998.664-2.576.997-2.493 2.16-.166.582.332 9.972.498 12.132.25 2.078.665 4.903 1.164 6.482.581 1.662 1.163 3.906-2.41 3.989-3.656.083-3.324-2.078-2.908-3.324.415-1.247.997-3.241.997-3.241.914-7.063.914-16.038.914-16.038.083-.914-.748-1.579-2.078-2.077Z" clip-rule="evenodd"/><path fill="#C6C6C5" d="m110.687 57.255-.831-2.078-.249.083v.083c.166.25.166.416.083.582-.083.083-.166.25-.416.415l-2.576.998-1.246.498c-.249.083-.416.083-.582.083-.166-.083-.332-.166-.332-.415l-.083-.083-.167.083.831 2.077 1.081 2.66.498-.084.416-.083.914-.166-.083-.25c-.582 0-.997-.083-1.33-.332a.179.179 0 0 1-.166-.166c-.332-.166-.582-.665-.831-1.246-.083-.25-.166-.416-.083-.499.083-.166.166-.25.415-.332l.665-.333 1.164-.415v.083c.166.415.166.665.083.914-.083.166-.416.498-.914.748l.083.25 1.412-.583 1.413-.581-.083-.25c-.582.167-.914.167-1.163 0-.25-.083-.416-.332-.582-.664l-.083-.167 1.745-.664c.166-.166.332-.166.415-.083.083 0 .166.166.25.332v.083c.249.665.415 1.163.332 1.496-.083.332-.415.665-.914.997l.083.166.831-.332.914-.416-.914-2.41Zm-7.396-3.158 1.662-1.08c.25.415.333.664.333.914-.083.249-.333.581-.748.914l.083.166 1.246-.831.748-.499.499-.332-.166-.25c-.083.084-.25.084-.416.167-.332.083-.582.166-.665.083-.249-.083-.498-.25-.748-.665l1.413-.914.166-.166c.166-.083.333-.083.416-.083.083 0 .249.083.332.332.416.665.665 1.163.665 1.413 0 .415-.249.665-.748 1.08l.166.166.748-.498.748-.499-1.496-2.327-.914-1.412-.332-.499-.166.166v.083c.166.167.249.416.166.582 0 .166-.083.333-.416.416l-3.407 2.243h-.083c-.166.083-.332.166-.498.083-.167 0-.333-.083-.416-.332l-.083-.083-.166.166.831 1.413.332.498.499.831.249-.083-.083-.166c-.166-.25-.249-.416-.249-.665.249-.083.332-.25.498-.332Zm-.748-5.65 1.164-2.494-.083-.083-.083-.083-1.081.332-1.745.582-2.41.831-.166.083c-.249.083-.415.083-.664.083-.084 0-.25-.083-.333-.166l-.166.166.665.665.581.665.167-.166-.084-.084c-.083-.249-.249-.415-.166-.581 0-.083.166-.25.25-.333.083 0 .083 0 .166-.083l.83-.249 1.164 1.496-.415.83c-.083.25-.25.333-.333.333-.166 0-.332-.083-.498-.332l-.084-.083-.166.166.914 1.08.748.831.25.332.166-.166h-.083c-.083-.166-.167-.249-.167-.415 0-.166.167-.332.25-.665l1.412-2.493Zm-1.828.248-1.08-1.246 1.08-.332.997-.333-.997 1.911Zm-3.74-2.908c-.415.083-.913.083-1.246.083-.415-.083-.747-.166-1.08-.415-.415-.333-.665-.748-.665-1.33 0-.582.333-1.163.748-1.911a4.043 4.043 0 0 1 1.58-1.413 1.676 1.676 0 0 1 1.412.166c.332.167.498.416.665.831.083.083.083.166.166.25.083.415.083.914-.166 1.412v.083l.166.167 1.245-1.83-.166-.083-.083.083c-.166.084-.25.084-.416.084-.166 0-.166-.084-.249-.25-.166-.249-.332-.498-.582-.665-.083-.166-.332-.332-.498-.498-.748-.499-1.496-.665-2.41-.499-.83.083-1.496.665-1.994 1.33-.499.748-.665 1.579-.582 2.41.166.83.582 1.495 1.33 1.994.415.332.83.499 1.33.582.415.083.913 0 1.495-.166v-.416Zm-27.42-12.714.083.25.083-.084c.25 0 .499.083.582.167.166.166.166.415.249.664l.332 2.66-3.656-3.408-.914.084-.831.166h-.166v.249h.166c.083 0 .166 0 .332.083.167.083.333.166.499.416l.498 3.988c.084.333 0 .582-.083.665-.166.083-.249.25-.581.332h-.083l.083.25.914-.166.997-.084v-.249h-.166c-.25.083-.416 0-.582-.083-.083-.083-.166-.416-.25-.665l-.415-3.49 4.488 4.321h.332l-.665-4.986c0-.332 0-.581.166-.664.084-.167.25-.25.499-.333h.083v-.25l-.997.084-.997.083Zm3.24-.25v.25h.084c.249 0 .415.083.581.083.083.166.166.333.166.582l-.083 4.155c0 .332-.083.498-.166.581-.166.167-.332.167-.582.167h-.083v.249h1.496l1.58.083v-.25h-.167c-.25-.082-.416-.082-.582-.166-.083-.083-.083-.332-.083-.581l.083-4.155c0-.25.083-.415.166-.582.084-.166.333-.166.582-.166h.083v-.332h-3.075v.083Zm8.809.749v.249h.083c.25.083.415.166.499.332.166.167.166.416.083.748l-.499 2.66-2.327-4.405-.914-.083-.914-.166-.083.25c.083 0 .25.082.332.249.167.083.25.249.416.581l-.665 3.906c-.083.332-.083.581-.25.664-.082.167-.332.167-.664.167h-.25v.083l.998.166.997.083v-.25h-.083c-.25-.082-.415-.165-.498-.332-.167-.166-.167-.415-.084-.747l.665-3.407 3.075 5.4.166.084h.083l.914-4.903c.083-.332.083-.581.25-.665.082-.083.332-.083.581-.083h.083l.083-.249-.997-.166-1.08-.166Zm5.235 2.326c.416-.415.914-.498 1.33-.332.415.166.83.499 1.08.914.25.416.332.914.332 1.579l.166.083.748-1.994-.166-.083-.166.166c-.083.083-.166.166-.333.166-.083 0-.166-.083-.249-.166-.415-.416-.83-.665-1.495-.914-.748-.333-1.58-.333-2.244.083-.748.415-1.33.914-1.662 1.828-.416.914-.416 1.745 0 2.493.415.665.997 1.246 1.994 1.579.748.332 1.496.415 2.16.415l.5-1.246c.082-.25.249-.416.332-.416.166-.083.332-.083.581.083h.084l.166-.166-1.496-.581-1.496-.582-.083.25h.083c.333.082.499.248.582.415.083.166.083.332 0 .581l-.25.582c-.166.332-.249.499-.415.582-.083.083-.332.083-.582 0l-.166-.083a1.355 1.355 0 0 1-.914-1.08c-.083-.582.083-1.247.333-2.161.415-.997.747-1.662 1.246-1.995Zm-21.44 3.823c-.248.083-.415.166-.58 0-.167-.083-.25-.166-.416-.416L63.155 35.4c-.083-.25-.083-.416 0-.582.083-.166.166-.25.416-.415h.083l-.083-.25-1.413.499-1.413.416h-.083l.083.249h.084c.249-.083.415-.083.664-.083.083.083.25.249.333.498l1.246 3.989c.083.25.083.415.083.582-.083.166-.25.249-.498.332l-.083.083.083.25 1.412-.5 1.413-.415h.166l-.25-.332Zm-4.819-1.413c-.415-.914-.997-1.412-1.745-1.662-.332-.083-.582-.083-.83-.083-.5 0-.998.166-1.497.416l-1.246.665-1.33.664v.083l.084.166.083-.083c.249-.083.415-.083.581-.083.083 0 .25.166.416.416l1.911 3.656c.166.25.166.416.166.582-.083.166-.166.332-.415.415h-.25l.084.25 1.412-.665.997-.499c.914-.498 1.58-1.163 1.828-1.911.084-.083.084-.166.084-.166.166-.499.166-.914 0-1.496-.167-.166-.167-.416-.333-.665Zm-.83 2.66c-.084.498-.333.913-.832 1.163-.166.083-.332.166-.415.083-.083 0-.166-.083-.25-.333l-.249-.498-1.745-3.407c-.083-.166-.166-.332-.083-.416 0-.083.083-.166.332-.332.499-.25.998-.25 1.413.083h.083c.416.25.914.748 1.247 1.579.415.914.581 1.579.498 2.077Zm-6.233 3.739-.416-.831-.249.166c.166.665.166 1.163 0 1.579-.083.415-.415.748-.914 1.163-.166.166-.332.25-.415.25-.167 0-.333-.167-.416-.333l-1.246-1.496.083-.083c.332-.25.665-.415.914-.415.25 0 .665.166.997.581l.166-.166-1.08-1.08-.997-1.163-.166.166c.332.415.415.83.415 1.08 0 .25-.166.499-.498.748l-.167.166-1.163-1.496c-.166-.083-.166-.249-.166-.332 0-.083.083-.166.249-.332v-.084c.582-.415.997-.664 1.413-.747.332 0 .748.166 1.163.581l.166-.166-.665-.665-.581-.664-2.16 1.828-.167.083-1.579 1.413.166.166.083-.083c.167-.167.416-.25.499-.25.166 0 .332.083.499.333l.415.498 2.244 2.66c.166.166.249.415.249.498 0 .166-.166.332-.332.498l-.083.084.166.166 1.745-1.413 2.16-1.911h.083l-.083-.083-.332-.914Zm-8.144 2.16c-.249-.166-.415-.415-.415-.581-.083-.167 0-.416.166-.582l.083-.083-.166-.083-.582.748-.664.747.166.167.083-.083c.166-.167.415-.333.581-.333.084 0 .416.083.665.333l2.078 1.662H42.38l-.582.747-.665.748.167.166.083-.083c.083-.083.166-.083.332-.083.166-.083.416-.083.665-.083l1.08.914 2.078 1.662c.249.166.332.416.415.582 0 .166-.083.415-.166.582l-.083.083.166.166.665-.831.581-.748-.166-.166-.083.083c-.166.166-.332.25-.498.25-.167 0-.416-.084-.665-.333l-2.244-1.828-.498-.416h.498l4.321-.083h1.496l.083-.083.083-.083-1.662-1.33-2.41-1.745Zm0 7.812c-.083.249-.249.415-.415.415-.083.083-.333 0-.582-.083l-1.08-.665-2.327-1.33-.166-.083c-.166-.166-.416-.332-.416-.415-.083-.083 0-.333.167-.582l.083-.083-.25-.166-.747 1.33-.748 1.33.166.165.083-.083c.083-.166.25-.415.416-.415.083-.083.332 0 .581.166l.914.498 2.327 1.413.332.166c.167.083.416.25.416.416.083.166 0 .332-.166.581l-.083.084.249.166.748-1.33.748-1.413-.25-.083Zm-2.492 4.985c-.084.333-.25.499-.333.582-.166.083-.332.083-.582-.083l-.914-.332-.914-.416h.083c.166-.416.416-.665.582-.748.166-.083.166-.083.332-.083.25 0 .499 0 .914.166l.084-.25-1.08-.331-.416-.167-1.413-.581-.166.166c.415.25.748.581.831.748.166.249.083.581-.083.914l-1.745-.665c-.166-.083-.333-.166-.333-.25-.083-.166-.083-.249.084-.415.249-.664.581-1.163.83-1.33.333-.166.748-.166 1.33 0l.083-.249-.83-.332-.832-.416-1.08 2.66-.831 2.077.166.166.083-.166c.083-.25.166-.415.333-.415.166-.084.332-.084.581.083l3.407 1.412.416.166c.25.084.332.167.415.333.083.166.083.332-.083.582v.083l.25.083.581-1.413.665-1.413-.416-.166Z"/></svg>