<svg xmlns="http://www.w3.org/2000/svg" width="60" height="60" fill="none"><path fill="#FFD910" d="M59.82 26.736A3.097 3.097 0 0 0 56.712 24a1.32 1.32 0 0 1-1.272-.996 26.57 26.57 0 0 0-2.508-6 1.32 1.32 0 0 1 .204-1.608 3.216 3.216 0 0 0 .924-2.232 3.012 3.012 0 0 0-.66-1.896c-.612-.756-1.2-1.476-1.932-2.172l-.516-.516a30.087 30.087 0 0 0-2.172-1.932 3.108 3.108 0 0 0-4.128.264 1.308 1.308 0 0 1-.924.384 1.39 1.39 0 0 1-.684-.18 26.57 26.57 0 0 0-6-2.508A1.32 1.32 0 0 1 36 3.288a3.168 3.168 0 0 0-.78-2.088A3.036 3.036 0 0 0 33.264.18c-2.17-.24-4.359-.24-6.528 0A3.096 3.096 0 0 0 24 3.288a1.32 1.32 0 0 1-.996 1.272 26.566 26.566 0 0 0-6 2.508 1.32 1.32 0 0 1-1.608-.204A3.145 3.145 0 0 0 13.116 6a3.06 3.06 0 0 0-1.896.66c-.756.612-1.476 1.2-2.172 1.932l-.516.516A19.127 19.127 0 0 0 6.6 11.22a3.12 3.12 0 0 0 .264 4.128c.245.245.384.577.384.924 0 .24-.062.475-.18.684a26.566 26.566 0 0 0-2.508 6A1.32 1.32 0 0 1 3.288 24a3.168 3.168 0 0 0-2.088.78 3.036 3.036 0 0 0-1.02 1.956c-.24 2.17-.24 4.359 0 6.528A3.096 3.096 0 0 0 3.288 36a1.32 1.32 0 0 1 1.272.996 26.57 26.57 0 0 0 2.508 6 1.32 1.32 0 0 1-.204 1.608A3.143 3.143 0 0 0 6 46.884c0 .688.233 1.356.66 1.896.612.756 1.2 1.476 1.932 2.172l.516.516c.696.684 1.416 1.32 2.172 1.932a3.12 3.12 0 0 0 4.128-.264c.245-.245.577-.384.924-.384.24 0 .475.062.684.18a26.57 26.57 0 0 0 6 2.508A1.32 1.32 0 0 1 24 56.712c-.002.767.276 1.51.78 2.088a3.04 3.04 0 0 0 1.956 1.02c2.17.24 4.359.24 6.528 0A3.096 3.096 0 0 0 36 56.712a1.32 1.32 0 0 1 .996-1.272 26.574 26.574 0 0 0 6-2.508 1.32 1.32 0 0 1 1.608.204 3.216 3.216 0 0 0 2.232.924 3.012 3.012 0 0 0 1.896-.66c.756-.612 1.476-1.2 2.172-1.932l.516-.516a30.087 30.087 0 0 0 1.932-2.172 3.108 3.108 0 0 0-.264-4.128 1.308 1.308 0 0 1-.384-.924c0-.24.062-.475.18-.684a26.574 26.574 0 0 0 2.508-6A1.32 1.32 0 0 1 56.712 36a3.168 3.168 0 0 0 2.088-.78 3.04 3.04 0 0 0 1.02-1.956c.24-2.17.24-4.359 0-6.528ZM30 51.6a21.6 21.6 0 1 1 0-43.199A21.6 21.6 0 0 1 30 51.6Z"/><path fill="#fff" d="M30 20.4a9.6 9.6 0 1 1 0 19.2 9.6 9.6 0 0 1 0-19.2Zm0-6a15.6 15.6 0 1 0 0 31.2 15.6 15.6 0 0 0 0-31.2Z"/></svg>