<svg xmlns="http://www.w3.org/2000/svg" width="1631" height="411" fill="none"><g fill="#FFD910" opacity=".6"><path d="m478.125 41.627 4.254 4.102-16.144 15.566-4.253-4.101z"/><path d="m461.808 45.657 4.254-4.102 16.16 15.583-4.254 4.102z"/></g><g fill="#FFD910" opacity=".6"><path d="m1626.78 20.88 2.279 2.127-8.649 8.072-2.278-2.127z"/><path d="m1618.04 22.97 2.279-2.127 8.657 8.08-2.279 2.127z"/></g><g fill="#FFD910" opacity=".4"><path d="m1327.04 349.472 4.57-4.577 17.346 17.37-4.57 4.576z"/><path d="m1331.53 367.028-4.57-4.577 17.364-17.388 4.57 4.577z"/></g><g fill="#FFD910" opacity=".5"><path d="m47.358 7.031 3.798-3.798L65.57 17.647l-3.798 3.798z"/><path d="m51.09 21.6-3.798-3.798 14.43-14.43 3.797 3.798z"/></g><g fill="#FFD910" opacity=".3"><path d="m1432.3 82.728 1.472-1.473 5.586 5.593-1.472 1.474z"/><path d="m1433.75 88.382-1.472-1.474 5.592-5.6 1.472 1.475z"/></g><g fill="#FFD910" opacity=".3"><path d="m1543.87 366.822.983-.984 3.731 3.736-.983.984z"/><path d="m1544.83 370.598-.983-.984 3.735-3.74.983.984z"/></g><g fill="#FFD910" opacity=".5"><path d="m1092.19 73.642 6.38 6.38-24.214 24.216-6.381-6.381z"/><path d="m1067.71 79.91 6.38-6.38 24.242 24.24-6.381 6.381z"/></g><g fill="#FFD910" opacity=".3"><path d="m538.609 248.475-2.246-2.25 8.526-8.537 2.246 2.25z"/><path d="m547.227 246.265-2.246 2.25-8.536-8.547 2.247-2.25z"/></g><g fill="#FFD910" opacity=".4"><path d="m26.045 331.472-4.57-4.577-17.346 17.37 4.57 4.576z"/><path d="m21.554 349.028 4.57-4.577L8.76 327.063l-4.57 4.577z"/></g><g fill="#FFD910" opacity=".4"><path d="m648.811 147.047-4.88-4.887-18.523 18.547 4.88 4.887z"/><path d="m644.016 165.793 4.88-4.887-18.541-18.567-4.881 4.887z"/></g><g fill="#FFD910" opacity=".3"><path d="m417.387 403.729-1.472-1.474-5.586 5.594 1.472 1.473z"/><path d="m415.941 409.382 1.472-1.474-5.592-5.6-1.472 1.474z"/></g><g fill="#FFD910" opacity=".3"><path d="m350.085 333.49-.983-.984-3.731 3.736.983.984z"/><path d="m349.119 337.266.983-.984-3.735-3.74-.983.984z"/></g><g fill="#FFD910" opacity=".3"><path d="m311.629 171.818 2.246-2.25-8.526-8.537-2.246 2.25z"/><path d="m303.011 169.608 2.246 2.25 8.536-8.547-2.247-2.25z"/></g></svg>